<mxfile host="app.diagrams.net" agent="Mozilla/5.0 (Macintosh; Intel Mac OS X 10_15_7) AppleWebKit/537.36 (KHTML, like Gecko) Chrome/128.0.0.0 Safari/537.36" version="24.7.14">
  <diagram name="DF" id="BleSmaJVXqo2yb7Co1eL">
    <mxGraphModel dx="999" dy="1799" grid="1" gridSize="10" guides="0" tooltips="0" connect="1" arrows="1" fold="1" page="0" pageScale="1" pageWidth="827" pageHeight="1169" math="0" shadow="0">
      <root>
        <mxCell id="0" />
        <mxCell id="1" parent="0" />
        <mxCell id="cKbgiC5qh_IXnBO1eU4K-99" value="" style="rounded=0;whiteSpace=wrap;html=1;fillColor=#dae8fc;strokeColor=#6c8ebf;" parent="1" vertex="1">
          <mxGeometry x="961" y="-200" width="3709" height="2511" as="geometry" />
        </mxCell>
        <mxCell id="nw1ie-kH-2CXK3WOrrWI-1" value="" style="strokeWidth=2;html=1;shape=mxgraph.flowchart.database;whiteSpace=wrap;rounded=1;movable=1;resizable=1;rotatable=1;deletable=1;editable=1;locked=0;connectable=1;" vertex="1" parent="1">
          <mxGeometry x="2130" y="1379" width="276" height="370" as="geometry" />
        </mxCell>
        <mxCell id="qWpF3jZFovPxBTXFjTdf-31" value="" style="strokeWidth=2;html=1;shape=mxgraph.flowchart.database;whiteSpace=wrap;rounded=1;movable=1;resizable=1;rotatable=1;deletable=1;editable=1;locked=0;connectable=1;" parent="1" vertex="1">
          <mxGeometry x="1748" y="1374" width="276" height="370" as="geometry" />
        </mxCell>
        <mxCell id="kQWFD41fJFxlXKQhT5sF-1" value="" style="group" parent="1" vertex="1" connectable="0">
          <mxGeometry x="1691" y="-203" width="155" height="49" as="geometry" />
        </mxCell>
        <mxCell id="cKbgiC5qh_IXnBO1eU4K-166" value="&lt;p style=&quot;margin: 0px 0px 0px 13px; text-indent: -13px; font-variant-numeric: normal; font-variant-east-asian: normal; font-variant-alternates: normal; font-kerning: auto; font-optical-sizing: auto; font-feature-settings: normal; font-variation-settings: normal; font-variant-position: normal; font-stretch: normal; font-size: 14px; line-height: normal; color: rgb(14, 14, 14); text-align: start;&quot; class=&quot;p1&quot;&gt;&lt;br&gt;&lt;/p&gt;" style="rounded=1;whiteSpace=wrap;html=1;fillColor=#FF77BF;strokeColor=none;arcSize=33;" parent="kQWFD41fJFxlXKQhT5sF-1" vertex="1">
          <mxGeometry y="13" width="155" height="34" as="geometry" />
        </mxCell>
        <mxCell id="cKbgiC5qh_IXnBO1eU4K-165" value="&lt;font style=&quot;font-size: 18px;&quot;&gt;&lt;i&gt;React/HTML/CSS&lt;/i&gt;&lt;/font&gt;" style="text;html=1;align=center;verticalAlign=middle;whiteSpace=wrap;rounded=1;shadow=0;fontSize=23;fontStyle=1" parent="kQWFD41fJFxlXKQhT5sF-1" vertex="1">
          <mxGeometry x="29" width="89" height="49" as="geometry" />
        </mxCell>
        <mxCell id="cKbgiC5qh_IXnBO1eU4K-98" value="" style="rounded=0;whiteSpace=wrap;html=1;fillColor=#e1d5e7;strokeColor=#9673a6;movable=1;resizable=1;rotatable=1;deletable=1;editable=1;locked=0;connectable=1;" parent="1" vertex="1">
          <mxGeometry x="960" y="-600" width="3720" height="400" as="geometry" />
        </mxCell>
        <mxCell id="ISwjRsLXD4yoOcMXPSiY-10" value="" style="group" parent="1" vertex="1" connectable="0">
          <mxGeometry x="3720" y="-460" width="514" height="244" as="geometry" />
        </mxCell>
        <mxCell id="ISwjRsLXD4yoOcMXPSiY-8" value="" style="group" parent="ISwjRsLXD4yoOcMXPSiY-10" vertex="1" connectable="0">
          <mxGeometry x="-90" y="-90" width="535" height="220" as="geometry" />
        </mxCell>
        <mxCell id="Tz6aEU4ManMyac2rpAqn-102" value="" style="rounded=1;whiteSpace=wrap;html=1;arcSize=5;fillColor=#fff2cc;strokeColor=#d6b656;" parent="ISwjRsLXD4yoOcMXPSiY-8" vertex="1">
          <mxGeometry x="17" width="518" height="220" as="geometry" />
        </mxCell>
        <mxCell id="Tz6aEU4ManMyac2rpAqn-103" value="TurboPay" style="text;html=1;align=center;verticalAlign=middle;whiteSpace=wrap;rounded=1;shadow=0;fontSize=23;fontStyle=1" parent="ISwjRsLXD4yoOcMXPSiY-8" vertex="1">
          <mxGeometry width="177" height="49" as="geometry" />
        </mxCell>
        <mxCell id="ISwjRsLXD4yoOcMXPSiY-9" value="" style="group" parent="ISwjRsLXD4yoOcMXPSiY-10" vertex="1" connectable="0">
          <mxGeometry x="-30" y="-50" width="518" height="224" as="geometry" />
        </mxCell>
        <mxCell id="Tz6aEU4ManMyac2rpAqn-100" value="" style="rounded=1;whiteSpace=wrap;html=1;arcSize=5;fillColor=#fff2cc;strokeColor=#d6b656;" parent="ISwjRsLXD4yoOcMXPSiY-9" vertex="1">
          <mxGeometry width="518" height="224" as="geometry" />
        </mxCell>
        <mxCell id="Tz6aEU4ManMyac2rpAqn-101" value="FastMoney" style="text;html=1;align=center;verticalAlign=middle;whiteSpace=wrap;rounded=1;shadow=0;fontSize=23;fontStyle=1" parent="ISwjRsLXD4yoOcMXPSiY-9" vertex="1">
          <mxGeometry x="2" width="141" height="49" as="geometry" />
        </mxCell>
        <mxCell id="Tz6aEU4ManMyac2rpAqn-104" value="" style="rounded=1;whiteSpace=wrap;html=1;arcSize=5;fillColor=#fff2cc;strokeColor=#d6b656;" parent="ISwjRsLXD4yoOcMXPSiY-10" vertex="1">
          <mxGeometry width="514" height="244" as="geometry" />
        </mxCell>
        <mxCell id="Tz6aEU4ManMyac2rpAqn-105" value="Яндекс.Pay" style="text;html=1;align=center;verticalAlign=middle;whiteSpace=wrap;rounded=1;shadow=0;fontSize=23;fontStyle=1" parent="ISwjRsLXD4yoOcMXPSiY-10" vertex="1">
          <mxGeometry width="150" height="49" as="geometry" />
        </mxCell>
        <mxCell id="cKbgiC5qh_IXnBO1eU4K-146" value="" style="strokeWidth=2;html=1;shape=mxgraph.flowchart.database;whiteSpace=wrap;rounded=1;movable=1;resizable=1;rotatable=1;deletable=1;editable=1;locked=0;connectable=1;" parent="ISwjRsLXD4yoOcMXPSiY-10" vertex="1">
          <mxGeometry x="280" y="70" width="220" height="171" as="geometry" />
        </mxCell>
        <mxCell id="ISwjRsLXD4yoOcMXPSiY-4" value="" style="group" parent="ISwjRsLXD4yoOcMXPSiY-10" vertex="1" connectable="0">
          <mxGeometry x="10" y="190" width="260" height="39" as="geometry" />
        </mxCell>
        <mxCell id="cKbgiC5qh_IXnBO1eU4K-135" value="" style="rounded=1;whiteSpace=wrap;html=1;fillColor=#ffe6cc;strokeColor=#d79b00;" parent="ISwjRsLXD4yoOcMXPSiY-4" vertex="1">
          <mxGeometry x="10" width="250" height="39" as="geometry" />
        </mxCell>
        <mxCell id="cKbgiC5qh_IXnBO1eU4K-136" value="" style="sketch=0;outlineConnect=0;fontColor=#232F3E;gradientColor=none;fillColor=#232F3D;strokeColor=none;dashed=0;verticalLabelPosition=bottom;verticalAlign=top;align=center;html=1;fontSize=12;fontStyle=0;aspect=fixed;pointerEvents=1;shape=mxgraph.aws4.gear;rounded=1;" parent="ISwjRsLXD4yoOcMXPSiY-4" vertex="1">
          <mxGeometry x="230" y="11" width="17" height="17" as="geometry" />
        </mxCell>
        <mxCell id="cKbgiC5qh_IXnBO1eU4K-137" value="Подтвердить отмену платежа" style="text;html=1;align=center;verticalAlign=middle;whiteSpace=wrap;rounded=1;fontSize=13;" parent="ISwjRsLXD4yoOcMXPSiY-4" vertex="1">
          <mxGeometry y="4.5" width="210" height="30" as="geometry" />
        </mxCell>
        <mxCell id="cKbgiC5qh_IXnBO1eU4K-153" value="&lt;p style=&quot;margin: 0px 0px 0px 13px; text-indent: -13px; font-variant-numeric: normal; font-variant-east-asian: normal; font-variant-alternates: normal; font-kerning: auto; font-optical-sizing: auto; font-feature-settings: normal; font-variation-settings: normal; font-variant-position: normal; font-stretch: normal; font-size: 14px; line-height: normal; text-align: start;&quot; class=&quot;p1&quot;&gt;&lt;span style=&quot;font-size: 12px; text-align: center; text-indent: 0px;&quot;&gt;[Транзакция.ID]&lt;/span&gt;&lt;br&gt;&lt;/p&gt;" style="rounded=1;whiteSpace=wrap;html=1;fillColor=#B8B8B8;strokeColor=#FFD966;" parent="ISwjRsLXD4yoOcMXPSiY-10" vertex="1">
          <mxGeometry x="330" y="200" width="119" height="21" as="geometry" />
        </mxCell>
        <mxCell id="cKbgiC5qh_IXnBO1eU4K-152" value="&lt;p style=&quot;margin: 0px 0px 0px 13px; text-indent: -13px; font-variant-numeric: normal; font-variant-east-asian: normal; font-variant-alternates: normal; font-kerning: auto; font-optical-sizing: auto; font-feature-settings: normal; font-variation-settings: normal; font-variant-position: normal; font-stretch: normal; font-size: 14px; line-height: normal; text-align: start;&quot; class=&quot;p1&quot;&gt;&lt;span style=&quot;font-size: 12px; text-align: center; text-indent: 0px;&quot;&gt;[Транзакция.Статус]&lt;/span&gt;&lt;br&gt;&lt;/p&gt;" style="rounded=1;whiteSpace=wrap;html=1;fillColor=#B8B8B8;strokeColor=#FFD966;" parent="ISwjRsLXD4yoOcMXPSiY-10" vertex="1">
          <mxGeometry x="330" y="170" width="119" height="21" as="geometry" />
        </mxCell>
        <mxCell id="ISwjRsLXD4yoOcMXPSiY-3" value="" style="group" parent="ISwjRsLXD4yoOcMXPSiY-10" vertex="1" connectable="0">
          <mxGeometry x="20" y="140" width="250" height="39" as="geometry" />
        </mxCell>
        <mxCell id="cKbgiC5qh_IXnBO1eU4K-132" value="" style="rounded=1;whiteSpace=wrap;html=1;fillColor=#ffe6cc;strokeColor=#d79b00;" parent="ISwjRsLXD4yoOcMXPSiY-3" vertex="1">
          <mxGeometry width="250" height="39" as="geometry" />
        </mxCell>
        <mxCell id="cKbgiC5qh_IXnBO1eU4K-133" value="" style="sketch=0;outlineConnect=0;fontColor=#232F3E;gradientColor=none;fillColor=#232F3D;strokeColor=none;dashed=0;verticalLabelPosition=bottom;verticalAlign=top;align=center;html=1;fontSize=12;fontStyle=0;aspect=fixed;pointerEvents=1;shape=mxgraph.aws4.gear;rounded=1;" parent="ISwjRsLXD4yoOcMXPSiY-3" vertex="1">
          <mxGeometry x="220" y="11" width="17" height="17" as="geometry" />
        </mxCell>
        <mxCell id="cKbgiC5qh_IXnBO1eU4K-134" value="Предоставить статус платежа" style="text;html=1;align=center;verticalAlign=middle;whiteSpace=wrap;rounded=1;fontSize=13;" parent="ISwjRsLXD4yoOcMXPSiY-3" vertex="1">
          <mxGeometry y="4.5" width="200" height="30" as="geometry" />
        </mxCell>
        <mxCell id="ISwjRsLXD4yoOcMXPSiY-2" value="" style="group" parent="ISwjRsLXD4yoOcMXPSiY-10" vertex="1" connectable="0">
          <mxGeometry x="10" y="90" width="260" height="39" as="geometry" />
        </mxCell>
        <mxCell id="cKbgiC5qh_IXnBO1eU4K-129" value="" style="rounded=1;whiteSpace=wrap;html=1;fillColor=#ffe6cc;strokeColor=#d79b00;" parent="ISwjRsLXD4yoOcMXPSiY-2" vertex="1">
          <mxGeometry x="10" width="250" height="39" as="geometry" />
        </mxCell>
        <mxCell id="cKbgiC5qh_IXnBO1eU4K-130" value="" style="sketch=0;outlineConnect=0;fontColor=#232F3E;gradientColor=none;fillColor=#232F3D;strokeColor=none;dashed=0;verticalLabelPosition=bottom;verticalAlign=top;align=center;html=1;fontSize=12;fontStyle=0;aspect=fixed;pointerEvents=1;shape=mxgraph.aws4.gear;rounded=1;" parent="ISwjRsLXD4yoOcMXPSiY-2" vertex="1">
          <mxGeometry x="230" y="11" width="17" height="17" as="geometry" />
        </mxCell>
        <mxCell id="cKbgiC5qh_IXnBO1eU4K-131" value="Подтвердить платёж" style="text;html=1;align=center;verticalAlign=middle;whiteSpace=wrap;rounded=1;fontSize=13;" parent="ISwjRsLXD4yoOcMXPSiY-2" vertex="1">
          <mxGeometry y="4.5" width="170" height="30" as="geometry" />
        </mxCell>
        <mxCell id="ISwjRsLXD4yoOcMXPSiY-1" value="" style="group" parent="ISwjRsLXD4yoOcMXPSiY-10" vertex="1" connectable="0">
          <mxGeometry x="10" y="40" width="260" height="39" as="geometry" />
        </mxCell>
        <mxCell id="cKbgiC5qh_IXnBO1eU4K-172" value="" style="rounded=1;whiteSpace=wrap;html=1;fillColor=#ffe6cc;strokeColor=#d79b00;" parent="ISwjRsLXD4yoOcMXPSiY-1" vertex="1">
          <mxGeometry x="10" width="250" height="39" as="geometry" />
        </mxCell>
        <mxCell id="cKbgiC5qh_IXnBO1eU4K-173" value="" style="sketch=0;outlineConnect=0;fontColor=#232F3E;gradientColor=none;fillColor=#232F3D;strokeColor=none;dashed=0;verticalLabelPosition=bottom;verticalAlign=top;align=center;html=1;fontSize=12;fontStyle=0;aspect=fixed;pointerEvents=1;shape=mxgraph.aws4.gear;rounded=1;" parent="ISwjRsLXD4yoOcMXPSiY-1" vertex="1">
          <mxGeometry x="230" y="11" width="17" height="17" as="geometry" />
        </mxCell>
        <mxCell id="cKbgiC5qh_IXnBO1eU4K-174" value="Инициировать платёж" style="text;html=1;align=center;verticalAlign=middle;whiteSpace=wrap;rounded=1;fontSize=13;" parent="ISwjRsLXD4yoOcMXPSiY-1" vertex="1">
          <mxGeometry y="4.5" width="170" height="30" as="geometry" />
        </mxCell>
        <mxCell id="D1CTnjmkYU0Mq4A9S6dc-23" value="" style="rounded=1;whiteSpace=wrap;html=1;arcSize=0;container=1;" parent="1" vertex="1">
          <mxGeometry x="998" y="2370" width="1128" height="343" as="geometry" />
        </mxCell>
        <mxCell id="ISwjRsLXD4yoOcMXPSiY-13" value="" style="group" parent="D1CTnjmkYU0Mq4A9S6dc-23" vertex="1" connectable="0">
          <mxGeometry x="16" y="183" width="333" height="145" as="geometry" />
        </mxCell>
        <mxCell id="D1CTnjmkYU0Mq4A9S6dc-9" value="" style="rounded=1;whiteSpace=wrap;html=1;arcSize=5;fillColor=#fff2cc;strokeColor=#d6b656;" parent="ISwjRsLXD4yoOcMXPSiY-13" vertex="1">
          <mxGeometry width="333" height="145" as="geometry" />
        </mxCell>
        <mxCell id="D1CTnjmkYU0Mq4A9S6dc-10" value="&lt;span style=&quot;font-weight: normal;&quot;&gt;Внешний/Партнёрский сервис&lt;/span&gt;" style="text;html=1;align=center;verticalAlign=middle;whiteSpace=wrap;rounded=1;shadow=0;fontSize=23;fontStyle=1" parent="ISwjRsLXD4yoOcMXPSiY-13" vertex="1">
          <mxGeometry x="2" y="1" width="331" height="49" as="geometry" />
        </mxCell>
        <mxCell id="ISwjRsLXD4yoOcMXPSiY-14" value="" style="group" parent="D1CTnjmkYU0Mq4A9S6dc-23" vertex="1" connectable="0">
          <mxGeometry x="21" y="16" width="331" height="143" as="geometry" />
        </mxCell>
        <mxCell id="D1CTnjmkYU0Mq4A9S6dc-5" value="" style="rounded=1;whiteSpace=wrap;html=1;arcSize=5;fillColor=#f5f5f5;strokeColor=#1C57CD;strokeWidth=3;" parent="ISwjRsLXD4yoOcMXPSiY-14" vertex="1">
          <mxGeometry width="331" height="143" as="geometry" />
        </mxCell>
        <mxCell id="D1CTnjmkYU0Mq4A9S6dc-6" value="&lt;font style=&quot;font-size: 23px;&quot;&gt;Система/Сервис&lt;/font&gt;" style="text;html=1;align=center;verticalAlign=middle;whiteSpace=wrap;rounded=1;fontSize=13;" parent="ISwjRsLXD4yoOcMXPSiY-14" vertex="1">
          <mxGeometry x="1" y="6" width="206" height="30" as="geometry" />
        </mxCell>
        <mxCell id="D1CTnjmkYU0Mq4A9S6dc-16" value="&lt;p style=&quot;margin: 0px 0px 0px 13px; text-indent: -13px; font-variant-numeric: normal; font-variant-east-asian: normal; font-variant-alternates: normal; font-kerning: auto; font-optical-sizing: auto; font-feature-settings: normal; font-variation-settings: normal; font-variant-position: normal; font-stretch: normal; line-height: normal; text-align: start;&quot; class=&quot;p1&quot;&gt;&lt;span style=&quot;text-align: center; text-indent: 0px;&quot;&gt;&lt;font style=&quot;font-size: 14px;&quot; face=&quot;Times New Roman&quot;&gt;Объект даных внешних сервисов&lt;/font&gt;&lt;/span&gt;&lt;br&gt;&lt;/p&gt;" style="rounded=1;whiteSpace=wrap;html=1;fillColor=#B8B8B8;strokeColor=#FFD966;" parent="D1CTnjmkYU0Mq4A9S6dc-23" vertex="1">
          <mxGeometry x="369" y="293" width="204" height="21" as="geometry" />
        </mxCell>
        <mxCell id="D1CTnjmkYU0Mq4A9S6dc-4" value="&lt;p style=&quot;margin: 0px 0px 0px 13px; text-indent: -13px; font-variant-numeric: normal; font-variant-east-asian: normal; font-variant-alternates: normal; font-kerning: auto; font-optical-sizing: auto; font-feature-settings: normal; font-variation-settings: normal; font-variant-position: normal; font-stretch: normal; font-size: 14px; line-height: normal; color: rgb(14, 14, 14); text-align: start;&quot; class=&quot;p1&quot;&gt;&lt;font face=&quot;Times New Roman&quot;&gt;Объект данных&lt;/font&gt;&lt;/p&gt;" style="rounded=1;whiteSpace=wrap;html=1;fillColor=#b1ddf0;strokeColor=#10739e;" parent="D1CTnjmkYU0Mq4A9S6dc-23" vertex="1">
          <mxGeometry x="368" y="256" width="101" height="21" as="geometry" />
        </mxCell>
        <mxCell id="D1CTnjmkYU0Mq4A9S6dc-11" value="&lt;font style=&quot;font-size: 14px;&quot;&gt;СУБД&lt;/font&gt;" style="strokeWidth=2;html=1;shape=mxgraph.flowchart.database;whiteSpace=wrap;rounded=1;movable=1;resizable=1;rotatable=1;deletable=1;editable=1;locked=0;connectable=1;" parent="D1CTnjmkYU0Mq4A9S6dc-23" vertex="1">
          <mxGeometry x="383" y="137" width="137" height="87" as="geometry" />
        </mxCell>
        <mxCell id="ISwjRsLXD4yoOcMXPSiY-11" value="" style="group" parent="D1CTnjmkYU0Mq4A9S6dc-23" vertex="1" connectable="0">
          <mxGeometry x="378" y="39" width="270" height="39" as="geometry" />
        </mxCell>
        <mxCell id="D1CTnjmkYU0Mq4A9S6dc-1" value="" style="rounded=1;whiteSpace=wrap;html=1;strokeColor=none;fillColor=#1C57CD;" parent="ISwjRsLXD4yoOcMXPSiY-11" vertex="1">
          <mxGeometry width="270" height="39" as="geometry" />
        </mxCell>
        <mxCell id="D1CTnjmkYU0Mq4A9S6dc-2" value="" style="sketch=0;outlineConnect=0;fontColor=#FFFFFF;gradientColor=none;fillColor=#FFFFFF;strokeColor=none;dashed=0;verticalLabelPosition=bottom;verticalAlign=top;align=center;html=1;fontSize=12;fontStyle=0;aspect=fixed;pointerEvents=1;shape=mxgraph.aws4.gear;rounded=1;" parent="ISwjRsLXD4yoOcMXPSiY-11" vertex="1">
          <mxGeometry x="238" y="12" width="17" height="17" as="geometry" />
        </mxCell>
        <mxCell id="D1CTnjmkYU0Mq4A9S6dc-3" value="&lt;font style=&quot;font-size: 18px;&quot;&gt;Функция&lt;/font&gt;" style="text;html=1;align=center;verticalAlign=middle;whiteSpace=wrap;rounded=1;fontSize=13;fontColor=#FFFFFF;" parent="ISwjRsLXD4yoOcMXPSiY-11" vertex="1">
          <mxGeometry x="22" y="5" width="78" height="30" as="geometry" />
        </mxCell>
        <mxCell id="jEkXnfsxQ-_I6rloK0n_-9" value="&lt;span style=&quot;font-size: 18px;&quot;&gt;&lt;i&gt;Номер потока&lt;/i&gt;&lt;/span&gt;" style="text;html=1;align=center;verticalAlign=middle;whiteSpace=wrap;rounded=1;shadow=0;fontSize=23;fontStyle=0" parent="D1CTnjmkYU0Mq4A9S6dc-23" vertex="1">
          <mxGeometry x="691" y="269" width="161" height="49" as="geometry" />
        </mxCell>
        <mxCell id="jEkXnfsxQ-_I6rloK0n_-4" value="1" style="ellipse;whiteSpace=wrap;html=1;aspect=fixed;rounded=1;fillColor=#FF77BF;" parent="D1CTnjmkYU0Mq4A9S6dc-23" vertex="1">
          <mxGeometry x="680" y="281" width="23" height="23" as="geometry" />
        </mxCell>
        <mxCell id="D1CTnjmkYU0Mq4A9S6dc-20" value="" style="endArrow=classic;html=1;rounded=1;dashed=1;strokeWidth=2;" parent="D1CTnjmkYU0Mq4A9S6dc-23" edge="1">
          <mxGeometry width="50" height="50" relative="1" as="geometry">
            <mxPoint x="644" y="247" as="sourcePoint" />
            <mxPoint x="859" y="247" as="targetPoint" />
            <Array as="points" />
          </mxGeometry>
        </mxCell>
        <mxCell id="D1CTnjmkYU0Mq4A9S6dc-21" value="&lt;span style=&quot;font-size: 12px;&quot;&gt;Пользовательский поток&lt;/span&gt;" style="edgeLabel;html=1;align=center;verticalAlign=middle;resizable=0;points=[];rounded=1;" parent="D1CTnjmkYU0Mq4A9S6dc-23" vertex="1" connectable="0">
          <mxGeometry x="733.9951851851852" y="275" as="geometry">
            <mxPoint x="-2" y="-47" as="offset" />
          </mxGeometry>
        </mxCell>
        <mxCell id="D1CTnjmkYU0Mq4A9S6dc-19" value="&lt;font style=&quot;font-size: 12px;&quot;&gt;[Транзакция.Статус]&lt;/font&gt;" style="text;html=1;align=center;verticalAlign=middle;whiteSpace=wrap;rounded=1;fontSize=13;labelBackgroundColor=none;fontColor=#B8B8B8;" parent="D1CTnjmkYU0Mq4A9S6dc-23" vertex="1">
          <mxGeometry x="675" y="105" width="160" height="30" as="geometry" />
        </mxCell>
        <mxCell id="D1CTnjmkYU0Mq4A9S6dc-17" value="" style="endArrow=classic;html=1;rounded=1;curved=0;strokeWidth=2;" parent="D1CTnjmkYU0Mq4A9S6dc-23" edge="1">
          <mxGeometry width="50" height="50" relative="1" as="geometry">
            <mxPoint x="644" y="202" as="sourcePoint" />
            <mxPoint x="854" y="202" as="targetPoint" />
            <Array as="points">
              <mxPoint x="644" y="202" />
            </Array>
          </mxGeometry>
        </mxCell>
        <mxCell id="D1CTnjmkYU0Mq4A9S6dc-18" value="&lt;font style=&quot;font-size: 12px;&quot;&gt;Подтверждение отмены&amp;nbsp;&lt;/font&gt;&lt;div&gt;&lt;font style=&quot;font-size: 12px;&quot;&gt;платежа&lt;/font&gt;&lt;/div&gt;" style="edgeLabel;html=1;align=center;verticalAlign=middle;resizable=0;points=[];rounded=1;" parent="D1CTnjmkYU0Mq4A9S6dc-17" vertex="1" connectable="0">
          <mxGeometry x="0.1936" y="1" relative="1" as="geometry">
            <mxPoint x="-24" y="-39" as="offset" />
          </mxGeometry>
        </mxCell>
        <mxCell id="ISwjRsLXD4yoOcMXPSiY-12" value="" style="group" parent="D1CTnjmkYU0Mq4A9S6dc-23" vertex="1" connectable="0">
          <mxGeometry x="683" y="57" width="157" height="25" as="geometry" />
        </mxCell>
        <mxCell id="D1CTnjmkYU0Mq4A9S6dc-12" value="&lt;p style=&quot;margin: 0px 0px 0px 13px; text-indent: -13px; font-variant-numeric: normal; font-variant-east-asian: normal; font-variant-alternates: normal; font-kerning: auto; font-optical-sizing: auto; font-feature-settings: normal; font-variation-settings: normal; font-variant-position: normal; font-stretch: normal; font-size: 14px; line-height: normal; color: rgb(14, 14, 14); text-align: start;&quot; class=&quot;p1&quot;&gt;&lt;br&gt;&lt;/p&gt;" style="rounded=1;whiteSpace=wrap;html=1;fillColor=#FF77BF;strokeColor=none;arcSize=33;" parent="ISwjRsLXD4yoOcMXPSiY-12" vertex="1">
          <mxGeometry x="3" y="1" width="151" height="24" as="geometry" />
        </mxCell>
        <mxCell id="D1CTnjmkYU0Mq4A9S6dc-13" value="&lt;span style=&quot;font-size: 18px;&quot;&gt;&lt;i&gt;Стэк/Окружение&lt;/i&gt;&lt;/span&gt;" style="text;html=1;align=center;verticalAlign=middle;whiteSpace=wrap;rounded=1;shadow=0;fontSize=23;fontStyle=1" parent="ISwjRsLXD4yoOcMXPSiY-12" vertex="1">
          <mxGeometry width="157" height="17" as="geometry" />
        </mxCell>
        <mxCell id="D1CTnjmkYU0Mq4A9S6dc-14" value="Пользователь (Роль)" style="shape=umlActor;verticalLabelPosition=bottom;verticalAlign=top;html=1;outlineConnect=0;rounded=1;" parent="D1CTnjmkYU0Mq4A9S6dc-23" vertex="1">
          <mxGeometry x="977" y="87" width="65" height="141" as="geometry" />
        </mxCell>
        <mxCell id="aNh6FEuhw9lsT8rE3H5J-121" value="Система управления торговыми площадками" style="text;html=1;align=center;verticalAlign=middle;whiteSpace=wrap;rounded=1;shadow=0;fontSize=23;fontStyle=1" parent="1" vertex="1">
          <mxGeometry x="1380" y="630" width="549" height="49" as="geometry" />
        </mxCell>
        <mxCell id="aNh6FEuhw9lsT8rE3H5J-60" value="" style="strokeWidth=2;html=1;shape=mxgraph.flowchart.database;whiteSpace=wrap;rounded=1;movable=1;resizable=1;rotatable=1;deletable=1;editable=1;locked=0;connectable=1;" parent="1" vertex="1">
          <mxGeometry x="1379" y="1384" width="276" height="370" as="geometry" />
        </mxCell>
        <mxCell id="Tz6aEU4ManMyac2rpAqn-7" value="&lt;p style=&quot;margin: 0px 0px 0px 13px; text-indent: -13px; font-variant-numeric: normal; font-variant-east-asian: normal; font-variant-alternates: normal; font-kerning: auto; font-optical-sizing: auto; font-feature-settings: normal; font-variation-settings: normal; font-variant-position: normal; font-stretch: normal; font-size: 14px; line-height: normal; color: rgb(14, 14, 14); text-align: start;&quot; class=&quot;p1&quot;&gt;&lt;font face=&quot;Times New Roman&quot;&gt;Заявка на аукцион.ID&lt;/font&gt;&lt;/p&gt;" style="rounded=1;whiteSpace=wrap;html=1;fillColor=#b1ddf0;strokeColor=#10739e;" parent="1" vertex="1">
          <mxGeometry x="1810" y="1642" width="151" height="21" as="geometry" />
        </mxCell>
        <mxCell id="cKbgiC5qh_IXnBO1eU4K-45" value="&lt;p style=&quot;margin: 0px 0px 0px 13px; text-indent: -13px; font-variant-numeric: normal; font-variant-east-asian: normal; font-variant-alternates: normal; font-kerning: auto; font-optical-sizing: auto; font-feature-settings: normal; font-variation-settings: normal; font-variant-position: normal; font-stretch: normal; line-height: normal; color: rgb(14, 14, 14); text-align: start;&quot; class=&quot;p1&quot;&gt;&lt;font style=&quot;font-size: 14px;&quot; face=&quot;Times New Roman&quot;&gt;Заявка на регистрацию&lt;/font&gt;&lt;/p&gt;" style="rounded=1;whiteSpace=wrap;html=1;fillColor=#b1ddf0;strokeColor=#10739e;" parent="1" vertex="1">
          <mxGeometry x="1810" y="1523" width="150" height="21" as="geometry" />
        </mxCell>
        <mxCell id="cKbgiC5qh_IXnBO1eU4K-49" value="&lt;p style=&quot;margin: 0px 0px 0px 13px; text-indent: -13px; font-variant-numeric: normal; font-variant-east-asian: normal; font-variant-alternates: normal; font-kerning: auto; font-optical-sizing: auto; font-feature-settings: normal; font-variation-settings: normal; font-variant-position: normal; font-stretch: normal; font-size: 14px; line-height: normal; color: rgb(14, 14, 14); text-align: start;&quot; class=&quot;p1&quot;&gt;&lt;font face=&quot;Times New Roman&quot;&gt;Пользователь.Роль&lt;/font&gt;&lt;/p&gt;" style="rounded=1;whiteSpace=wrap;html=1;fillColor=#b1ddf0;strokeColor=#10739e;" parent="1" vertex="1">
          <mxGeometry x="1427" y="1712" width="151" height="21" as="geometry" />
        </mxCell>
        <mxCell id="cKbgiC5qh_IXnBO1eU4K-50" value="&lt;p style=&quot;margin: 0px 0px 0px 13px; text-indent: -13px; font-variant-numeric: normal; font-variant-east-asian: normal; font-variant-alternates: normal; font-kerning: auto; font-optical-sizing: auto; font-feature-settings: normal; font-variation-settings: normal; font-variant-position: normal; font-stretch: normal; font-size: 14px; line-height: normal; color: rgb(14, 14, 14); text-align: start;&quot; class=&quot;p1&quot;&gt;&lt;font face=&quot;Times New Roman&quot;&gt;Пользователь.ID&lt;/font&gt;&lt;/p&gt;" style="rounded=1;whiteSpace=wrap;html=1;fillColor=#b1ddf0;strokeColor=#10739e;" parent="1" vertex="1">
          <mxGeometry x="1425" y="1480" width="151" height="21" as="geometry" />
        </mxCell>
        <mxCell id="cKbgiC5qh_IXnBO1eU4K-56" value="&lt;p style=&quot;margin: 0px 0px 0px 13px; text-indent: -13px; font-variant-numeric: normal; font-variant-east-asian: normal; font-variant-alternates: normal; font-kerning: auto; font-optical-sizing: auto; font-feature-settings: normal; font-variation-settings: normal; font-variant-position: normal; font-stretch: normal; font-size: 14px; line-height: normal; color: rgb(14, 14, 14); text-align: start;&quot; class=&quot;p1&quot;&gt;&lt;font face=&quot;Times New Roman&quot;&gt;Пользователь.Имя&lt;/font&gt;&lt;/p&gt;" style="rounded=1;whiteSpace=wrap;html=1;fillColor=#b1ddf0;strokeColor=#10739e;" parent="1" vertex="1">
          <mxGeometry x="1425" y="1581" width="119" height="21" as="geometry" />
        </mxCell>
        <mxCell id="cKbgiC5qh_IXnBO1eU4K-57" value="&lt;p style=&quot;margin: 0px 0px 0px 13px; text-indent: -13px; font-variant-numeric: normal; font-variant-east-asian: normal; font-variant-alternates: normal; font-kerning: auto; font-optical-sizing: auto; font-feature-settings: normal; font-variation-settings: normal; font-variant-position: normal; font-stretch: normal; font-size: 14px; line-height: normal; color: rgb(14, 14, 14); text-align: start;&quot; class=&quot;p1&quot;&gt;&lt;font face=&quot;Times New Roman&quot;&gt;Пользователь.Фамилия&lt;/font&gt;&lt;/p&gt;" style="rounded=1;whiteSpace=wrap;html=1;fillColor=#b1ddf0;strokeColor=#10739e;" parent="1" vertex="1">
          <mxGeometry x="1425" y="1606" width="151" height="21" as="geometry" />
        </mxCell>
        <mxCell id="cKbgiC5qh_IXnBO1eU4K-60" value="&lt;p style=&quot;margin: 0px 0px 0px 13px; text-indent: -13px; font-variant-numeric: normal; font-variant-east-asian: normal; font-variant-alternates: normal; font-kerning: auto; font-optical-sizing: auto; font-feature-settings: normal; font-variation-settings: normal; font-variant-position: normal; font-stretch: normal; font-size: 14px; line-height: normal; color: rgb(14, 14, 14); text-align: start;&quot; class=&quot;p1&quot;&gt;&lt;font face=&quot;Times New Roman&quot;&gt;Пользователь.Адрес&lt;/font&gt;&lt;/p&gt;" style="rounded=1;whiteSpace=wrap;html=1;fillColor=#b1ddf0;strokeColor=#10739e;" parent="1" vertex="1">
          <mxGeometry x="1424" y="1530" width="130" height="21" as="geometry" />
        </mxCell>
        <mxCell id="cKbgiC5qh_IXnBO1eU4K-68" value="&lt;p style=&quot;margin: 0px 0px 0px 13px; text-indent: -13px; font-variant-numeric: normal; font-variant-east-asian: normal; font-variant-alternates: normal; font-kerning: auto; font-optical-sizing: auto; font-feature-settings: normal; font-variation-settings: normal; font-variant-position: normal; font-stretch: normal; font-size: 14px; line-height: normal; color: rgb(14, 14, 14); text-align: start;&quot; class=&quot;p1&quot;&gt;&lt;font face=&quot;Times New Roman&quot;&gt;Пользователь.Дата регистрации&lt;/font&gt;&lt;/p&gt;" style="rounded=1;whiteSpace=wrap;html=1;fillColor=#b1ddf0;strokeColor=#10739e;" parent="1" vertex="1">
          <mxGeometry x="1425" y="1659" width="199" height="21" as="geometry" />
        </mxCell>
        <mxCell id="cKbgiC5qh_IXnBO1eU4K-69" value="&lt;p style=&quot;margin: 0px 0px 0px 13px; text-indent: -13px; font-variant-numeric: normal; font-variant-east-asian: normal; font-variant-alternates: normal; font-kerning: auto; font-optical-sizing: auto; font-feature-settings: normal; font-variation-settings: normal; font-variant-position: normal; font-stretch: normal; font-size: 14px; line-height: normal; color: rgb(14, 14, 14); text-align: start;&quot; class=&quot;p1&quot;&gt;&lt;font face=&quot;Times New Roman&quot;&gt;Пользователь.Статус&lt;/font&gt;&lt;/p&gt;" style="rounded=1;whiteSpace=wrap;html=1;fillColor=#b1ddf0;strokeColor=#10739e;" parent="1" vertex="1">
          <mxGeometry x="1425" y="1633" width="136" height="21" as="geometry" />
        </mxCell>
        <mxCell id="cKbgiC5qh_IXnBO1eU4K-70" value="&lt;p style=&quot;margin: 0px 0px 0px 13px; text-indent: -13px; font-variant-numeric: normal; font-variant-east-asian: normal; font-variant-alternates: normal; font-kerning: auto; font-optical-sizing: auto; font-feature-settings: normal; font-variation-settings: normal; font-variant-position: normal; font-stretch: normal; font-size: 14px; line-height: normal; color: rgb(14, 14, 14); text-align: start;&quot; class=&quot;p1&quot;&gt;&lt;font face=&quot;Times New Roman&quot;&gt;Пользователь.Электронная почта&lt;/font&gt;&lt;/p&gt;" style="rounded=1;whiteSpace=wrap;html=1;fillColor=#b1ddf0;strokeColor=#10739e;" parent="1" vertex="1">
          <mxGeometry x="1425" y="1505" width="209" height="21" as="geometry" />
        </mxCell>
        <mxCell id="cKbgiC5qh_IXnBO1eU4K-71" value="&lt;p style=&quot;margin: 0px 0px 0px 13px; text-indent: -13px; font-variant-numeric: normal; font-variant-east-asian: normal; font-variant-alternates: normal; font-kerning: auto; font-optical-sizing: auto; font-feature-settings: normal; font-variation-settings: normal; font-variant-position: normal; font-stretch: normal; font-size: 14px; line-height: normal; color: rgb(14, 14, 14); text-align: start;&quot; class=&quot;p1&quot;&gt;&lt;font face=&quot;Times New Roman&quot;&gt;Пользователь.Номер телефона&lt;/font&gt;&lt;/p&gt;" style="rounded=1;whiteSpace=wrap;html=1;fillColor=#b1ddf0;strokeColor=#10739e;" parent="1" vertex="1">
          <mxGeometry x="1426" y="1686" width="190" height="21" as="geometry" />
        </mxCell>
        <mxCell id="cKbgiC5qh_IXnBO1eU4K-77" value="&lt;p style=&quot;margin: 0px 0px 0px 13px; text-indent: -13px; font-variant-numeric: normal; font-variant-east-asian: normal; font-variant-alternates: normal; font-kerning: auto; font-optical-sizing: auto; font-feature-settings: normal; font-variation-settings: normal; font-variant-position: normal; font-stretch: normal; font-size: 14px; line-height: normal; color: rgb(14, 14, 14); text-align: start;&quot; class=&quot;p1&quot;&gt;&lt;font face=&quot;Times New Roman&quot;&gt;Пользователь.Активен&lt;/font&gt;&lt;/p&gt;" style="rounded=1;whiteSpace=wrap;html=1;fillColor=#b1ddf0;strokeColor=#10739e;" parent="1" vertex="1">
          <mxGeometry x="1425" y="1556" width="147" height="21" as="geometry" />
        </mxCell>
        <mxCell id="cKbgiC5qh_IXnBO1eU4K-84" value="&lt;p style=&quot;margin: 0px 0px 0px 13px; text-indent: -13px; font-variant-numeric: normal; font-variant-east-asian: normal; font-variant-alternates: normal; font-kerning: auto; font-optical-sizing: auto; font-feature-settings: normal; font-variation-settings: normal; font-variant-position: normal; font-stretch: normal; font-size: 14px; line-height: normal; color: rgb(14, 14, 14); text-align: start;&quot; class=&quot;p1&quot;&gt;&lt;font face=&quot;Times New Roman&quot;&gt;Услуга.ID&lt;/font&gt;&lt;/p&gt;" style="rounded=1;whiteSpace=wrap;html=1;fillColor=#b1ddf0;strokeColor=#10739e;" parent="1" vertex="1">
          <mxGeometry x="2204" y="1628" width="87" height="21" as="geometry" />
        </mxCell>
        <mxCell id="cKbgiC5qh_IXnBO1eU4K-95" value="Администратор" style="shape=umlActor;verticalLabelPosition=bottom;verticalAlign=top;html=1;outlineConnect=0;rounded=1;" parent="1" vertex="1">
          <mxGeometry x="1000" y="380" width="65" height="141" as="geometry" />
        </mxCell>
        <mxCell id="cKbgiC5qh_IXnBO1eU4K-96" value="" style="endArrow=classic;html=1;rounded=1;dashed=1;entryX=0.961;entryY=0.023;entryDx=0;entryDy=0;entryPerimeter=0;" parent="1" source="cKbgiC5qh_IXnBO1eU4K-95" target="cKbgiC5qh_IXnBO1eU4K-154" edge="1">
          <mxGeometry width="50" height="50" relative="1" as="geometry">
            <mxPoint x="1166" y="544" as="sourcePoint" />
            <mxPoint x="1162" y="979" as="targetPoint" />
            <Array as="points" />
          </mxGeometry>
        </mxCell>
        <mxCell id="cKbgiC5qh_IXnBO1eU4K-100" value="WAN" style="text;html=1;align=center;verticalAlign=middle;whiteSpace=wrap;rounded=1;shadow=0;fontSize=23;fontStyle=1" parent="1" vertex="1">
          <mxGeometry x="960" y="-600" width="85" height="49" as="geometry" />
        </mxCell>
        <mxCell id="cKbgiC5qh_IXnBO1eU4K-101" value="LAN" style="text;html=1;align=center;verticalAlign=middle;whiteSpace=wrap;rounded=1;shadow=0;fontSize=23;fontStyle=1" parent="1" vertex="1">
          <mxGeometry x="960" y="-200" width="85" height="49" as="geometry" />
        </mxCell>
        <mxCell id="cKbgiC5qh_IXnBO1eU4K-103" value="" style="endArrow=classic;html=1;rounded=1;curved=0;entryX=0.53;entryY=-0.002;entryDx=0;entryDy=0;entryPerimeter=0;exitX=0.5;exitY=1;exitDx=0;exitDy=0;" parent="1" edge="1" target="qWpF3jZFovPxBTXFjTdf-26" source="Tz6aEU4ManMyac2rpAqn-104">
          <mxGeometry width="50" height="50" relative="1" as="geometry">
            <mxPoint x="3120" y="-210" as="sourcePoint" />
            <mxPoint x="2736.451" y="280.1619999999998" as="targetPoint" />
            <Array as="points">
              <mxPoint x="4000" y="300" />
            </Array>
          </mxGeometry>
        </mxCell>
        <mxCell id="cKbgiC5qh_IXnBO1eU4K-104" value="&lt;p style=&quot;margin: 0px 0px 0px 21px; text-indent: -21px; font-variant-numeric: normal; font-variant-east-asian: normal; font-variant-alternates: normal; font-kerning: auto; font-optical-sizing: auto; font-feature-settings: normal; font-variation-settings: normal; font-variant-position: normal; font-stretch: normal; line-height: normal; color: rgb(14, 14, 14); text-align: start; text-wrap: wrap;&quot; class=&quot;p1&quot;&gt;&lt;font style=&quot;font-size: 12px;&quot; face=&quot;Helvetica&quot;&gt;Подтверждение платежа&lt;/font&gt;&lt;/p&gt;" style="edgeLabel;html=1;align=center;verticalAlign=middle;resizable=0;points=[];rounded=1;" parent="cKbgiC5qh_IXnBO1eU4K-103" vertex="1" connectable="0">
          <mxGeometry x="0.1936" y="1" relative="1" as="geometry">
            <mxPoint x="-9" y="-78" as="offset" />
          </mxGeometry>
        </mxCell>
        <mxCell id="cKbgiC5qh_IXnBO1eU4K-105" value="" style="endArrow=classic;html=1;rounded=1;exitX=0.633;exitY=-0.007;exitDx=0;exitDy=0;exitPerimeter=0;curved=0;entryX=0.68;entryY=1.001;entryDx=0;entryDy=0;entryPerimeter=0;" parent="1" target="Tz6aEU4ManMyac2rpAqn-104" edge="1" source="cKbgiC5qh_IXnBO1eU4K-139">
          <mxGeometry width="50" height="50" relative="1" as="geometry">
            <mxPoint x="2736.451" y="359.5750000000003" as="sourcePoint" />
            <mxPoint x="3200" y="-20" as="targetPoint" />
            <Array as="points" />
          </mxGeometry>
        </mxCell>
        <mxCell id="cKbgiC5qh_IXnBO1eU4K-106" value="&lt;font style=&quot;font-size: 12px;&quot;&gt;Предоставить статус платежа&lt;/font&gt;" style="edgeLabel;html=1;align=center;verticalAlign=middle;resizable=0;points=[];rounded=1;" parent="cKbgiC5qh_IXnBO1eU4K-105" vertex="1" connectable="0">
          <mxGeometry x="0.1936" y="1" relative="1" as="geometry">
            <mxPoint x="109" y="232" as="offset" />
          </mxGeometry>
        </mxCell>
        <mxCell id="cKbgiC5qh_IXnBO1eU4K-107" value="" style="endArrow=classic;html=1;rounded=1;curved=0;entryX=0.875;entryY=-0.007;entryDx=0;entryDy=0;entryPerimeter=0;exitX=0.87;exitY=0.992;exitDx=0;exitDy=0;exitPerimeter=0;" parent="1" edge="1" target="qWpF3jZFovPxBTXFjTdf-26" source="cKbgiC5qh_IXnBO1eU4K-143">
          <mxGeometry width="50" height="50" relative="1" as="geometry">
            <mxPoint x="3360" y="-210" as="sourcePoint" />
            <mxPoint x="2735" y="519.172" as="targetPoint" />
            <Array as="points">
              <mxPoint x="4177" y="86" />
            </Array>
          </mxGeometry>
        </mxCell>
        <mxCell id="cKbgiC5qh_IXnBO1eU4K-108" value="&lt;font style=&quot;font-size: 12px;&quot;&gt;Подтверждение отмены&amp;nbsp;&lt;/font&gt;&lt;div&gt;&lt;font style=&quot;font-size: 12px;&quot;&gt;платежа&lt;/font&gt;&lt;/div&gt;" style="edgeLabel;html=1;align=center;verticalAlign=middle;resizable=0;points=[];rounded=1;" parent="cKbgiC5qh_IXnBO1eU4K-107" vertex="1" connectable="0">
          <mxGeometry x="0.1936" y="1" relative="1" as="geometry">
            <mxPoint x="-104" y="-194" as="offset" />
          </mxGeometry>
        </mxCell>
        <mxCell id="cKbgiC5qh_IXnBO1eU4K-109" value="" style="endArrow=classic;html=1;rounded=1;exitX=0;exitY=0;exitDx=0;exitDy=0;curved=0;entryX=0.214;entryY=1.007;entryDx=0;entryDy=0;entryPerimeter=0;" parent="1" target="Tz6aEU4ManMyac2rpAqn-104" edge="1" source="aNh6FEuhw9lsT8rE3H5J-66">
          <mxGeometry width="50" height="50" relative="1" as="geometry">
            <mxPoint x="2735" y="199.20700000000033" as="sourcePoint" />
            <mxPoint x="2955" y="-179" as="targetPoint" />
            <Array as="points">
              <mxPoint x="3950" y="420" />
            </Array>
          </mxGeometry>
        </mxCell>
        <mxCell id="cKbgiC5qh_IXnBO1eU4K-110" value="&lt;span style=&quot;text-wrap: wrap;&quot;&gt;&lt;font style=&quot;font-size: 12px;&quot;&gt;Инициировать платёж&lt;/font&gt;&lt;/span&gt;" style="edgeLabel;html=1;align=center;verticalAlign=middle;resizable=0;points=[];rounded=1;" parent="cKbgiC5qh_IXnBO1eU4K-109" vertex="1" connectable="0">
          <mxGeometry x="0.1936" y="1" relative="1" as="geometry">
            <mxPoint x="-20" y="-96" as="offset" />
          </mxGeometry>
        </mxCell>
        <mxCell id="cKbgiC5qh_IXnBO1eU4K-114" value="&lt;font style=&quot;font-size: 12px;&quot;&gt;[Транзакция.ID]&lt;/font&gt;" style="text;html=1;align=center;verticalAlign=middle;whiteSpace=wrap;rounded=1;fontSize=13;labelBackgroundColor=none;fontColor=#B8B8B8;" parent="1" vertex="1">
          <mxGeometry x="4170" y="190" width="100" height="30" as="geometry" />
        </mxCell>
        <mxCell id="cKbgiC5qh_IXnBO1eU4K-120" value="&lt;font style=&quot;font-size: 12px;&quot;&gt;[Транзакция.Статус]&lt;/font&gt;" style="text;html=1;align=center;verticalAlign=middle;whiteSpace=wrap;rounded=1;fontSize=13;labelBackgroundColor=none;fontColor=#B8B8B8;" parent="1" vertex="1">
          <mxGeometry x="4010" y="280" width="160" height="30" as="geometry" />
        </mxCell>
        <mxCell id="cKbgiC5qh_IXnBO1eU4K-121" value="&lt;font style=&quot;font-size: 12px;&quot;&gt;[Пользователь.ID]&lt;/font&gt;" style="text;html=1;align=center;verticalAlign=middle;whiteSpace=wrap;rounded=1;fontSize=13;labelBackgroundColor=none;fontColor=#007575;" parent="1" vertex="1">
          <mxGeometry x="3810" y="130" width="160" height="30" as="geometry" />
        </mxCell>
        <mxCell id="cKbgiC5qh_IXnBO1eU4K-122" value="&lt;font style=&quot;font-size: 12px;&quot;&gt;[Заказ.ID]&lt;/font&gt;" style="text;html=1;align=center;verticalAlign=middle;whiteSpace=wrap;rounded=1;fontSize=13;labelBackgroundColor=none;fontColor=#007575;" parent="1" vertex="1">
          <mxGeometry x="3790" y="150" width="160" height="30" as="geometry" />
        </mxCell>
        <mxCell id="cKbgiC5qh_IXnBO1eU4K-123" value="&lt;font style=&quot;font-size: 12px;&quot;&gt;[Заказ.Сумма]&lt;/font&gt;" style="text;html=1;align=center;verticalAlign=middle;whiteSpace=wrap;rounded=1;fontSize=13;labelBackgroundColor=none;fontColor=#007575;" parent="1" vertex="1">
          <mxGeometry x="3800" y="170" width="160" height="30" as="geometry" />
        </mxCell>
        <mxCell id="cKbgiC5qh_IXnBO1eU4K-124" value="&lt;font style=&quot;font-size: 12px;&quot;&gt;[Транзакция.ID]&lt;/font&gt;" style="text;html=1;align=center;verticalAlign=middle;whiteSpace=wrap;rounded=1;fontSize=13;labelBackgroundColor=none;fontColor=#B8B8B8;" parent="1" vertex="1">
          <mxGeometry x="4030" y="260" width="100" height="30" as="geometry" />
        </mxCell>
        <mxCell id="cKbgiC5qh_IXnBO1eU4K-127" value="&lt;font style=&quot;font-size: 12px;&quot;&gt;[Транзакция.ID]&lt;/font&gt;" style="text;html=1;align=center;verticalAlign=middle;whiteSpace=wrap;rounded=1;fontSize=13;labelBackgroundColor=none;fontColor=#B8B8B8;" parent="1" vertex="1">
          <mxGeometry x="3970" y="380" width="100" height="30" as="geometry" />
        </mxCell>
        <mxCell id="cKbgiC5qh_IXnBO1eU4K-128" value="&lt;font style=&quot;font-size: 12px;&quot;&gt;[Транзакция.Статус]&lt;/font&gt;" style="text;html=1;align=center;verticalAlign=middle;whiteSpace=wrap;rounded=1;fontSize=13;labelBackgroundColor=none;fontColor=#B8B8B8;" parent="1" vertex="1">
          <mxGeometry x="4150" y="210" width="160" height="30" as="geometry" />
        </mxCell>
        <mxCell id="aNh6FEuhw9lsT8rE3H5J-66" value="1" style="ellipse;whiteSpace=wrap;html=1;aspect=fixed;rounded=1;fillColor=#FF77BF;" parent="1" vertex="1">
          <mxGeometry x="4020" y="850" width="23" height="23" as="geometry" />
        </mxCell>
        <mxCell id="cKbgiC5qh_IXnBO1eU4K-138" value="2" style="ellipse;whiteSpace=wrap;html=1;aspect=fixed;rounded=1;fillColor=#FF77BF;" parent="1" vertex="1">
          <mxGeometry x="3960" y="-220" width="23" height="23" as="geometry" />
        </mxCell>
        <mxCell id="cKbgiC5qh_IXnBO1eU4K-154" value="Редактировать аукцион&lt;div&gt;Валидировать заявку&lt;/div&gt;" style="text;html=1;align=center;verticalAlign=middle;whiteSpace=wrap;rounded=1;fontSize=13;" parent="1" vertex="1">
          <mxGeometry x="1050" y="450" width="230" height="30" as="geometry" />
        </mxCell>
        <mxCell id="cKbgiC5qh_IXnBO1eU4K-157" value="Специалист поддержки" style="shape=umlActor;verticalLabelPosition=bottom;verticalAlign=top;html=1;outlineConnect=0;rounded=1;" parent="1" vertex="1">
          <mxGeometry x="1000" y="610" width="65" height="141" as="geometry" />
        </mxCell>
        <mxCell id="cKbgiC5qh_IXnBO1eU4K-160" value="" style="endArrow=classic;html=1;rounded=1;dashed=1;" parent="1" edge="1">
          <mxGeometry width="50" height="50" relative="1" as="geometry">
            <mxPoint x="1070" y="670.4343434343436" as="sourcePoint" />
            <mxPoint x="1285" y="670" as="targetPoint" />
            <Array as="points" />
          </mxGeometry>
        </mxCell>
        <mxCell id="cKbgiC5qh_IXnBO1eU4K-162" value="&lt;div&gt;Изменить статус заявки&lt;/div&gt;&lt;div&gt;на поддержку&lt;/div&gt;" style="text;html=1;align=center;verticalAlign=middle;whiteSpace=wrap;rounded=1;fontSize=13;" parent="1" vertex="1">
          <mxGeometry x="1050" y="670" width="243" height="30" as="geometry" />
        </mxCell>
        <mxCell id="cKbgiC5qh_IXnBO1eU4K-164" value="Портал электронной площадки" style="text;html=1;align=center;verticalAlign=middle;whiteSpace=wrap;rounded=1;shadow=0;fontSize=23;fontStyle=1" parent="1" vertex="1">
          <mxGeometry x="1350" y="150" width="380" height="49" as="geometry" />
        </mxCell>
        <mxCell id="Tz6aEU4ManMyac2rpAqn-4" value="Клиент" style="shape=umlActor;verticalLabelPosition=bottom;verticalAlign=top;html=1;outlineConnect=0;rounded=1;" parent="1" vertex="1">
          <mxGeometry x="1953" y="-467" width="65" height="141" as="geometry" />
        </mxCell>
        <mxCell id="Tz6aEU4ManMyac2rpAqn-10" value="" style="endArrow=classic;html=1;rounded=1;dashed=1;entryX=0.727;entryY=0.031;entryDx=0;entryDy=0;entryPerimeter=0;fontSize=12;" parent="1" source="Tz6aEU4ManMyac2rpAqn-4" edge="1">
          <mxGeometry width="50" height="50" relative="1" as="geometry">
            <mxPoint x="1985" y="-420" as="sourcePoint" />
            <mxPoint x="1986.2600000000002" y="-156.48099999999977" as="targetPoint" />
            <Array as="points" />
          </mxGeometry>
        </mxCell>
        <mxCell id="d3r_7VUgfL_-Ddzbqp2A-3" value="&lt;h1 style=&quot;margin-top: 0px; font-size: 15px;&quot;&gt;&lt;p class=&quot;p1&quot; style=&quot;margin: 0px 0px 0px 21px; text-indent: -21px; font-variant-numeric: normal; font-variant-east-asian: normal; font-variant-alternates: normal; font-kerning: auto; font-optical-sizing: auto; font-feature-settings: normal; font-variation-settings: normal; font-variant-position: normal; font-stretch: normal; font-size: 15px; line-height: normal; color: rgb(14, 14, 14);&quot;&gt;Общее описание&amp;nbsp;&lt;/p&gt;&lt;p class=&quot;p1&quot; style=&quot;margin: 0px 0px 0px 21px; text-indent: -21px; font-variant-numeric: normal; font-variant-east-asian: normal; font-variant-alternates: normal; font-kerning: auto; font-optical-sizing: auto; font-feature-settings: normal; font-variation-settings: normal; font-variant-position: normal; font-stretch: normal; font-size: 15px; line-height: normal; color: rgb(14, 14, 14);&quot;&gt;&lt;br&gt;&lt;/p&gt;&lt;p class=&quot;p1&quot; style=&quot;margin: 0px 0px 0px 21px; text-indent: -21px; font-variant-numeric: normal; font-variant-east-asian: normal; font-variant-alternates: normal; font-kerning: auto; font-optical-sizing: auto; font-feature-settings: normal; font-variation-settings: normal; font-variant-position: normal; font-stretch: normal; font-size: 15px; line-height: normal; color: rgb(14, 14, 14);&quot;&gt;Систему решили разбить на множество микросервисов и использовать архитектуру EventSourcing&lt;/p&gt;&lt;p class=&quot;p1&quot; style=&quot;margin: 0px 0px 0px 21px; text-indent: -21px; font-variant-numeric: normal; font-variant-east-asian: normal; font-variant-alternates: normal; font-kerning: auto; font-optical-sizing: auto; font-feature-settings: normal; font-variation-settings: normal; font-variant-position: normal; font-stretch: normal; font-size: 15px; line-height: normal; color: rgb(14, 14, 14);&quot;&gt;&lt;br&gt;&lt;/p&gt;&lt;p class=&quot;p1&quot; style=&quot;margin: 0px 0px 0px 21px; text-indent: -21px; font-variant-numeric: normal; font-variant-east-asian: normal; font-variant-alternates: normal; font-kerning: auto; font-optical-sizing: auto; font-feature-settings: normal; font-variation-settings: normal; font-variant-position: normal; font-stretch: normal; font-size: 15px; line-height: normal; color: rgb(14, 14, 14);&quot;&gt;Основным сервисом тут является EventStore service который сохраняет все события произошедшие в системе EventBus&lt;/p&gt;&lt;p class=&quot;p1&quot; style=&quot;margin: 0px 0px 0px 21px; text-indent: -21px; font-variant-numeric: normal; font-variant-east-asian: normal; font-variant-alternates: normal; font-kerning: auto; font-optical-sizing: auto; font-feature-settings: normal; font-variation-settings: normal; font-variant-position: normal; font-stretch: normal; font-size: 15px; line-height: normal; color: rgb(14, 14, 14);&quot;&gt;&lt;br&gt;&lt;/p&gt;&lt;p class=&quot;p1&quot; style=&quot;margin: 0px 0px 0px 21px; text-indent: -21px; font-variant-numeric: normal; font-variant-east-asian: normal; font-variant-alternates: normal; font-kerning: auto; font-optical-sizing: auto; font-feature-settings: normal; font-variation-settings: normal; font-variant-position: normal; font-stretch: normal; font-size: 15px; line-height: normal; color: rgb(14, 14, 14);&quot;&gt;Каждый сервис представляет из себя проекцию исторических данных из EventStore&lt;/p&gt;&lt;p class=&quot;p1&quot; style=&quot;margin: 0px 0px 0px 21px; text-indent: -21px; font-variant-numeric: normal; font-variant-east-asian: normal; font-variant-alternates: normal; font-kerning: auto; font-optical-sizing: auto; font-feature-settings: normal; font-variation-settings: normal; font-variant-position: normal; font-stretch: normal; font-size: 15px; line-height: normal; color: rgb(14, 14, 14);&quot;&gt;&lt;br&gt;&lt;/p&gt;&lt;p class=&quot;p1&quot; style=&quot;margin: 0px 0px 0px 21px; text-indent: -21px; font-variant-numeric: normal; font-variant-east-asian: normal; font-variant-alternates: normal; font-kerning: auto; font-optical-sizing: auto; font-feature-settings: normal; font-variation-settings: normal; font-variant-position: normal; font-stretch: normal; font-size: 15px; line-height: normal; color: rgb(14, 14, 14);&quot;&gt;1 Сервис аутентификации/регистрации отвечает за регистрацию авторизацию и управление ролями пользователя&lt;/p&gt;&lt;p class=&quot;p1&quot; style=&quot;margin: 0px 0px 0px 21px; text-indent: -21px; font-variant-numeric: normal; font-variant-east-asian: normal; font-variant-alternates: normal; font-kerning: auto; font-optical-sizing: auto; font-feature-settings: normal; font-variation-settings: normal; font-variant-position: normal; font-stretch: normal; font-size: 15px; line-height: normal; color: rgb(14, 14, 14);&quot;&gt;2 Сервис аукционов отвечает за crud аукционов и их управление&lt;/p&gt;&lt;p class=&quot;p1&quot; style=&quot;margin: 0px 0px 0px 21px; text-indent: -21px; font-variant-numeric: normal; font-variant-east-asian: normal; font-variant-alternates: normal; font-kerning: auto; font-optical-sizing: auto; font-feature-settings: normal; font-variation-settings: normal; font-variant-position: normal; font-stretch: normal; font-size: 15px; line-height: normal; color: rgb(14, 14, 14);&quot;&gt;3 Сервис услуг обеспечивает поиск и crud по услугам&lt;/p&gt;&lt;p class=&quot;p1&quot; style=&quot;margin: 0px 0px 0px 21px; text-indent: -21px; font-variant-numeric: normal; font-variant-east-asian: normal; font-variant-alternates: normal; font-kerning: auto; font-optical-sizing: auto; font-feature-settings: normal; font-variation-settings: normal; font-variant-position: normal; font-stretch: normal; font-size: 15px; line-height: normal; color: rgb(14, 14, 14);&quot;&gt;4 Сервис товаров&amp;nbsp; обеспечивает поиск и управление услугами&lt;/p&gt;&lt;p class=&quot;p1&quot; style=&quot;margin: 0px 0px 0px 21px; text-indent: -21px; font-variant-numeric: normal; font-variant-east-asian: normal; font-variant-alternates: normal; font-kerning: auto; font-optical-sizing: auto; font-feature-settings: normal; font-variation-settings: normal; font-variant-position: normal; font-stretch: normal; font-size: 15px; line-height: normal; color: rgb(14, 14, 14);&quot;&gt;5 Сервис заказов обеспечивает формирование заказов так же отправляет уведомление в платежный сервис о том что заказ нужно обработать и оплатить&lt;/p&gt;&lt;p class=&quot;p1&quot; style=&quot;margin: 0px 0px 0px 21px; text-indent: -21px; font-variant-numeric: normal; font-variant-east-asian: normal; font-variant-alternates: normal; font-kerning: auto; font-optical-sizing: auto; font-feature-settings: normal; font-variation-settings: normal; font-variant-position: normal; font-stretch: normal; font-size: 15px; line-height: normal; color: rgb(14, 14, 14);&quot;&gt;6 Сервис заявок управление заявками от пользователей и предоставляет интерфейс для внутренних пользователей&amp;nbsp;&lt;/p&gt;&lt;p class=&quot;p1&quot; style=&quot;margin: 0px 0px 0px 21px; text-indent: -21px; font-variant-numeric: normal; font-variant-east-asian: normal; font-variant-alternates: normal; font-kerning: auto; font-optical-sizing: auto; font-feature-settings: normal; font-variation-settings: normal; font-variant-position: normal; font-stretch: normal; font-size: 15px; line-height: normal; color: rgb(14, 14, 14);&quot;&gt;7 Сервис аппеляций возможно стоило бы обьединить с сервисом заявок так как выполняет практически аналогичные функции&lt;/p&gt;&lt;p class=&quot;p1&quot; style=&quot;margin: 0px 0px 0px 21px; text-indent: -21px; font-variant-numeric: normal; font-variant-east-asian: normal; font-variant-alternates: normal; font-kerning: auto; font-optical-sizing: auto; font-feature-settings: normal; font-variation-settings: normal; font-variant-position: normal; font-stretch: normal; font-size: 15px; line-height: normal; color: rgb(14, 14, 14);&quot;&gt;8 Сервис платежей управляет циклом обработки заказа а так же платежным процессингом и взаимодействует с сервисом заказов через eventBus&lt;/p&gt;&lt;p class=&quot;p1&quot; style=&quot;margin: 0px 0px 0px 21px; text-indent: -21px; font-variant-numeric: normal; font-variant-east-asian: normal; font-variant-alternates: normal; font-kerning: auto; font-optical-sizing: auto; font-feature-settings: normal; font-variation-settings: normal; font-variant-position: normal; font-stretch: normal; font-size: 15px; line-height: normal; color: rgb(14, 14, 14);&quot;&gt;9 Сервис нотификаций отправляет уведомления как внешним так возможно и внутренним пользователям получая статусы от остальных сервисов через eventBus&lt;/p&gt;&lt;/h1&gt;" style="text;html=1;whiteSpace=wrap;overflow=hidden;rounded=0;fontSize=15;" parent="1" vertex="1">
          <mxGeometry x="970" y="1855" width="1270" height="445" as="geometry" />
        </mxCell>
        <mxCell id="ro2GFgqDV0QlA6Vm-lQV-1" value="&lt;font style=&quot;font-size: 20px;&quot;&gt;Описание взаимодействий&lt;/font&gt;" style="text;html=1;align=center;verticalAlign=middle;whiteSpace=wrap;rounded=0;" parent="1" vertex="1">
          <mxGeometry x="1350" y="1819" width="310" height="30" as="geometry" />
        </mxCell>
        <mxCell id="ISwjRsLXD4yoOcMXPSiY-5" value="" style="group" parent="1" vertex="1" connectable="0">
          <mxGeometry x="1424" y="1427" width="151" height="49" as="geometry" />
        </mxCell>
        <mxCell id="cKbgiC5qh_IXnBO1eU4K-93" value="&lt;p style=&quot;margin: 0px 0px 0px 13px; text-indent: -13px; font-variant-numeric: normal; font-variant-east-asian: normal; font-variant-alternates: normal; font-kerning: auto; font-optical-sizing: auto; font-feature-settings: normal; font-variation-settings: normal; font-variant-position: normal; font-stretch: normal; font-size: 14px; line-height: normal; color: rgb(14, 14, 14); text-align: start;&quot; class=&quot;p1&quot;&gt;&lt;br&gt;&lt;/p&gt;" style="rounded=1;whiteSpace=wrap;html=1;fillColor=#FF77BF;strokeColor=none;arcSize=50;" parent="ISwjRsLXD4yoOcMXPSiY-5" vertex="1">
          <mxGeometry y="9" width="151" height="33" as="geometry" />
        </mxCell>
        <mxCell id="cKbgiC5qh_IXnBO1eU4K-94" value="&lt;font style=&quot;font-size: 18px;&quot;&gt;&lt;i&gt;PostgreSQL&lt;/i&gt;&lt;/font&gt;" style="text;html=1;align=center;verticalAlign=middle;whiteSpace=wrap;rounded=1;shadow=0;fontSize=23;fontStyle=1" parent="ISwjRsLXD4yoOcMXPSiY-5" vertex="1">
          <mxGeometry x="31" width="89" height="49" as="geometry" />
        </mxCell>
        <mxCell id="qWpF3jZFovPxBTXFjTdf-1" value="" style="group" parent="1" vertex="1" connectable="0">
          <mxGeometry x="1378" y="871" width="331" height="280" as="geometry" />
        </mxCell>
        <mxCell id="qWpF3jZFovPxBTXFjTdf-2" value="" style="rounded=1;whiteSpace=wrap;html=1;arcSize=5;fillColor=#f5f5f5;strokeColor=#1C57CD;strokeWidth=3;" parent="qWpF3jZFovPxBTXFjTdf-1" vertex="1">
          <mxGeometry width="331" height="280" as="geometry" />
        </mxCell>
        <mxCell id="qWpF3jZFovPxBTXFjTdf-3" value="&lt;font style=&quot;font-size: 23px;&quot;&gt;Сервис аутентификаций&lt;/font&gt;" style="text;html=1;align=center;verticalAlign=middle;whiteSpace=wrap;rounded=1;fontSize=13;" parent="qWpF3jZFovPxBTXFjTdf-1" vertex="1">
          <mxGeometry x="1" y="7.466666666666667" width="301" height="37.333333333333336" as="geometry" />
        </mxCell>
        <mxCell id="BZBJQn5B5M7l6MrAMs_o-11" value="" style="group" parent="qWpF3jZFovPxBTXFjTdf-1" vertex="1" connectable="0">
          <mxGeometry x="8" y="48" width="309" height="39" as="geometry" />
        </mxCell>
        <mxCell id="Tz6aEU4ManMyac2rpAqn-48" value="" style="rounded=1;whiteSpace=wrap;html=1;fillColor=#1C57CD;strokeColor=none;" parent="BZBJQn5B5M7l6MrAMs_o-11" vertex="1">
          <mxGeometry width="309" height="39" as="geometry" />
        </mxCell>
        <mxCell id="Tz6aEU4ManMyac2rpAqn-49" value="" style="sketch=0;outlineConnect=0;fontColor=#232F3E;gradientColor=none;fillColor=default;strokeColor=none;dashed=0;verticalLabelPosition=bottom;verticalAlign=top;align=center;html=1;fontSize=12;fontStyle=0;aspect=fixed;pointerEvents=1;shape=mxgraph.aws4.gear;rounded=1;" parent="BZBJQn5B5M7l6MrAMs_o-11" vertex="1">
          <mxGeometry x="280" y="11" width="17" height="17" as="geometry" />
        </mxCell>
        <mxCell id="Tz6aEU4ManMyac2rpAqn-50" value="Валидация токена безопасности" style="text;html=1;align=center;verticalAlign=middle;whiteSpace=wrap;rounded=1;fontSize=13;fontColor=#FFFFFF;strokeColor=none;" parent="BZBJQn5B5M7l6MrAMs_o-11" vertex="1">
          <mxGeometry x="3" y="4.5" width="209" height="30" as="geometry" />
        </mxCell>
        <mxCell id="BZBJQn5B5M7l6MrAMs_o-8" value="" style="group" parent="qWpF3jZFovPxBTXFjTdf-1" vertex="1" connectable="0">
          <mxGeometry x="8" y="95" width="309" height="39" as="geometry" />
        </mxCell>
        <mxCell id="Tz6aEU4ManMyac2rpAqn-42" value="" style="rounded=1;whiteSpace=wrap;html=1;fillColor=#1C57CD;strokeColor=none;" parent="BZBJQn5B5M7l6MrAMs_o-8" vertex="1">
          <mxGeometry width="309" height="39" as="geometry" />
        </mxCell>
        <mxCell id="Tz6aEU4ManMyac2rpAqn-43" value="" style="sketch=0;outlineConnect=0;fontColor=#232F3E;gradientColor=none;fillColor=default;strokeColor=none;dashed=0;verticalLabelPosition=bottom;verticalAlign=top;align=center;html=1;fontSize=12;fontStyle=0;aspect=fixed;pointerEvents=1;shape=mxgraph.aws4.gear;rounded=1;" parent="BZBJQn5B5M7l6MrAMs_o-8" vertex="1">
          <mxGeometry x="280" y="11" width="17" height="17" as="geometry" />
        </mxCell>
        <mxCell id="Tz6aEU4ManMyac2rpAqn-44" value="Аутентификация" style="text;html=1;align=center;verticalAlign=middle;whiteSpace=wrap;rounded=1;fontSize=13;fontColor=#FFFFFF;strokeColor=none;" parent="BZBJQn5B5M7l6MrAMs_o-8" vertex="1">
          <mxGeometry x="2" y="4.5" width="114" height="30" as="geometry" />
        </mxCell>
        <mxCell id="2AGFnVR7y4NEZtL3Teil-1" value="" style="group" parent="qWpF3jZFovPxBTXFjTdf-1" vertex="1" connectable="0">
          <mxGeometry x="9" y="143" width="309" height="39" as="geometry" />
        </mxCell>
        <mxCell id="BZBJQn5B5M7l6MrAMs_o-7" value="" style="group" parent="2AGFnVR7y4NEZtL3Teil-1" vertex="1" connectable="0">
          <mxGeometry width="309" height="39" as="geometry" />
        </mxCell>
        <mxCell id="aNh6FEuhw9lsT8rE3H5J-122" value="" style="rounded=1;whiteSpace=wrap;html=1;gradientColor=none;fillColor=#1C57CD;strokeColor=none;movable=1;resizable=1;rotatable=1;deletable=1;editable=1;locked=0;connectable=1;" parent="BZBJQn5B5M7l6MrAMs_o-7" vertex="1">
          <mxGeometry width="309" height="39" as="geometry" />
        </mxCell>
        <mxCell id="aNh6FEuhw9lsT8rE3H5J-123" value="" style="sketch=0;outlineConnect=0;dashed=0;verticalLabelPosition=bottom;verticalAlign=top;align=center;html=1;fontSize=12;fontStyle=0;aspect=fixed;pointerEvents=1;shape=mxgraph.aws4.gear;rounded=1;strokeColor=none;fillColor=default;" parent="BZBJQn5B5M7l6MrAMs_o-7" vertex="1">
          <mxGeometry x="280" y="11" width="17" height="17" as="geometry" />
        </mxCell>
        <mxCell id="aNh6FEuhw9lsT8rE3H5J-93" value="Регистрация пользователя" style="text;html=1;align=center;verticalAlign=middle;whiteSpace=wrap;rounded=1;fontSize=13;fontColor=#FFFFFF;strokeColor=none;movable=1;resizable=1;rotatable=1;deletable=1;editable=1;locked=0;connectable=1;" parent="BZBJQn5B5M7l6MrAMs_o-7" vertex="1">
          <mxGeometry x="3" y="4.5" width="172" height="30" as="geometry" />
        </mxCell>
        <mxCell id="BZBJQn5B5M7l6MrAMs_o-9" value="" style="group" parent="qWpF3jZFovPxBTXFjTdf-1" vertex="1" connectable="0">
          <mxGeometry x="10" y="189" width="309" height="39" as="geometry" />
        </mxCell>
        <mxCell id="Tz6aEU4ManMyac2rpAqn-45" value="" style="rounded=1;whiteSpace=wrap;html=1;fillColor=#1C57CD;strokeColor=none;" parent="BZBJQn5B5M7l6MrAMs_o-9" vertex="1">
          <mxGeometry width="309" height="39" as="geometry" />
        </mxCell>
        <mxCell id="Tz6aEU4ManMyac2rpAqn-46" value="" style="sketch=0;outlineConnect=0;fontColor=#232F3E;gradientColor=none;fillColor=default;strokeColor=none;dashed=0;verticalLabelPosition=bottom;verticalAlign=top;align=center;html=1;fontSize=12;fontStyle=0;aspect=fixed;pointerEvents=1;shape=mxgraph.aws4.gear;rounded=1;" parent="BZBJQn5B5M7l6MrAMs_o-9" vertex="1">
          <mxGeometry x="280" y="11" width="17" height="17" as="geometry" />
        </mxCell>
        <mxCell id="Tz6aEU4ManMyac2rpAqn-47" value="Присвоение ролей" style="text;html=1;align=center;verticalAlign=middle;whiteSpace=wrap;rounded=1;fontSize=13;fontColor=#FFFFFF;strokeColor=none;" parent="BZBJQn5B5M7l6MrAMs_o-9" vertex="1">
          <mxGeometry x="3" y="5" width="122" height="30" as="geometry" />
        </mxCell>
        <mxCell id="BZBJQn5B5M7l6MrAMs_o-39" value="" style="group" parent="qWpF3jZFovPxBTXFjTdf-1" vertex="1" connectable="0">
          <mxGeometry x="10" y="234" width="309" height="39" as="geometry" />
        </mxCell>
        <mxCell id="cKbgiC5qh_IXnBO1eU4K-16" value="" style="rounded=1;whiteSpace=wrap;html=1;fillColor=#1C57CD;strokeColor=none;" parent="BZBJQn5B5M7l6MrAMs_o-39" vertex="1">
          <mxGeometry width="309" height="39" as="geometry" />
        </mxCell>
        <mxCell id="cKbgiC5qh_IXnBO1eU4K-17" value="" style="sketch=0;outlineConnect=0;fontColor=#232F3E;gradientColor=none;fillColor=#FFFFFF;strokeColor=none;dashed=0;verticalLabelPosition=bottom;verticalAlign=top;align=center;html=1;fontSize=12;fontStyle=0;aspect=fixed;pointerEvents=1;shape=mxgraph.aws4.gear;rounded=1;" parent="BZBJQn5B5M7l6MrAMs_o-39" vertex="1">
          <mxGeometry x="280" y="11" width="17" height="17" as="geometry" />
        </mxCell>
        <mxCell id="cKbgiC5qh_IXnBO1eU4K-18" value="Сгенерировать отчёт активности пользователей" style="text;html=1;align=center;verticalAlign=middle;whiteSpace=wrap;rounded=1;fontSize=13;fontColor=#FFFFFF;strokeColor=none;" parent="BZBJQn5B5M7l6MrAMs_o-39" vertex="1">
          <mxGeometry x="5" y="6" width="215" height="30" as="geometry" />
        </mxCell>
        <mxCell id="qWpF3jZFovPxBTXFjTdf-4" value="" style="group;flipH=0;flipV=0;" parent="1" vertex="1" connectable="0">
          <mxGeometry x="4276" y="877" width="331" height="226" as="geometry" />
        </mxCell>
        <mxCell id="qWpF3jZFovPxBTXFjTdf-5" value="" style="rounded=1;whiteSpace=wrap;html=1;arcSize=5;fillColor=#f5f5f5;strokeColor=#1C57CD;strokeWidth=3;" parent="qWpF3jZFovPxBTXFjTdf-4" vertex="1">
          <mxGeometry width="331" height="226" as="geometry" />
        </mxCell>
        <mxCell id="qWpF3jZFovPxBTXFjTdf-6" value="&lt;span style=&quot;font-size: 23px;&quot;&gt;Сервис нотификаций&lt;/span&gt;" style="text;html=1;align=center;verticalAlign=middle;whiteSpace=wrap;rounded=1;fontSize=13;" parent="qWpF3jZFovPxBTXFjTdf-4" vertex="1">
          <mxGeometry x="1" y="9.48" width="293" height="47.41" as="geometry" />
        </mxCell>
        <mxCell id="BZBJQn5B5M7l6MrAMs_o-21" value="" style="group" parent="qWpF3jZFovPxBTXFjTdf-4" vertex="1" connectable="0">
          <mxGeometry x="8" y="55" width="310" height="40" as="geometry" />
        </mxCell>
        <mxCell id="Tz6aEU4ManMyac2rpAqn-96" value="" style="rounded=1;whiteSpace=wrap;html=1;fillColor=#1C57CD;strokeColor=none;" parent="BZBJQn5B5M7l6MrAMs_o-21" vertex="1">
          <mxGeometry width="309" height="39" as="geometry" />
        </mxCell>
        <mxCell id="Tz6aEU4ManMyac2rpAqn-97" value="" style="sketch=0;outlineConnect=0;fontColor=#232F3E;gradientColor=none;fillColor=default;strokeColor=none;dashed=0;verticalLabelPosition=bottom;verticalAlign=top;align=center;html=1;fontSize=12;fontStyle=0;aspect=fixed;pointerEvents=1;shape=mxgraph.aws4.gear;rounded=1;" parent="BZBJQn5B5M7l6MrAMs_o-21" vertex="1">
          <mxGeometry x="282" y="11" width="17" height="17" as="geometry" />
        </mxCell>
        <mxCell id="Tz6aEU4ManMyac2rpAqn-98" value="Нотификация об изменении состояния заказа" style="text;html=1;align=center;verticalAlign=middle;whiteSpace=wrap;rounded=1;fontSize=13;fontColor=#FFFFFF;strokeColor=none;" parent="BZBJQn5B5M7l6MrAMs_o-21" vertex="1">
          <mxGeometry x="6" y="4.5" width="247" height="30" as="geometry" />
        </mxCell>
        <mxCell id="BZBJQn5B5M7l6MrAMs_o-31" value="" style="group" parent="qWpF3jZFovPxBTXFjTdf-4" vertex="1" connectable="0">
          <mxGeometry x="8" y="108" width="310" height="40" as="geometry" />
        </mxCell>
        <mxCell id="Tz6aEU4ManMyac2rpAqn-149" value="" style="rounded=1;whiteSpace=wrap;html=1;fillColor=#1C57CD;strokeColor=none;" parent="BZBJQn5B5M7l6MrAMs_o-31" vertex="1">
          <mxGeometry width="309" height="39" as="geometry" />
        </mxCell>
        <mxCell id="Tz6aEU4ManMyac2rpAqn-150" value="" style="sketch=0;outlineConnect=0;fontColor=#232F3E;gradientColor=none;fillColor=#FFFFFF;strokeColor=none;dashed=0;verticalLabelPosition=bottom;verticalAlign=top;align=center;html=1;fontSize=12;fontStyle=0;aspect=fixed;pointerEvents=1;shape=mxgraph.aws4.gear;rounded=1;" parent="BZBJQn5B5M7l6MrAMs_o-31" vertex="1">
          <mxGeometry x="286" y="11" width="17" height="17" as="geometry" />
        </mxCell>
        <mxCell id="Tz6aEU4ManMyac2rpAqn-151" value="Нотификация участника аукциона" style="text;html=1;align=center;verticalAlign=middle;whiteSpace=wrap;rounded=1;fontSize=13;fontColor=#FFFFFF;strokeColor=none;" parent="BZBJQn5B5M7l6MrAMs_o-31" vertex="1">
          <mxGeometry x="3" y="4.5" width="218" height="30" as="geometry" />
        </mxCell>
        <mxCell id="BZBJQn5B5M7l6MrAMs_o-10" value="" style="group" parent="qWpF3jZFovPxBTXFjTdf-4" vertex="1" connectable="0">
          <mxGeometry x="10" y="160" width="310" height="40" as="geometry" />
        </mxCell>
        <mxCell id="Tz6aEU4ManMyac2rpAqn-72" value="" style="rounded=1;whiteSpace=wrap;html=1;fillColor=#1C57CD;strokeColor=none;" parent="BZBJQn5B5M7l6MrAMs_o-10" vertex="1">
          <mxGeometry width="309" height="39" as="geometry" />
        </mxCell>
        <mxCell id="Tz6aEU4ManMyac2rpAqn-73" value="" style="sketch=0;outlineConnect=0;fontColor=#232F3E;gradientColor=none;fillColor=default;strokeColor=none;dashed=0;verticalLabelPosition=bottom;verticalAlign=top;align=center;html=1;fontSize=12;fontStyle=0;aspect=fixed;pointerEvents=1;shape=mxgraph.aws4.gear;rounded=1;" parent="BZBJQn5B5M7l6MrAMs_o-10" vertex="1">
          <mxGeometry x="280" y="11" width="17" height="17" as="geometry" />
        </mxCell>
        <mxCell id="Tz6aEU4ManMyac2rpAqn-74" value="Нотификация нового пользователя" style="text;html=1;align=center;verticalAlign=middle;whiteSpace=wrap;rounded=1;fontSize=13;fontColor=#FFFFFF;strokeColor=none;" parent="BZBJQn5B5M7l6MrAMs_o-10" vertex="1">
          <mxGeometry x="3" y="4.5" width="227" height="30" as="geometry" />
        </mxCell>
        <mxCell id="qWpF3jZFovPxBTXFjTdf-10" value="" style="group" parent="1" vertex="1" connectable="0">
          <mxGeometry x="2816" y="880" width="331" height="448" as="geometry" />
        </mxCell>
        <mxCell id="qWpF3jZFovPxBTXFjTdf-11" value="" style="rounded=1;whiteSpace=wrap;html=1;arcSize=5;fillColor=#f5f5f5;strokeColor=#1C57CD;strokeWidth=3;" parent="qWpF3jZFovPxBTXFjTdf-10" vertex="1">
          <mxGeometry width="331" height="448" as="geometry" />
        </mxCell>
        <mxCell id="qWpF3jZFovPxBTXFjTdf-12" value="&lt;span style=&quot;font-size: 23px;&quot;&gt;Сервис заказов&lt;/span&gt;" style="text;html=1;align=center;verticalAlign=middle;whiteSpace=wrap;rounded=1;fontSize=13;" parent="qWpF3jZFovPxBTXFjTdf-10" vertex="1">
          <mxGeometry x="13" y="5" width="298" height="41.98" as="geometry" />
        </mxCell>
        <mxCell id="BZBJQn5B5M7l6MrAMs_o-14" value="" style="group" parent="qWpF3jZFovPxBTXFjTdf-10" vertex="1" connectable="0">
          <mxGeometry x="14" y="45" width="309" height="40" as="geometry" />
        </mxCell>
        <mxCell id="Tz6aEU4ManMyac2rpAqn-75" value="" style="rounded=1;whiteSpace=wrap;html=1;fillColor=#1C57CD;strokeColor=none;" parent="BZBJQn5B5M7l6MrAMs_o-14" vertex="1">
          <mxGeometry width="309" height="40" as="geometry" />
        </mxCell>
        <mxCell id="Tz6aEU4ManMyac2rpAqn-76" value="" style="sketch=0;outlineConnect=0;fontColor=#232F3E;gradientColor=none;fillColor=default;strokeColor=none;dashed=0;verticalLabelPosition=bottom;verticalAlign=top;align=center;html=1;fontSize=12;fontStyle=0;aspect=fixed;pointerEvents=1;shape=mxgraph.aws4.gear;rounded=1;" parent="BZBJQn5B5M7l6MrAMs_o-14" vertex="1">
          <mxGeometry x="282" y="11.282051282051281" width="17" height="17" as="geometry" />
        </mxCell>
        <mxCell id="Tz6aEU4ManMyac2rpAqn-77" value="Создание заказа" style="text;html=1;align=center;verticalAlign=middle;whiteSpace=wrap;rounded=1;fontSize=13;fontColor=#FFFFFF;strokeColor=none;" parent="BZBJQn5B5M7l6MrAMs_o-14" vertex="1">
          <mxGeometry x="5" y="4.615384615384615" width="110" height="30.769230769230766" as="geometry" />
        </mxCell>
        <mxCell id="BZBJQn5B5M7l6MrAMs_o-15" value="" style="group" parent="qWpF3jZFovPxBTXFjTdf-10" vertex="1" connectable="0">
          <mxGeometry x="14" y="90" width="309" height="40" as="geometry" />
        </mxCell>
        <mxCell id="Tz6aEU4ManMyac2rpAqn-78" value="" style="rounded=1;whiteSpace=wrap;html=1;fillColor=#1C57CD;strokeColor=none;" parent="BZBJQn5B5M7l6MrAMs_o-15" vertex="1">
          <mxGeometry width="309" height="40" as="geometry" />
        </mxCell>
        <mxCell id="Tz6aEU4ManMyac2rpAqn-79" value="" style="sketch=0;outlineConnect=0;fontColor=#232F3E;gradientColor=none;fillColor=default;strokeColor=none;dashed=0;verticalLabelPosition=bottom;verticalAlign=top;align=center;html=1;fontSize=12;fontStyle=0;aspect=fixed;pointerEvents=1;shape=mxgraph.aws4.gear;rounded=1;" parent="BZBJQn5B5M7l6MrAMs_o-15" vertex="1">
          <mxGeometry x="282" y="11.282051282051281" width="17" height="17" as="geometry" />
        </mxCell>
        <mxCell id="Tz6aEU4ManMyac2rpAqn-80" value="Редактирование заказа" style="text;html=1;align=center;verticalAlign=middle;whiteSpace=wrap;rounded=1;fontSize=13;fontColor=#FFFFFF;strokeColor=none;" parent="BZBJQn5B5M7l6MrAMs_o-15" vertex="1">
          <mxGeometry x="3" y="4.615384615384615" width="154" height="30.769230769230766" as="geometry" />
        </mxCell>
        <mxCell id="BZBJQn5B5M7l6MrAMs_o-16" value="" style="group" parent="qWpF3jZFovPxBTXFjTdf-10" vertex="1" connectable="0">
          <mxGeometry x="14" y="135" width="309" height="40" as="geometry" />
        </mxCell>
        <mxCell id="Tz6aEU4ManMyac2rpAqn-81" value="" style="rounded=1;whiteSpace=wrap;html=1;fillColor=#1C57CD;strokeColor=none;" parent="BZBJQn5B5M7l6MrAMs_o-16" vertex="1">
          <mxGeometry width="309" height="40" as="geometry" />
        </mxCell>
        <mxCell id="Tz6aEU4ManMyac2rpAqn-82" value="" style="sketch=0;outlineConnect=0;fontColor=#232F3E;gradientColor=none;fillColor=default;strokeColor=none;dashed=0;verticalLabelPosition=bottom;verticalAlign=top;align=center;html=1;fontSize=12;fontStyle=0;aspect=fixed;pointerEvents=1;shape=mxgraph.aws4.gear;rounded=1;" parent="BZBJQn5B5M7l6MrAMs_o-16" vertex="1">
          <mxGeometry x="282" y="11.282051282051281" width="17" height="17" as="geometry" />
        </mxCell>
        <mxCell id="Tz6aEU4ManMyac2rpAqn-83" value="Сохранение заказа" style="text;html=1;align=center;verticalAlign=middle;whiteSpace=wrap;rounded=1;fontSize=13;fontColor=#FFFFFF;strokeColor=none;" parent="BZBJQn5B5M7l6MrAMs_o-16" vertex="1">
          <mxGeometry x="4" y="4.102564102564102" width="126" height="30.769230769230766" as="geometry" />
        </mxCell>
        <mxCell id="BZBJQn5B5M7l6MrAMs_o-18" value="" style="group" parent="qWpF3jZFovPxBTXFjTdf-10" vertex="1" connectable="0">
          <mxGeometry x="14" y="180" width="309" height="40" as="geometry" />
        </mxCell>
        <mxCell id="Tz6aEU4ManMyac2rpAqn-87" value="" style="rounded=1;whiteSpace=wrap;html=1;fillColor=#1C57CD;strokeColor=none;" parent="BZBJQn5B5M7l6MrAMs_o-18" vertex="1">
          <mxGeometry width="309" height="40" as="geometry" />
        </mxCell>
        <mxCell id="Tz6aEU4ManMyac2rpAqn-88" value="" style="sketch=0;outlineConnect=0;fontColor=#232F3E;gradientColor=none;fillColor=default;strokeColor=none;dashed=0;verticalLabelPosition=bottom;verticalAlign=top;align=center;html=1;fontSize=12;fontStyle=0;aspect=fixed;pointerEvents=1;shape=mxgraph.aws4.gear;rounded=1;" parent="BZBJQn5B5M7l6MrAMs_o-18" vertex="1">
          <mxGeometry x="281.5" y="11.282051282051281" width="17" height="17" as="geometry" />
        </mxCell>
        <mxCell id="Tz6aEU4ManMyac2rpAqn-89" value="Размещение заказа" style="text;html=1;align=center;verticalAlign=middle;whiteSpace=wrap;rounded=1;fontSize=13;fontColor=#FFFFFF;strokeColor=none;" parent="BZBJQn5B5M7l6MrAMs_o-18" vertex="1">
          <mxGeometry x="3" y="4.615384615384615" width="130.5" height="30.769230769230766" as="geometry" />
        </mxCell>
        <mxCell id="BZBJQn5B5M7l6MrAMs_o-17" value="" style="group" parent="qWpF3jZFovPxBTXFjTdf-10" vertex="1" connectable="0">
          <mxGeometry x="14" y="225" width="309" height="40" as="geometry" />
        </mxCell>
        <mxCell id="Tz6aEU4ManMyac2rpAqn-84" value="" style="rounded=1;whiteSpace=wrap;html=1;fillColor=#1C57CD;strokeColor=none;" parent="BZBJQn5B5M7l6MrAMs_o-17" vertex="1">
          <mxGeometry width="309" height="40" as="geometry" />
        </mxCell>
        <mxCell id="Tz6aEU4ManMyac2rpAqn-85" value="" style="sketch=0;outlineConnect=0;fontColor=#232F3E;gradientColor=none;fillColor=default;strokeColor=none;dashed=0;verticalLabelPosition=bottom;verticalAlign=top;align=center;html=1;fontSize=12;fontStyle=0;aspect=fixed;pointerEvents=1;shape=mxgraph.aws4.gear;rounded=1;" parent="BZBJQn5B5M7l6MrAMs_o-17" vertex="1">
          <mxGeometry x="281.5" y="11.282051282051281" width="17" height="17" as="geometry" />
        </mxCell>
        <mxCell id="Tz6aEU4ManMyac2rpAqn-86" value="Подтверждение заказа" style="text;html=1;align=center;verticalAlign=middle;whiteSpace=wrap;rounded=1;fontSize=13;fontColor=#FFFFFF;strokeColor=none;" parent="BZBJQn5B5M7l6MrAMs_o-17" vertex="1">
          <mxGeometry x="4" y="4.615384615384615" width="152" height="30.769230769230766" as="geometry" />
        </mxCell>
        <mxCell id="BZBJQn5B5M7l6MrAMs_o-19" value="" style="group" parent="qWpF3jZFovPxBTXFjTdf-10" vertex="1" connectable="0">
          <mxGeometry x="14" y="270" width="309" height="40" as="geometry" />
        </mxCell>
        <mxCell id="Tz6aEU4ManMyac2rpAqn-90" value="" style="rounded=1;whiteSpace=wrap;html=1;fillColor=#1C57CD;strokeColor=none;" parent="BZBJQn5B5M7l6MrAMs_o-19" vertex="1">
          <mxGeometry width="309" height="40" as="geometry" />
        </mxCell>
        <mxCell id="Tz6aEU4ManMyac2rpAqn-91" value="" style="sketch=0;outlineConnect=0;fontColor=#232F3E;gradientColor=none;fillColor=default;strokeColor=none;dashed=0;verticalLabelPosition=bottom;verticalAlign=top;align=center;html=1;fontSize=12;fontStyle=0;aspect=fixed;pointerEvents=1;shape=mxgraph.aws4.gear;rounded=1;" parent="BZBJQn5B5M7l6MrAMs_o-19" vertex="1">
          <mxGeometry x="281.5" y="11.282051282051281" width="17" height="17" as="geometry" />
        </mxCell>
        <mxCell id="Tz6aEU4ManMyac2rpAqn-92" value="Отобразить все заказы" style="text;html=1;align=center;verticalAlign=middle;whiteSpace=wrap;rounded=1;fontSize=13;fontColor=#FFFFFF;strokeColor=none;" parent="BZBJQn5B5M7l6MrAMs_o-19" vertex="1">
          <mxGeometry x="3" y="4.615384615384615" width="152" height="30.769230769230766" as="geometry" />
        </mxCell>
        <mxCell id="BZBJQn5B5M7l6MrAMs_o-20" value="" style="group" parent="qWpF3jZFovPxBTXFjTdf-10" vertex="1" connectable="0">
          <mxGeometry x="14" y="315" width="309" height="40" as="geometry" />
        </mxCell>
        <mxCell id="Tz6aEU4ManMyac2rpAqn-93" value="" style="rounded=1;whiteSpace=wrap;html=1;fillColor=#1C57CD;strokeColor=none;" parent="BZBJQn5B5M7l6MrAMs_o-20" vertex="1">
          <mxGeometry width="309" height="40" as="geometry" />
        </mxCell>
        <mxCell id="Tz6aEU4ManMyac2rpAqn-94" value="" style="sketch=0;outlineConnect=0;fontColor=#232F3E;gradientColor=none;fillColor=default;strokeColor=none;dashed=0;verticalLabelPosition=bottom;verticalAlign=top;align=center;html=1;fontSize=12;fontStyle=0;aspect=fixed;pointerEvents=1;shape=mxgraph.aws4.gear;rounded=1;" parent="BZBJQn5B5M7l6MrAMs_o-20" vertex="1">
          <mxGeometry x="282" y="11.282051282051281" width="17" height="17" as="geometry" />
        </mxCell>
        <mxCell id="Tz6aEU4ManMyac2rpAqn-95" value="Отобразить детали заказа" style="text;html=1;align=center;verticalAlign=middle;whiteSpace=wrap;rounded=1;fontSize=13;fontColor=#FFFFFF;strokeColor=none;" parent="BZBJQn5B5M7l6MrAMs_o-20" vertex="1">
          <mxGeometry x="5" y="5.128205128205128" width="169" height="30.769230769230766" as="geometry" />
        </mxCell>
        <mxCell id="BZBJQn5B5M7l6MrAMs_o-36" value="" style="group" parent="qWpF3jZFovPxBTXFjTdf-10" vertex="1" connectable="0">
          <mxGeometry x="14" y="360" width="309" height="39" as="geometry" />
        </mxCell>
        <mxCell id="cKbgiC5qh_IXnBO1eU4K-13" value="" style="rounded=1;whiteSpace=wrap;html=1;fillColor=#1C57CD;strokeColor=none;" parent="BZBJQn5B5M7l6MrAMs_o-36" vertex="1">
          <mxGeometry width="309" height="39" as="geometry" />
        </mxCell>
        <mxCell id="cKbgiC5qh_IXnBO1eU4K-14" value="" style="sketch=0;outlineConnect=0;fontColor=#232F3E;gradientColor=none;fillColor=#FFFFFF;strokeColor=none;dashed=0;verticalLabelPosition=bottom;verticalAlign=top;align=center;html=1;fontSize=12;fontStyle=0;aspect=fixed;pointerEvents=1;shape=mxgraph.aws4.gear;rounded=1;" parent="BZBJQn5B5M7l6MrAMs_o-36" vertex="1">
          <mxGeometry x="286" y="11" width="17" height="17" as="geometry" />
        </mxCell>
        <mxCell id="cKbgiC5qh_IXnBO1eU4K-15" value="Отобразить статистику заказов" style="text;html=1;align=center;verticalAlign=middle;whiteSpace=wrap;rounded=1;fontSize=13;fontColor=#FFFFFF;strokeColor=none;" parent="BZBJQn5B5M7l6MrAMs_o-36" vertex="1">
          <mxGeometry x="6.5" y="4.5" width="202" height="30" as="geometry" />
        </mxCell>
        <mxCell id="BZBJQn5B5M7l6MrAMs_o-51" value="" style="group" parent="qWpF3jZFovPxBTXFjTdf-10" vertex="1" connectable="0">
          <mxGeometry x="11" y="404" width="309" height="39" as="geometry" />
        </mxCell>
        <mxCell id="Tz6aEU4ManMyac2rpAqn-115" value="" style="rounded=1;whiteSpace=wrap;html=1;fillColor=#1C57CD;strokeColor=none;" parent="BZBJQn5B5M7l6MrAMs_o-51" vertex="1">
          <mxGeometry width="309" height="39" as="geometry" />
        </mxCell>
        <mxCell id="Tz6aEU4ManMyac2rpAqn-116" value="" style="sketch=0;outlineConnect=0;fontColor=#232F3E;gradientColor=none;fillColor=#FFFFFF;strokeColor=none;dashed=0;verticalLabelPosition=bottom;verticalAlign=top;align=center;html=1;fontSize=12;fontStyle=0;aspect=fixed;pointerEvents=1;shape=mxgraph.aws4.gear;rounded=1;" parent="BZBJQn5B5M7l6MrAMs_o-51" vertex="1">
          <mxGeometry x="280" y="11" width="17" height="17" as="geometry" />
        </mxCell>
        <mxCell id="Tz6aEU4ManMyac2rpAqn-117" value="Учёт платёжной операции" style="text;html=1;align=center;verticalAlign=middle;whiteSpace=wrap;rounded=1;fontSize=13;fontColor=#FFFFFF;strokeColor=none;" parent="BZBJQn5B5M7l6MrAMs_o-51" vertex="1">
          <mxGeometry x="5" y="4.5" width="173" height="30" as="geometry" />
        </mxCell>
        <mxCell id="qWpF3jZFovPxBTXFjTdf-19" value="" style="group" parent="1" vertex="1" connectable="0">
          <mxGeometry x="3183" y="880" width="331" height="262" as="geometry" />
        </mxCell>
        <mxCell id="qWpF3jZFovPxBTXFjTdf-20" value="" style="rounded=1;whiteSpace=wrap;html=1;arcSize=5;fillColor=#f5f5f5;strokeColor=#1C57CD;strokeWidth=3;container=1;" parent="qWpF3jZFovPxBTXFjTdf-19" vertex="1">
          <mxGeometry x="3" y="-1" width="331" height="262" as="geometry" />
        </mxCell>
        <mxCell id="qWpF3jZFovPxBTXFjTdf-21" value="&lt;font style=&quot;font-size: 23px;&quot;&gt;Сервис заявок&lt;/font&gt;" style="text;html=1;align=center;verticalAlign=middle;whiteSpace=wrap;rounded=1;fontSize=13;container=1;" parent="qWpF3jZFovPxBTXFjTdf-19" vertex="1">
          <mxGeometry x="1" y="10.99" width="322" height="35.01" as="geometry" />
        </mxCell>
        <mxCell id="BZBJQn5B5M7l6MrAMs_o-42" value="" style="group" parent="qWpF3jZFovPxBTXFjTdf-19" vertex="1" connectable="0">
          <mxGeometry x="14" y="58" width="309" height="39" as="geometry" />
        </mxCell>
        <mxCell id="cKbgiC5qh_IXnBO1eU4K-31" value="" style="rounded=1;whiteSpace=wrap;html=1;fillColor=#1C57CD;strokeColor=none;" parent="BZBJQn5B5M7l6MrAMs_o-42" vertex="1">
          <mxGeometry width="309" height="39" as="geometry" />
        </mxCell>
        <mxCell id="cKbgiC5qh_IXnBO1eU4K-32" value="" style="sketch=0;outlineConnect=0;fontColor=#232F3E;gradientColor=none;fillColor=#FFFFFF;strokeColor=none;dashed=0;verticalLabelPosition=bottom;verticalAlign=top;align=center;html=1;fontSize=12;fontStyle=0;aspect=fixed;pointerEvents=1;shape=mxgraph.aws4.gear;rounded=1;" parent="BZBJQn5B5M7l6MrAMs_o-42" vertex="1">
          <mxGeometry x="280" y="11" width="17" height="17" as="geometry" />
        </mxCell>
        <mxCell id="cKbgiC5qh_IXnBO1eU4K-33" value="Создать заявку на техподдержку" style="text;html=1;align=center;verticalAlign=middle;whiteSpace=wrap;rounded=1;fontSize=13;fontColor=#FFFFFF;strokeColor=none;" parent="BZBJQn5B5M7l6MrAMs_o-42" vertex="1">
          <mxGeometry y="4.5" width="230" height="30" as="geometry" />
        </mxCell>
        <mxCell id="BZBJQn5B5M7l6MrAMs_o-40" value="" style="group" parent="qWpF3jZFovPxBTXFjTdf-19" vertex="1" connectable="0">
          <mxGeometry x="14" y="106" width="309" height="39" as="geometry" />
        </mxCell>
        <mxCell id="cKbgiC5qh_IXnBO1eU4K-40" value="" style="rounded=1;whiteSpace=wrap;html=1;fillColor=#1C57CD;strokeColor=none;" parent="BZBJQn5B5M7l6MrAMs_o-40" vertex="1">
          <mxGeometry width="309" height="39" as="geometry" />
        </mxCell>
        <mxCell id="cKbgiC5qh_IXnBO1eU4K-41" value="" style="sketch=0;outlineConnect=0;fontColor=#232F3E;gradientColor=none;fillColor=#FFFFFF;strokeColor=none;dashed=0;verticalLabelPosition=bottom;verticalAlign=top;align=center;html=1;fontSize=12;fontStyle=0;aspect=fixed;pointerEvents=1;shape=mxgraph.aws4.gear;rounded=1;" parent="BZBJQn5B5M7l6MrAMs_o-40" vertex="1">
          <mxGeometry x="280" y="11" width="17" height="17" as="geometry" />
        </mxCell>
        <mxCell id="cKbgiC5qh_IXnBO1eU4K-42" value="Обновление статуса заявки" style="text;html=1;align=center;verticalAlign=middle;whiteSpace=wrap;rounded=1;fontSize=13;fontColor=#FFFFFF;strokeColor=none;" parent="BZBJQn5B5M7l6MrAMs_o-40" vertex="1">
          <mxGeometry x="8" y="4" width="176" height="30" as="geometry" />
        </mxCell>
        <mxCell id="BZBJQn5B5M7l6MrAMs_o-41" value="" style="group" parent="qWpF3jZFovPxBTXFjTdf-19" vertex="1" connectable="0">
          <mxGeometry x="14" y="156" width="309" height="39" as="geometry" />
        </mxCell>
        <mxCell id="cKbgiC5qh_IXnBO1eU4K-34" value="" style="rounded=1;whiteSpace=wrap;html=1;fillColor=#1C57CD;strokeColor=none;" parent="BZBJQn5B5M7l6MrAMs_o-41" vertex="1">
          <mxGeometry width="309" height="39" as="geometry" />
        </mxCell>
        <mxCell id="cKbgiC5qh_IXnBO1eU4K-35" value="" style="sketch=0;outlineConnect=0;fontColor=#232F3E;gradientColor=none;fillColor=#FFFFFF;strokeColor=none;dashed=0;verticalLabelPosition=bottom;verticalAlign=top;align=center;html=1;fontSize=12;fontStyle=0;aspect=fixed;pointerEvents=1;shape=mxgraph.aws4.gear;rounded=1;" parent="BZBJQn5B5M7l6MrAMs_o-41" vertex="1">
          <mxGeometry x="280" y="11" width="17" height="17" as="geometry" />
        </mxCell>
        <mxCell id="cKbgiC5qh_IXnBO1eU4K-36" value="Регистрация заявки на техподдержку" style="text;html=1;align=center;verticalAlign=middle;whiteSpace=wrap;rounded=1;fontSize=13;fontColor=#FFFFFF;strokeColor=none;" parent="BZBJQn5B5M7l6MrAMs_o-41" vertex="1">
          <mxGeometry x="4" y="4.5" width="249" height="30" as="geometry" />
        </mxCell>
        <mxCell id="qWpF3jZFovPxBTXFjTdf-22" value="" style="group" parent="1" vertex="1" connectable="0">
          <mxGeometry x="1750" y="872" width="331" height="358" as="geometry" />
        </mxCell>
        <mxCell id="qWpF3jZFovPxBTXFjTdf-23" value="" style="rounded=1;whiteSpace=wrap;html=1;arcSize=5;fillColor=#f5f5f5;strokeColor=#1C57CD;strokeWidth=3;" parent="qWpF3jZFovPxBTXFjTdf-22" vertex="1">
          <mxGeometry width="331" height="358" as="geometry" />
        </mxCell>
        <mxCell id="qWpF3jZFovPxBTXFjTdf-24" value="&lt;font style=&quot;font-size: 23px;&quot;&gt;Сервис аукционов&lt;/font&gt;" style="text;html=1;align=center;verticalAlign=middle;whiteSpace=wrap;rounded=1;fontSize=13;container=1;" parent="qWpF3jZFovPxBTXFjTdf-22" vertex="1">
          <mxGeometry x="5" y="6.050704225352113" width="318" height="49.414084507042254" as="geometry" />
        </mxCell>
        <mxCell id="BZBJQn5B5M7l6MrAMs_o-27" value="" style="group" parent="qWpF3jZFovPxBTXFjTdf-22" vertex="1" connectable="0">
          <mxGeometry x="14" y="52.43943661971831" width="309" height="39.329577464788734" as="geometry" />
        </mxCell>
        <mxCell id="Tz6aEU4ManMyac2rpAqn-135" value="" style="rounded=1;whiteSpace=wrap;html=1;fillColor=#1C57CD;strokeColor=none;" parent="BZBJQn5B5M7l6MrAMs_o-27" vertex="1">
          <mxGeometry width="309" height="39.329577464788734" as="geometry" />
        </mxCell>
        <mxCell id="Tz6aEU4ManMyac2rpAqn-136" value="" style="sketch=0;outlineConnect=0;fontColor=#232F3E;gradientColor=none;fillColor=#FFFFFF;strokeColor=none;dashed=0;verticalLabelPosition=bottom;verticalAlign=top;align=center;html=1;fontSize=12;fontStyle=0;aspect=fixed;pointerEvents=1;shape=mxgraph.aws4.gear;rounded=1;" parent="BZBJQn5B5M7l6MrAMs_o-27" vertex="1">
          <mxGeometry x="286" y="11.092957746478874" width="17" height="17" as="geometry" />
        </mxCell>
        <mxCell id="Tz6aEU4ManMyac2rpAqn-137" value="Создать аукцион" style="text;html=1;align=center;verticalAlign=middle;whiteSpace=wrap;rounded=1;fontSize=13;fontColor=#FFFFFF;strokeColor=none;" parent="BZBJQn5B5M7l6MrAMs_o-27" vertex="1">
          <mxGeometry x="3" y="4.538028169014084" width="113" height="30.253521126760564" as="geometry" />
        </mxCell>
        <mxCell id="BZBJQn5B5M7l6MrAMs_o-28" value="" style="group" parent="qWpF3jZFovPxBTXFjTdf-22" vertex="1" connectable="0">
          <mxGeometry x="14" y="103.87042253521126" width="309" height="39.329577464788734" as="geometry" />
        </mxCell>
        <mxCell id="Tz6aEU4ManMyac2rpAqn-140" value="" style="rounded=1;whiteSpace=wrap;html=1;fillColor=#1C57CD;strokeColor=none;" parent="BZBJQn5B5M7l6MrAMs_o-28" vertex="1">
          <mxGeometry width="309" height="39.329577464788734" as="geometry" />
        </mxCell>
        <mxCell id="Tz6aEU4ManMyac2rpAqn-141" value="" style="sketch=0;outlineConnect=0;fontColor=#232F3E;gradientColor=none;fillColor=#FFFFFF;strokeColor=none;dashed=0;verticalLabelPosition=bottom;verticalAlign=top;align=center;html=1;fontSize=12;fontStyle=0;aspect=fixed;pointerEvents=1;shape=mxgraph.aws4.gear;rounded=1;" parent="BZBJQn5B5M7l6MrAMs_o-28" vertex="1">
          <mxGeometry x="286" y="11.092957746478874" width="17" height="17" as="geometry" />
        </mxCell>
        <mxCell id="Tz6aEU4ManMyac2rpAqn-142" value="Редактировать аукцион" style="text;html=1;align=center;verticalAlign=middle;whiteSpace=wrap;rounded=1;fontSize=13;fontColor=#FFFFFF;strokeColor=none;" parent="BZBJQn5B5M7l6MrAMs_o-28" vertex="1">
          <mxGeometry x="3" y="4.538028169014084" width="160" height="30.253521126760564" as="geometry" />
        </mxCell>
        <mxCell id="BZBJQn5B5M7l6MrAMs_o-29" value="" style="group" parent="qWpF3jZFovPxBTXFjTdf-22" vertex="1" connectable="0">
          <mxGeometry x="14" y="155.30140845070423" width="309" height="39.329577464788734" as="geometry" />
        </mxCell>
        <mxCell id="Tz6aEU4ManMyac2rpAqn-143" value="" style="rounded=1;whiteSpace=wrap;html=1;fillColor=#1C57CD;strokeColor=none;" parent="BZBJQn5B5M7l6MrAMs_o-29" vertex="1">
          <mxGeometry width="309" height="39.329577464788734" as="geometry" />
        </mxCell>
        <mxCell id="Tz6aEU4ManMyac2rpAqn-144" value="" style="sketch=0;outlineConnect=0;fontColor=#232F3E;gradientColor=none;fillColor=#FFFFFF;strokeColor=none;dashed=0;verticalLabelPosition=bottom;verticalAlign=top;align=center;html=1;fontSize=12;fontStyle=0;aspect=fixed;pointerEvents=1;shape=mxgraph.aws4.gear;rounded=1;" parent="BZBJQn5B5M7l6MrAMs_o-29" vertex="1">
          <mxGeometry x="286" y="11.092957746478874" width="17" height="17" as="geometry" />
        </mxCell>
        <mxCell id="Tz6aEU4ManMyac2rpAqn-145" value="Обработать новую заявку на аукцион" style="text;html=1;align=center;verticalAlign=middle;whiteSpace=wrap;rounded=1;fontSize=13;fontColor=#FFFFFF;strokeColor=none;" parent="BZBJQn5B5M7l6MrAMs_o-29" vertex="1">
          <mxGeometry x="3" y="4.538028169014084" width="241" height="30.253521126760564" as="geometry" />
        </mxCell>
        <mxCell id="BZBJQn5B5M7l6MrAMs_o-30" value="" style="group" parent="qWpF3jZFovPxBTXFjTdf-22" vertex="1" connectable="0">
          <mxGeometry x="14" y="207.74084507042252" width="309" height="39.329577464788734" as="geometry" />
        </mxCell>
        <mxCell id="Tz6aEU4ManMyac2rpAqn-146" value="" style="rounded=1;whiteSpace=wrap;html=1;fillColor=#1C57CD;strokeColor=none;" parent="BZBJQn5B5M7l6MrAMs_o-30" vertex="1">
          <mxGeometry width="309" height="39.329577464788734" as="geometry" />
        </mxCell>
        <mxCell id="Tz6aEU4ManMyac2rpAqn-147" value="" style="sketch=0;outlineConnect=0;fontColor=#232F3E;gradientColor=none;fillColor=#FFFFFF;strokeColor=none;dashed=0;verticalLabelPosition=bottom;verticalAlign=top;align=center;html=1;fontSize=12;fontStyle=0;aspect=fixed;pointerEvents=1;shape=mxgraph.aws4.gear;rounded=1;" parent="BZBJQn5B5M7l6MrAMs_o-30" vertex="1">
          <mxGeometry x="286" y="11.092957746478874" width="17" height="17" as="geometry" />
        </mxCell>
        <mxCell id="Tz6aEU4ManMyac2rpAqn-148" value="Обновление ставок аукциона" style="text;html=1;align=center;verticalAlign=middle;whiteSpace=wrap;rounded=1;fontSize=13;fontColor=#FFFFFF;strokeColor=none;" parent="BZBJQn5B5M7l6MrAMs_o-30" vertex="1">
          <mxGeometry x="4" y="4.538028169014084" width="189" height="30.253521126760564" as="geometry" />
        </mxCell>
        <mxCell id="BZBJQn5B5M7l6MrAMs_o-37" value="" style="group" parent="qWpF3jZFovPxBTXFjTdf-22" vertex="1" connectable="0">
          <mxGeometry x="14" y="258.16338028169014" width="309" height="39.329577464788734" as="geometry" />
        </mxCell>
        <mxCell id="cKbgiC5qh_IXnBO1eU4K-37" value="" style="rounded=1;whiteSpace=wrap;html=1;fillColor=#1C57CD;strokeColor=none;" parent="BZBJQn5B5M7l6MrAMs_o-37" vertex="1">
          <mxGeometry x="-2" y="1.008450704225352" width="309" height="39.329577464788734" as="geometry" />
        </mxCell>
        <mxCell id="cKbgiC5qh_IXnBO1eU4K-38" value="" style="sketch=0;outlineConnect=0;fontColor=#232F3E;gradientColor=none;fillColor=#FFFFFF;strokeColor=none;dashed=0;verticalLabelPosition=bottom;verticalAlign=top;align=center;html=1;fontSize=12;fontStyle=0;aspect=fixed;pointerEvents=1;shape=mxgraph.aws4.gear;rounded=1;" parent="BZBJQn5B5M7l6MrAMs_o-37" vertex="1">
          <mxGeometry x="280" y="11.092957746478874" width="17" height="17" as="geometry" />
        </mxCell>
        <mxCell id="cKbgiC5qh_IXnBO1eU4K-39" value="Обновление статуса аукциона" style="text;html=1;align=center;verticalAlign=middle;whiteSpace=wrap;rounded=1;fontSize=13;fontColor=#FFFFFF;strokeColor=none;" parent="BZBJQn5B5M7l6MrAMs_o-37" vertex="1">
          <mxGeometry y="4.538028169014084" width="202" height="30.253521126760564" as="geometry" />
        </mxCell>
        <mxCell id="BZBJQn5B5M7l6MrAMs_o-38" value="" style="group" parent="qWpF3jZFovPxBTXFjTdf-22" vertex="1" connectable="0">
          <mxGeometry x="14" y="307.5774647887324" width="309" height="39.329577464788734" as="geometry" />
        </mxCell>
        <mxCell id="cKbgiC5qh_IXnBO1eU4K-19" value="" style="rounded=1;whiteSpace=wrap;html=1;fillColor=#1C57CD;strokeColor=none;" parent="BZBJQn5B5M7l6MrAMs_o-38" vertex="1">
          <mxGeometry width="309" height="39.329577464788734" as="geometry" />
        </mxCell>
        <mxCell id="cKbgiC5qh_IXnBO1eU4K-20" value="" style="sketch=0;outlineConnect=0;fontColor=#232F3E;gradientColor=none;fillColor=#FFFFFF;strokeColor=none;dashed=0;verticalLabelPosition=bottom;verticalAlign=top;align=center;html=1;fontSize=12;fontStyle=0;aspect=fixed;pointerEvents=1;shape=mxgraph.aws4.gear;rounded=1;" parent="BZBJQn5B5M7l6MrAMs_o-38" vertex="1">
          <mxGeometry x="280" y="11.092957746478874" width="17" height="17" as="geometry" />
        </mxCell>
        <mxCell id="cKbgiC5qh_IXnBO1eU4K-21" value="Обновление ставок аукциона" style="text;html=1;align=center;verticalAlign=middle;whiteSpace=wrap;rounded=1;fontSize=13;fontColor=#FFFFFF;strokeColor=none;" parent="BZBJQn5B5M7l6MrAMs_o-38" vertex="1">
          <mxGeometry y="4.538028169014084" width="202" height="30.253521126760564" as="geometry" />
        </mxCell>
        <mxCell id="qWpF3jZFovPxBTXFjTdf-25" value="" style="group" parent="1" vertex="1" connectable="0">
          <mxGeometry x="3900" y="879" width="331" height="463" as="geometry" />
        </mxCell>
        <mxCell id="qWpF3jZFovPxBTXFjTdf-26" value="" style="rounded=1;whiteSpace=wrap;html=1;arcSize=5;fillColor=#f5f5f5;strokeColor=#1C57CD;strokeWidth=3;" parent="qWpF3jZFovPxBTXFjTdf-25" vertex="1">
          <mxGeometry width="331" height="463" as="geometry" />
        </mxCell>
        <mxCell id="qWpF3jZFovPxBTXFjTdf-27" value="&lt;font style=&quot;font-size: 23px;&quot;&gt;Сервис платежей&lt;/font&gt;" style="text;html=1;align=center;verticalAlign=middle;whiteSpace=wrap;rounded=1;fontSize=13;container=1;" parent="qWpF3jZFovPxBTXFjTdf-25" vertex="1">
          <mxGeometry x="3" y="5" width="322" height="42.57" as="geometry" />
        </mxCell>
        <mxCell id="BZBJQn5B5M7l6MrAMs_o-22" value="" style="group" parent="qWpF3jZFovPxBTXFjTdf-25" vertex="1" connectable="0">
          <mxGeometry x="10" y="58" width="309" height="39" as="geometry" />
        </mxCell>
        <mxCell id="Tz6aEU4ManMyac2rpAqn-106" value="" style="rounded=1;whiteSpace=wrap;html=1;fillColor=#1C57CD;strokeColor=none;" parent="BZBJQn5B5M7l6MrAMs_o-22" vertex="1">
          <mxGeometry width="309" height="39" as="geometry" />
        </mxCell>
        <mxCell id="Tz6aEU4ManMyac2rpAqn-107" value="" style="sketch=0;outlineConnect=0;fontColor=#232F3E;gradientColor=none;fillColor=#FFFFFF;strokeColor=none;dashed=0;verticalLabelPosition=bottom;verticalAlign=top;align=center;html=1;fontSize=12;fontStyle=0;aspect=fixed;pointerEvents=1;shape=mxgraph.aws4.gear;rounded=1;" parent="BZBJQn5B5M7l6MrAMs_o-22" vertex="1">
          <mxGeometry x="286" y="11" width="17" height="17" as="geometry" />
        </mxCell>
        <mxCell id="Tz6aEU4ManMyac2rpAqn-108" value="Определить способ оплаты" style="text;html=1;align=center;verticalAlign=middle;whiteSpace=wrap;rounded=1;fontSize=13;fontColor=#FFFFFF;strokeColor=none;" parent="BZBJQn5B5M7l6MrAMs_o-22" vertex="1">
          <mxGeometry x="7" y="4.5" width="173" height="30" as="geometry" />
        </mxCell>
        <mxCell id="BZBJQn5B5M7l6MrAMs_o-52" value="" style="group" parent="qWpF3jZFovPxBTXFjTdf-25" vertex="1" connectable="0">
          <mxGeometry x="10" y="109" width="309" height="39" as="geometry" />
        </mxCell>
        <mxCell id="Tz6aEU4ManMyac2rpAqn-109" value="" style="rounded=1;whiteSpace=wrap;html=1;fillColor=#1C57CD;strokeColor=none;" parent="BZBJQn5B5M7l6MrAMs_o-52" vertex="1">
          <mxGeometry x="-3.5" width="309" height="39" as="geometry" />
        </mxCell>
        <mxCell id="Tz6aEU4ManMyac2rpAqn-110" value="" style="sketch=0;outlineConnect=0;fontColor=#232F3E;gradientColor=none;fillColor=#FFFFFF;strokeColor=none;dashed=0;verticalLabelPosition=bottom;verticalAlign=top;align=center;html=1;fontSize=12;fontStyle=0;aspect=fixed;pointerEvents=1;shape=mxgraph.aws4.gear;rounded=1;" parent="BZBJQn5B5M7l6MrAMs_o-52" vertex="1">
          <mxGeometry x="280" y="11" width="17" height="17" as="geometry" />
        </mxCell>
        <mxCell id="Tz6aEU4ManMyac2rpAqn-111" value="Инициировать платёжную операцию" style="text;html=1;align=center;verticalAlign=middle;whiteSpace=wrap;rounded=1;fontSize=13;fontColor=#FFFFFF;strokeColor=none;" parent="BZBJQn5B5M7l6MrAMs_o-52" vertex="1">
          <mxGeometry y="4.5" width="243" height="30" as="geometry" />
        </mxCell>
        <mxCell id="BZBJQn5B5M7l6MrAMs_o-50" value="" style="group" parent="qWpF3jZFovPxBTXFjTdf-25" vertex="1" connectable="0">
          <mxGeometry x="5" y="159" width="309" height="39" as="geometry" />
        </mxCell>
        <mxCell id="Tz6aEU4ManMyac2rpAqn-118" value="" style="rounded=1;whiteSpace=wrap;html=1;fillColor=#1C57CD;strokeColor=none;" parent="BZBJQn5B5M7l6MrAMs_o-50" vertex="1">
          <mxGeometry x="6.84493670886076" width="302.1550632911393" height="39" as="geometry" />
        </mxCell>
        <mxCell id="Tz6aEU4ManMyac2rpAqn-119" value="" style="sketch=0;outlineConnect=0;fontColor=#232F3E;gradientColor=none;fillColor=#FFFFFF;strokeColor=none;dashed=0;verticalLabelPosition=bottom;verticalAlign=top;align=center;html=1;fontSize=12;fontStyle=0;aspect=fixed;pointerEvents=1;shape=mxgraph.aws4.gear;rounded=1;" parent="BZBJQn5B5M7l6MrAMs_o-50" vertex="1">
          <mxGeometry x="280.64240506329116" y="11" width="16.62341772151899" height="16.62341772151899" as="geometry" />
        </mxCell>
        <mxCell id="Tz6aEU4ManMyac2rpAqn-120" value="Авторизация платёжной операции" style="text;html=1;align=center;verticalAlign=middle;whiteSpace=wrap;rounded=1;fontSize=13;fontColor=#FFFFFF;strokeColor=none;container=1;" parent="BZBJQn5B5M7l6MrAMs_o-50" vertex="1">
          <mxGeometry y="4.5" width="237.61708860759495" height="30" as="geometry" />
        </mxCell>
        <mxCell id="BZBJQn5B5M7l6MrAMs_o-49" value="" style="group" parent="qWpF3jZFovPxBTXFjTdf-25" vertex="1" connectable="0">
          <mxGeometry x="10" y="207" width="309" height="39" as="geometry" />
        </mxCell>
        <mxCell id="Tz6aEU4ManMyac2rpAqn-121" value="" style="rounded=1;whiteSpace=wrap;html=1;fillColor=#1C57CD;strokeColor=none;" parent="BZBJQn5B5M7l6MrAMs_o-49" vertex="1">
          <mxGeometry width="309" height="39" as="geometry" />
        </mxCell>
        <mxCell id="Tz6aEU4ManMyac2rpAqn-122" value="" style="sketch=0;outlineConnect=0;fontColor=#232F3E;gradientColor=none;fillColor=#FFFFFF;strokeColor=none;dashed=0;verticalLabelPosition=bottom;verticalAlign=top;align=center;html=1;fontSize=12;fontStyle=0;aspect=fixed;pointerEvents=1;shape=mxgraph.aws4.gear;rounded=1;" parent="BZBJQn5B5M7l6MrAMs_o-49" vertex="1">
          <mxGeometry x="280" y="11" width="17" height="17" as="geometry" />
        </mxCell>
        <mxCell id="Tz6aEU4ManMyac2rpAqn-123" value="Предоставить список и статус операций" style="text;html=1;align=center;verticalAlign=middle;whiteSpace=wrap;rounded=1;fontSize=13;fontColor=#FFFFFF;strokeColor=none;" parent="BZBJQn5B5M7l6MrAMs_o-49" vertex="1">
          <mxGeometry y="4.5" width="263" height="30" as="geometry" />
        </mxCell>
        <mxCell id="BZBJQn5B5M7l6MrAMs_o-47" value="" style="group" parent="qWpF3jZFovPxBTXFjTdf-25" vertex="1" connectable="0">
          <mxGeometry x="10" y="258" width="309" height="39" as="geometry" />
        </mxCell>
        <mxCell id="Tz6aEU4ManMyac2rpAqn-127" value="" style="rounded=1;whiteSpace=wrap;html=1;fillColor=#1C57CD;strokeColor=none;" parent="BZBJQn5B5M7l6MrAMs_o-47" vertex="1">
          <mxGeometry width="309" height="39" as="geometry" />
        </mxCell>
        <mxCell id="Tz6aEU4ManMyac2rpAqn-128" value="" style="sketch=0;outlineConnect=0;fontColor=#232F3E;gradientColor=none;fillColor=#FFFFFF;strokeColor=none;dashed=0;verticalLabelPosition=bottom;verticalAlign=top;align=center;html=1;fontSize=12;fontStyle=0;aspect=fixed;pointerEvents=1;shape=mxgraph.aws4.gear;rounded=1;" parent="BZBJQn5B5M7l6MrAMs_o-47" vertex="1">
          <mxGeometry x="280" y="11" width="17" height="17" as="geometry" />
        </mxCell>
        <mxCell id="Tz6aEU4ManMyac2rpAqn-129" value="Запросить статус операции" style="text;html=1;align=center;verticalAlign=middle;whiteSpace=wrap;rounded=1;fontSize=13;fontColor=#FFFFFF;strokeColor=none;" parent="BZBJQn5B5M7l6MrAMs_o-47" vertex="1">
          <mxGeometry x="3" y="6" width="179" height="30" as="geometry" />
        </mxCell>
        <mxCell id="BZBJQn5B5M7l6MrAMs_o-46" value="" style="group" parent="qWpF3jZFovPxBTXFjTdf-25" vertex="1" connectable="0">
          <mxGeometry x="10" y="309" width="309" height="39" as="geometry" />
        </mxCell>
        <mxCell id="Tz6aEU4ManMyac2rpAqn-130" value="" style="rounded=1;whiteSpace=wrap;html=1;fillColor=#1C57CD;strokeColor=none;" parent="BZBJQn5B5M7l6MrAMs_o-46" vertex="1">
          <mxGeometry width="309" height="39" as="geometry" />
        </mxCell>
        <mxCell id="Tz6aEU4ManMyac2rpAqn-131" value="" style="sketch=0;outlineConnect=0;fontColor=#232F3E;gradientColor=none;fillColor=#FFFFFF;strokeColor=none;dashed=0;verticalLabelPosition=bottom;verticalAlign=top;align=center;html=1;fontSize=12;fontStyle=0;aspect=fixed;pointerEvents=1;shape=mxgraph.aws4.gear;rounded=1;" parent="BZBJQn5B5M7l6MrAMs_o-46" vertex="1">
          <mxGeometry x="280" y="11" width="17" height="17" as="geometry" />
        </mxCell>
        <mxCell id="Tz6aEU4ManMyac2rpAqn-132" value="Предоставить статус операции" style="text;html=1;align=center;verticalAlign=middle;whiteSpace=wrap;rounded=1;fontSize=13;fontColor=#FFFFFF;strokeColor=none;" parent="BZBJQn5B5M7l6MrAMs_o-46" vertex="1">
          <mxGeometry y="4.5" width="207" height="30" as="geometry" />
        </mxCell>
        <mxCell id="BZBJQn5B5M7l6MrAMs_o-48" value="" style="group" parent="qWpF3jZFovPxBTXFjTdf-25" vertex="1" connectable="0">
          <mxGeometry x="12" y="360" width="309" height="39" as="geometry" />
        </mxCell>
        <mxCell id="Tz6aEU4ManMyac2rpAqn-124" value="" style="rounded=1;whiteSpace=wrap;html=1;fillColor=#1C57CD;strokeColor=none;" parent="BZBJQn5B5M7l6MrAMs_o-48" vertex="1">
          <mxGeometry width="309" height="39" as="geometry" />
        </mxCell>
        <mxCell id="Tz6aEU4ManMyac2rpAqn-125" value="" style="sketch=0;outlineConnect=0;fontColor=#232F3E;gradientColor=none;fillColor=#FFFFFF;strokeColor=none;dashed=0;verticalLabelPosition=bottom;verticalAlign=top;align=center;html=1;fontSize=12;fontStyle=0;aspect=fixed;pointerEvents=1;shape=mxgraph.aws4.gear;rounded=1;" parent="BZBJQn5B5M7l6MrAMs_o-48" vertex="1">
          <mxGeometry x="280" y="11" width="17" height="17" as="geometry" />
        </mxCell>
        <mxCell id="Tz6aEU4ManMyac2rpAqn-126" value="Инициировать отмену транзакции" style="text;html=1;align=center;verticalAlign=middle;whiteSpace=wrap;rounded=1;fontSize=13;fontColor=#FFFFFF;strokeColor=none;" parent="BZBJQn5B5M7l6MrAMs_o-48" vertex="1">
          <mxGeometry x="2" y="4" width="223" height="30" as="geometry" />
        </mxCell>
        <mxCell id="BZBJQn5B5M7l6MrAMs_o-35" value="" style="group" parent="qWpF3jZFovPxBTXFjTdf-25" vertex="1" connectable="0">
          <mxGeometry x="11" y="410" width="309" height="39" as="geometry" />
        </mxCell>
        <mxCell id="cKbgiC5qh_IXnBO1eU4K-10" value="" style="rounded=1;whiteSpace=wrap;html=1;fillColor=#1C57CD;strokeColor=none;" parent="BZBJQn5B5M7l6MrAMs_o-35" vertex="1">
          <mxGeometry width="309" height="39" as="geometry" />
        </mxCell>
        <mxCell id="cKbgiC5qh_IXnBO1eU4K-11" value="" style="sketch=0;outlineConnect=0;fontColor=#232F3E;gradientColor=none;fillColor=#FFFFFF;strokeColor=none;dashed=0;verticalLabelPosition=bottom;verticalAlign=top;align=center;html=1;fontSize=12;fontStyle=0;aspect=fixed;pointerEvents=1;shape=mxgraph.aws4.gear;rounded=1;" parent="BZBJQn5B5M7l6MrAMs_o-35" vertex="1">
          <mxGeometry x="286" y="11" width="17" height="17" as="geometry" />
        </mxCell>
        <mxCell id="cKbgiC5qh_IXnBO1eU4K-12" value="Сгенерировать отчёт по продажам" style="text;html=1;align=center;verticalAlign=middle;whiteSpace=wrap;rounded=1;fontSize=13;fontColor=#FFFFFF;strokeColor=none;" parent="BZBJQn5B5M7l6MrAMs_o-35" vertex="1">
          <mxGeometry x="6" y="4.5" width="226" height="30" as="geometry" />
        </mxCell>
        <mxCell id="qWpF3jZFovPxBTXFjTdf-28" value="" style="group" parent="1" vertex="1" connectable="0">
          <mxGeometry x="2466" y="880" width="331" height="315" as="geometry" />
        </mxCell>
        <mxCell id="qWpF3jZFovPxBTXFjTdf-29" value="" style="rounded=1;whiteSpace=wrap;html=1;arcSize=5;fillColor=#f5f5f5;strokeColor=#1C57CD;strokeWidth=3;" parent="qWpF3jZFovPxBTXFjTdf-28" vertex="1">
          <mxGeometry width="331" height="315" as="geometry" />
        </mxCell>
        <mxCell id="qWpF3jZFovPxBTXFjTdf-30" value="&lt;font style=&quot;font-size: 23px;&quot;&gt;Сервис товаров&lt;/font&gt;" style="text;html=1;align=center;verticalAlign=middle;whiteSpace=wrap;rounded=1;fontSize=13;container=1;" parent="qWpF3jZFovPxBTXFjTdf-28" vertex="1">
          <mxGeometry x="3" y="4" width="319" height="41.78" as="geometry" />
        </mxCell>
        <mxCell id="BZBJQn5B5M7l6MrAMs_o-34" value="" style="group" parent="qWpF3jZFovPxBTXFjTdf-28" vertex="1" connectable="0">
          <mxGeometry x="11" y="49" width="309" height="39" as="geometry" />
        </mxCell>
        <mxCell id="cKbgiC5qh_IXnBO1eU4K-7" value="" style="rounded=1;whiteSpace=wrap;html=1;fillColor=#1C57CD;strokeColor=none;" parent="BZBJQn5B5M7l6MrAMs_o-34" vertex="1">
          <mxGeometry width="309" height="39" as="geometry" />
        </mxCell>
        <mxCell id="cKbgiC5qh_IXnBO1eU4K-8" value="" style="sketch=0;outlineConnect=0;fontColor=#232F3E;gradientColor=none;fillColor=#FFFFFF;strokeColor=none;dashed=0;verticalLabelPosition=bottom;verticalAlign=top;align=center;html=1;fontSize=12;fontStyle=0;aspect=fixed;pointerEvents=1;shape=mxgraph.aws4.gear;rounded=1;" parent="BZBJQn5B5M7l6MrAMs_o-34" vertex="1">
          <mxGeometry x="286" y="11" width="17" height="17" as="geometry" />
        </mxCell>
        <mxCell id="cKbgiC5qh_IXnBO1eU4K-9" value="Фильтрация и сортировка результатов" style="text;html=1;align=center;verticalAlign=middle;whiteSpace=wrap;rounded=1;fontSize=13;fontColor=#FFFFFF;strokeColor=none;" parent="BZBJQn5B5M7l6MrAMs_o-34" vertex="1">
          <mxGeometry x="5" y="4.5" width="248" height="30" as="geometry" />
        </mxCell>
        <mxCell id="BZBJQn5B5M7l6MrAMs_o-32" value="" style="group" parent="qWpF3jZFovPxBTXFjTdf-28" vertex="1" connectable="0">
          <mxGeometry x="12" y="95" width="309" height="39" as="geometry" />
        </mxCell>
        <mxCell id="cKbgiC5qh_IXnBO1eU4K-1" value="" style="rounded=1;whiteSpace=wrap;html=1;fillColor=#1C57CD;strokeColor=none;" parent="BZBJQn5B5M7l6MrAMs_o-32" vertex="1">
          <mxGeometry width="309" height="39" as="geometry" />
        </mxCell>
        <mxCell id="cKbgiC5qh_IXnBO1eU4K-2" value="" style="sketch=0;outlineConnect=0;fontColor=#232F3E;gradientColor=none;fillColor=#FFFFFF;strokeColor=none;dashed=0;verticalLabelPosition=bottom;verticalAlign=top;align=center;html=1;fontSize=12;fontStyle=0;aspect=fixed;pointerEvents=1;shape=mxgraph.aws4.gear;rounded=1;" parent="BZBJQn5B5M7l6MrAMs_o-32" vertex="1">
          <mxGeometry x="286" y="11" width="17" height="17" as="geometry" />
        </mxCell>
        <mxCell id="cKbgiC5qh_IXnBO1eU4K-3" value="Поиск товаров" style="text;html=1;align=center;verticalAlign=middle;whiteSpace=wrap;rounded=1;fontSize=13;fontColor=#FFFFFF;strokeColor=none;" parent="BZBJQn5B5M7l6MrAMs_o-32" vertex="1">
          <mxGeometry x="3" y="4.5" width="99" height="30" as="geometry" />
        </mxCell>
        <mxCell id="BZBJQn5B5M7l6MrAMs_o-23" value="" style="group" parent="qWpF3jZFovPxBTXFjTdf-28" vertex="1" connectable="0">
          <mxGeometry x="13" y="144" width="309" height="39" as="geometry" />
        </mxCell>
        <mxCell id="Tz6aEU4ManMyac2rpAqn-54" value="" style="rounded=1;whiteSpace=wrap;html=1;fillColor=#1C57CD;strokeColor=none;" parent="BZBJQn5B5M7l6MrAMs_o-23" vertex="1">
          <mxGeometry width="309" height="39" as="geometry" />
        </mxCell>
        <mxCell id="Tz6aEU4ManMyac2rpAqn-55" value="" style="sketch=0;outlineConnect=0;fontColor=#232F3E;gradientColor=none;fillColor=#FFFFFF;strokeColor=none;dashed=0;verticalLabelPosition=bottom;verticalAlign=top;align=center;html=1;fontSize=12;fontStyle=0;aspect=fixed;pointerEvents=1;shape=mxgraph.aws4.gear;rounded=1;" parent="BZBJQn5B5M7l6MrAMs_o-23" vertex="1">
          <mxGeometry x="286" y="11" width="17" height="17" as="geometry" />
        </mxCell>
        <mxCell id="Tz6aEU4ManMyac2rpAqn-56" value="Добавить товар в профиль пользователя" style="text;html=1;align=center;verticalAlign=middle;whiteSpace=wrap;rounded=1;fontSize=13;fontColor=#FFFFFF;strokeColor=none;" parent="BZBJQn5B5M7l6MrAMs_o-23" vertex="1">
          <mxGeometry x="8" y="4" width="262" height="30" as="geometry" />
        </mxCell>
        <mxCell id="BZBJQn5B5M7l6MrAMs_o-13" value="" style="group" parent="qWpF3jZFovPxBTXFjTdf-28" vertex="1" connectable="0">
          <mxGeometry x="14" y="193" width="309" height="39" as="geometry" />
        </mxCell>
        <mxCell id="Tz6aEU4ManMyac2rpAqn-69" value="" style="rounded=1;whiteSpace=wrap;html=1;fillColor=#1C57CD;strokeColor=none;" parent="BZBJQn5B5M7l6MrAMs_o-13" vertex="1">
          <mxGeometry width="309" height="39" as="geometry" />
        </mxCell>
        <mxCell id="Tz6aEU4ManMyac2rpAqn-70" value="" style="sketch=0;outlineConnect=0;fontColor=#232F3E;gradientColor=none;fillColor=default;strokeColor=none;dashed=0;verticalLabelPosition=bottom;verticalAlign=top;align=center;html=1;fontSize=12;fontStyle=0;aspect=fixed;pointerEvents=1;shape=mxgraph.aws4.gear;rounded=1;" parent="BZBJQn5B5M7l6MrAMs_o-13" vertex="1">
          <mxGeometry x="282" y="11" width="17" height="17" as="geometry" />
        </mxCell>
        <mxCell id="Tz6aEU4ManMyac2rpAqn-71" value="Удалить товар пользователя" style="text;html=1;align=center;verticalAlign=middle;whiteSpace=wrap;rounded=1;fontSize=13;fontColor=#FFFFFF;strokeColor=none;" parent="BZBJQn5B5M7l6MrAMs_o-13" vertex="1">
          <mxGeometry x="2" y="4.5" width="188" height="30" as="geometry" />
        </mxCell>
        <mxCell id="BZBJQn5B5M7l6MrAMs_o-25" value="" style="group" parent="qWpF3jZFovPxBTXFjTdf-28" vertex="1" connectable="0">
          <mxGeometry x="14" y="242" width="309" height="39" as="geometry" />
        </mxCell>
        <mxCell id="Tz6aEU4ManMyac2rpAqn-60" value="" style="rounded=1;whiteSpace=wrap;html=1;fillColor=#1C57CD;strokeColor=none;" parent="BZBJQn5B5M7l6MrAMs_o-25" vertex="1">
          <mxGeometry width="309" height="39" as="geometry" />
        </mxCell>
        <mxCell id="Tz6aEU4ManMyac2rpAqn-61" value="" style="sketch=0;outlineConnect=0;fontColor=#232F3E;gradientColor=none;fillColor=#FFFFFF;strokeColor=none;dashed=0;verticalLabelPosition=bottom;verticalAlign=top;align=center;html=1;fontSize=12;fontStyle=0;aspect=fixed;pointerEvents=1;shape=mxgraph.aws4.gear;rounded=1;" parent="BZBJQn5B5M7l6MrAMs_o-25" vertex="1">
          <mxGeometry x="286" y="11" width="17" height="17" as="geometry" />
        </mxCell>
        <mxCell id="Tz6aEU4ManMyac2rpAqn-62" value="Изменить товар пользователя" style="text;html=1;align=center;verticalAlign=middle;whiteSpace=wrap;rounded=1;fontSize=13;fontColor=#FFFFFF;strokeColor=none;" parent="BZBJQn5B5M7l6MrAMs_o-25" vertex="1">
          <mxGeometry x="7" y="3" width="195" height="30" as="geometry" />
        </mxCell>
        <mxCell id="qWpF3jZFovPxBTXFjTdf-32" value="" style="group" parent="1" vertex="1" connectable="0">
          <mxGeometry x="2112" y="884" width="331" height="352" as="geometry" />
        </mxCell>
        <mxCell id="qWpF3jZFovPxBTXFjTdf-33" value="" style="rounded=1;whiteSpace=wrap;html=1;arcSize=5;fillColor=#f5f5f5;strokeColor=#1C57CD;strokeWidth=3;container=1;" parent="qWpF3jZFovPxBTXFjTdf-32" vertex="1">
          <mxGeometry x="-1" y="-5" width="331" height="352" as="geometry" />
        </mxCell>
        <mxCell id="qWpF3jZFovPxBTXFjTdf-15" value="" style="group" parent="qWpF3jZFovPxBTXFjTdf-33" vertex="1" connectable="0">
          <mxGeometry x="13" y="51" width="309" height="39" as="geometry" />
        </mxCell>
        <mxCell id="qWpF3jZFovPxBTXFjTdf-16" value="" style="rounded=1;whiteSpace=wrap;html=1;fillColor=#1C57CD;strokeColor=none;" parent="qWpF3jZFovPxBTXFjTdf-15" vertex="1">
          <mxGeometry width="309" height="39" as="geometry" />
        </mxCell>
        <mxCell id="qWpF3jZFovPxBTXFjTdf-17" value="" style="sketch=0;outlineConnect=0;fontColor=#232F3E;gradientColor=none;fillColor=#FFFFFF;strokeColor=none;dashed=0;verticalLabelPosition=bottom;verticalAlign=top;align=center;html=1;fontSize=12;fontStyle=0;aspect=fixed;pointerEvents=1;shape=mxgraph.aws4.gear;rounded=1;" parent="qWpF3jZFovPxBTXFjTdf-15" vertex="1">
          <mxGeometry x="286" y="11" width="17" height="17" as="geometry" />
        </mxCell>
        <mxCell id="qWpF3jZFovPxBTXFjTdf-18" value="Фильтрация и сортировка результатов" style="text;html=1;align=center;verticalAlign=middle;whiteSpace=wrap;rounded=1;fontSize=13;fontColor=#FFFFFF;strokeColor=none;" parent="qWpF3jZFovPxBTXFjTdf-15" vertex="1">
          <mxGeometry x="5" y="4.5" width="248" height="30" as="geometry" />
        </mxCell>
        <mxCell id="BZBJQn5B5M7l6MrAMs_o-33" value="" style="group" parent="qWpF3jZFovPxBTXFjTdf-33" vertex="1" connectable="0">
          <mxGeometry x="15" y="97" width="309" height="39" as="geometry" />
        </mxCell>
        <mxCell id="cKbgiC5qh_IXnBO1eU4K-4" value="" style="rounded=1;whiteSpace=wrap;html=1;fillColor=#1C57CD;strokeColor=none;" parent="BZBJQn5B5M7l6MrAMs_o-33" vertex="1">
          <mxGeometry width="309" height="39" as="geometry" />
        </mxCell>
        <mxCell id="cKbgiC5qh_IXnBO1eU4K-5" value="" style="sketch=0;outlineConnect=0;fontColor=#232F3E;gradientColor=none;fillColor=#FFFFFF;strokeColor=none;dashed=0;verticalLabelPosition=bottom;verticalAlign=top;align=center;html=1;fontSize=12;fontStyle=0;aspect=fixed;pointerEvents=1;shape=mxgraph.aws4.gear;rounded=1;" parent="BZBJQn5B5M7l6MrAMs_o-33" vertex="1">
          <mxGeometry x="286" y="11" width="17" height="17" as="geometry" />
        </mxCell>
        <mxCell id="cKbgiC5qh_IXnBO1eU4K-6" value="Поиск услуг" style="text;html=1;align=center;verticalAlign=middle;whiteSpace=wrap;rounded=1;fontSize=13;fontColor=#FFFFFF;strokeColor=none;" parent="BZBJQn5B5M7l6MrAMs_o-33" vertex="1">
          <mxGeometry x="4" y="4" width="81" height="30" as="geometry" />
        </mxCell>
        <mxCell id="BZBJQn5B5M7l6MrAMs_o-24" value="" style="group" parent="qWpF3jZFovPxBTXFjTdf-33" vertex="1" connectable="0">
          <mxGeometry x="13" y="143" width="309" height="39" as="geometry" />
        </mxCell>
        <mxCell id="Tz6aEU4ManMyac2rpAqn-57" value="" style="rounded=1;whiteSpace=wrap;html=1;fillColor=#1C57CD;strokeColor=none;" parent="BZBJQn5B5M7l6MrAMs_o-24" vertex="1">
          <mxGeometry width="309" height="39" as="geometry" />
        </mxCell>
        <mxCell id="Tz6aEU4ManMyac2rpAqn-58" value="" style="sketch=0;outlineConnect=0;fontColor=#232F3E;gradientColor=none;fillColor=#FFFFFF;strokeColor=none;dashed=0;verticalLabelPosition=bottom;verticalAlign=top;align=center;html=1;fontSize=12;fontStyle=0;aspect=fixed;pointerEvents=1;shape=mxgraph.aws4.gear;rounded=1;" parent="BZBJQn5B5M7l6MrAMs_o-24" vertex="1">
          <mxGeometry x="286" y="10" width="17" height="17" as="geometry" />
        </mxCell>
        <mxCell id="Tz6aEU4ManMyac2rpAqn-59" value="Добавить услугу в профиль пользователя" style="text;html=1;align=center;verticalAlign=middle;whiteSpace=wrap;rounded=1;fontSize=13;fontColor=#FFFFFF;strokeColor=none;" parent="BZBJQn5B5M7l6MrAMs_o-24" vertex="1">
          <mxGeometry x="2" y="5" width="273" height="30" as="geometry" />
        </mxCell>
        <mxCell id="BZBJQn5B5M7l6MrAMs_o-12" value="" style="group" parent="qWpF3jZFovPxBTXFjTdf-33" vertex="1" connectable="0">
          <mxGeometry x="14" y="189" width="309" height="39" as="geometry" />
        </mxCell>
        <mxCell id="Tz6aEU4ManMyac2rpAqn-66" value="" style="rounded=1;whiteSpace=wrap;html=1;fillColor=#1C57CD;strokeColor=none;" parent="BZBJQn5B5M7l6MrAMs_o-12" vertex="1">
          <mxGeometry width="309" height="39" as="geometry" />
        </mxCell>
        <mxCell id="Tz6aEU4ManMyac2rpAqn-67" value="" style="sketch=0;outlineConnect=0;fontColor=#232F3E;gradientColor=none;fillColor=default;strokeColor=none;dashed=0;verticalLabelPosition=bottom;verticalAlign=top;align=center;html=1;fontSize=12;fontStyle=0;aspect=fixed;pointerEvents=1;shape=mxgraph.aws4.gear;rounded=1;" parent="BZBJQn5B5M7l6MrAMs_o-12" vertex="1">
          <mxGeometry x="282" y="11" width="17" height="17" as="geometry" />
        </mxCell>
        <mxCell id="Tz6aEU4ManMyac2rpAqn-68" value="Удалить услугу пользователя" style="text;html=1;align=center;verticalAlign=middle;whiteSpace=wrap;rounded=1;fontSize=13;fontColor=#FFFFFF;strokeColor=none;" parent="BZBJQn5B5M7l6MrAMs_o-12" vertex="1">
          <mxGeometry x="3" y="4.5" width="189" height="30" as="geometry" />
        </mxCell>
        <mxCell id="BZBJQn5B5M7l6MrAMs_o-26" value="" style="group" parent="qWpF3jZFovPxBTXFjTdf-33" vertex="1" connectable="0">
          <mxGeometry x="15" y="238" width="309" height="39" as="geometry" />
        </mxCell>
        <mxCell id="Tz6aEU4ManMyac2rpAqn-63" value="" style="rounded=1;whiteSpace=wrap;html=1;fillColor=#1C57CD;strokeColor=none;" parent="BZBJQn5B5M7l6MrAMs_o-26" vertex="1">
          <mxGeometry width="309" height="39" as="geometry" />
        </mxCell>
        <mxCell id="Tz6aEU4ManMyac2rpAqn-64" value="" style="sketch=0;outlineConnect=0;fontColor=#232F3E;gradientColor=none;fillColor=#FFFFFF;strokeColor=none;dashed=0;verticalLabelPosition=bottom;verticalAlign=top;align=center;html=1;fontSize=12;fontStyle=0;aspect=fixed;pointerEvents=1;shape=mxgraph.aws4.gear;rounded=1;" parent="BZBJQn5B5M7l6MrAMs_o-26" vertex="1">
          <mxGeometry x="286" y="11" width="17" height="17" as="geometry" />
        </mxCell>
        <mxCell id="Tz6aEU4ManMyac2rpAqn-65" value="Изменить услугу пользователя" style="text;html=1;align=center;verticalAlign=middle;whiteSpace=wrap;rounded=1;fontSize=13;fontColor=#FFFFFF;strokeColor=none;" parent="BZBJQn5B5M7l6MrAMs_o-26" vertex="1">
          <mxGeometry x="4" y="4.5" width="195" height="30" as="geometry" />
        </mxCell>
        <mxCell id="qWpF3jZFovPxBTXFjTdf-34" value="&lt;font style=&quot;font-size: 23px;&quot;&gt;Сервис Услуг&lt;/font&gt;" style="text;html=1;align=center;verticalAlign=middle;whiteSpace=wrap;rounded=1;fontSize=13;container=1;" parent="qWpF3jZFovPxBTXFjTdf-32" vertex="1">
          <mxGeometry x="2" y="9" width="324" height="38.99" as="geometry" />
        </mxCell>
        <mxCell id="qWpF3jZFovPxBTXFjTdf-41" value="" style="rounded=1;whiteSpace=wrap;html=1;arcSize=5;fillColor=#f5f5f5;strokeColor=#1C57CD;strokeWidth=3;container=1;" parent="1" vertex="1">
          <mxGeometry x="3546" y="879" width="336" height="219" as="geometry" />
        </mxCell>
        <mxCell id="qWpF3jZFovPxBTXFjTdf-40" value="" style="group" parent="qWpF3jZFovPxBTXFjTdf-41" vertex="1" connectable="0">
          <mxGeometry x="5" y="3.55" width="331" height="215.45" as="geometry" />
        </mxCell>
        <mxCell id="qWpF3jZFovPxBTXFjTdf-42" value="&lt;span style=&quot;font-size: 23px;&quot;&gt;Сервис апеляций&lt;/span&gt;" style="text;html=1;align=center;verticalAlign=middle;whiteSpace=wrap;rounded=1;fontSize=13;" parent="qWpF3jZFovPxBTXFjTdf-40" vertex="1">
          <mxGeometry x="1" y="9.04005670128958" width="320" height="28.960181644839185" as="geometry" />
        </mxCell>
        <mxCell id="BZBJQn5B5M7l6MrAMs_o-43" value="" style="group" parent="qWpF3jZFovPxBTXFjTdf-41" vertex="1" connectable="0">
          <mxGeometry x="12" y="55" width="309" height="39" as="geometry" />
        </mxCell>
        <mxCell id="cKbgiC5qh_IXnBO1eU4K-28" value="" style="rounded=1;whiteSpace=wrap;html=1;fillColor=#1C57CD;strokeColor=none;" parent="BZBJQn5B5M7l6MrAMs_o-43" vertex="1">
          <mxGeometry width="309" height="39" as="geometry" />
        </mxCell>
        <mxCell id="cKbgiC5qh_IXnBO1eU4K-29" value="" style="sketch=0;outlineConnect=0;fontColor=#232F3E;gradientColor=none;fillColor=#FFFFFF;strokeColor=none;dashed=0;verticalLabelPosition=bottom;verticalAlign=top;align=center;html=1;fontSize=12;fontStyle=0;aspect=fixed;pointerEvents=1;shape=mxgraph.aws4.gear;rounded=1;" parent="BZBJQn5B5M7l6MrAMs_o-43" vertex="1">
          <mxGeometry x="280" y="11" width="17" height="17" as="geometry" />
        </mxCell>
        <mxCell id="cKbgiC5qh_IXnBO1eU4K-30" value="Обновить статус заявки на апелляцию" style="text;html=1;align=center;verticalAlign=middle;whiteSpace=wrap;rounded=1;fontSize=13;fontColor=#FFFFFF;strokeColor=none;" parent="BZBJQn5B5M7l6MrAMs_o-43" vertex="1">
          <mxGeometry x="3" y="4.5" width="250" height="30" as="geometry" />
        </mxCell>
        <mxCell id="BZBJQn5B5M7l6MrAMs_o-44" value="" style="group" parent="qWpF3jZFovPxBTXFjTdf-41" vertex="1" connectable="0">
          <mxGeometry x="11" y="103" width="309" height="39" as="geometry" />
        </mxCell>
        <mxCell id="cKbgiC5qh_IXnBO1eU4K-25" value="" style="rounded=1;whiteSpace=wrap;html=1;fillColor=#1C57CD;strokeColor=none;" parent="BZBJQn5B5M7l6MrAMs_o-44" vertex="1">
          <mxGeometry width="309" height="39" as="geometry" />
        </mxCell>
        <mxCell id="cKbgiC5qh_IXnBO1eU4K-26" value="" style="sketch=0;outlineConnect=0;fontColor=#232F3E;gradientColor=none;fillColor=#FFFFFF;strokeColor=none;dashed=0;verticalLabelPosition=bottom;verticalAlign=top;align=center;html=1;fontSize=12;fontStyle=0;aspect=fixed;pointerEvents=1;shape=mxgraph.aws4.gear;rounded=1;" parent="BZBJQn5B5M7l6MrAMs_o-44" vertex="1">
          <mxGeometry x="280" y="11" width="17" height="17" as="geometry" />
        </mxCell>
        <mxCell id="cKbgiC5qh_IXnBO1eU4K-27" value="Регистрация заявки на апелляцию" style="text;html=1;align=center;verticalAlign=middle;whiteSpace=wrap;rounded=1;fontSize=13;fontColor=#FFFFFF;strokeColor=none;" parent="BZBJQn5B5M7l6MrAMs_o-44" vertex="1">
          <mxGeometry x="1" y="4.5" width="227" height="30" as="geometry" />
        </mxCell>
        <mxCell id="BZBJQn5B5M7l6MrAMs_o-45" value="" style="group" parent="qWpF3jZFovPxBTXFjTdf-41" vertex="1" connectable="0">
          <mxGeometry x="10" y="152" width="309" height="39" as="geometry" />
        </mxCell>
        <mxCell id="cKbgiC5qh_IXnBO1eU4K-22" value="" style="rounded=1;whiteSpace=wrap;html=1;fillColor=#1C57CD;strokeColor=none;" parent="BZBJQn5B5M7l6MrAMs_o-45" vertex="1">
          <mxGeometry width="309" height="39" as="geometry" />
        </mxCell>
        <mxCell id="cKbgiC5qh_IXnBO1eU4K-23" value="" style="sketch=0;outlineConnect=0;fontColor=#232F3E;gradientColor=none;fillColor=#FFFFFF;strokeColor=none;dashed=0;verticalLabelPosition=bottom;verticalAlign=top;align=center;html=1;fontSize=12;fontStyle=0;aspect=fixed;pointerEvents=1;shape=mxgraph.aws4.gear;rounded=1;" parent="BZBJQn5B5M7l6MrAMs_o-45" vertex="1">
          <mxGeometry x="280" y="11" width="17" height="17" as="geometry" />
        </mxCell>
        <mxCell id="cKbgiC5qh_IXnBO1eU4K-24" value="Создать заявку на апелляцию&amp;nbsp;" style="text;html=1;align=center;verticalAlign=middle;whiteSpace=wrap;rounded=1;fontSize=13;fontColor=#FFFFFF;strokeColor=none;" parent="BZBJQn5B5M7l6MrAMs_o-45" vertex="1">
          <mxGeometry x="4" y="4.5" width="202" height="30" as="geometry" />
        </mxCell>
        <mxCell id="nw1ie-kH-2CXK3WOrrWI-2" value="" style="strokeWidth=2;html=1;shape=mxgraph.flowchart.database;whiteSpace=wrap;rounded=1;movable=1;resizable=1;rotatable=1;deletable=1;editable=1;locked=0;connectable=1;" vertex="1" parent="1">
          <mxGeometry x="2490" y="1374" width="276" height="370" as="geometry" />
        </mxCell>
        <mxCell id="nw1ie-kH-2CXK3WOrrWI-3" value="" style="strokeWidth=2;html=1;shape=mxgraph.flowchart.database;whiteSpace=wrap;rounded=1;movable=1;resizable=1;rotatable=1;deletable=1;editable=1;locked=0;connectable=1;" vertex="1" parent="1">
          <mxGeometry x="2850" y="1360" width="276" height="370" as="geometry" />
        </mxCell>
        <mxCell id="nw1ie-kH-2CXK3WOrrWI-4" value="" style="strokeWidth=2;html=1;shape=mxgraph.flowchart.database;whiteSpace=wrap;rounded=1;movable=1;resizable=1;rotatable=1;deletable=1;editable=1;locked=0;connectable=1;" vertex="1" parent="1">
          <mxGeometry x="3218" y="1376" width="276" height="370" as="geometry" />
        </mxCell>
        <mxCell id="nw1ie-kH-2CXK3WOrrWI-7" value="" style="group" vertex="1" connectable="0" parent="1">
          <mxGeometry x="1804" y="1417" width="151" height="49" as="geometry" />
        </mxCell>
        <mxCell id="nw1ie-kH-2CXK3WOrrWI-8" value="&lt;p style=&quot;margin: 0px 0px 0px 13px; text-indent: -13px; font-variant-numeric: normal; font-variant-east-asian: normal; font-variant-alternates: normal; font-kerning: auto; font-optical-sizing: auto; font-feature-settings: normal; font-variation-settings: normal; font-variant-position: normal; font-stretch: normal; font-size: 14px; line-height: normal; color: rgb(14, 14, 14); text-align: start;&quot; class=&quot;p1&quot;&gt;&lt;br&gt;&lt;/p&gt;" style="rounded=1;whiteSpace=wrap;html=1;fillColor=#FF77BF;strokeColor=none;arcSize=50;" vertex="1" parent="nw1ie-kH-2CXK3WOrrWI-7">
          <mxGeometry y="9" width="151" height="33" as="geometry" />
        </mxCell>
        <mxCell id="nw1ie-kH-2CXK3WOrrWI-9" value="&lt;font style=&quot;font-size: 18px;&quot;&gt;&lt;i&gt;PostgreSQL&lt;/i&gt;&lt;/font&gt;" style="text;html=1;align=center;verticalAlign=middle;whiteSpace=wrap;rounded=1;shadow=0;fontSize=23;fontStyle=1" vertex="1" parent="nw1ie-kH-2CXK3WOrrWI-7">
          <mxGeometry x="31" width="89" height="49" as="geometry" />
        </mxCell>
        <mxCell id="nw1ie-kH-2CXK3WOrrWI-10" value="" style="group" vertex="1" connectable="0" parent="1">
          <mxGeometry x="2182" y="1417" width="151" height="49" as="geometry" />
        </mxCell>
        <mxCell id="nw1ie-kH-2CXK3WOrrWI-11" value="&lt;p style=&quot;margin: 0px 0px 0px 13px; text-indent: -13px; font-variant-numeric: normal; font-variant-east-asian: normal; font-variant-alternates: normal; font-kerning: auto; font-optical-sizing: auto; font-feature-settings: normal; font-variation-settings: normal; font-variant-position: normal; font-stretch: normal; font-size: 14px; line-height: normal; color: rgb(14, 14, 14); text-align: start;&quot; class=&quot;p1&quot;&gt;&lt;br&gt;&lt;/p&gt;" style="rounded=1;whiteSpace=wrap;html=1;fillColor=#FF77BF;strokeColor=none;arcSize=50;" vertex="1" parent="nw1ie-kH-2CXK3WOrrWI-10">
          <mxGeometry y="9" width="151" height="33" as="geometry" />
        </mxCell>
        <mxCell id="nw1ie-kH-2CXK3WOrrWI-12" value="&lt;font style=&quot;font-size: 18px;&quot;&gt;&lt;i&gt;PostgreSQL&lt;/i&gt;&lt;/font&gt;" style="text;html=1;align=center;verticalAlign=middle;whiteSpace=wrap;rounded=1;shadow=0;fontSize=23;fontStyle=1" vertex="1" parent="nw1ie-kH-2CXK3WOrrWI-10">
          <mxGeometry x="31" width="89" height="49" as="geometry" />
        </mxCell>
        <mxCell id="nw1ie-kH-2CXK3WOrrWI-13" value="" style="group" vertex="1" connectable="0" parent="1">
          <mxGeometry x="2550" y="1412" width="151" height="49" as="geometry" />
        </mxCell>
        <mxCell id="nw1ie-kH-2CXK3WOrrWI-14" value="&lt;p style=&quot;margin: 0px 0px 0px 13px; text-indent: -13px; font-variant-numeric: normal; font-variant-east-asian: normal; font-variant-alternates: normal; font-kerning: auto; font-optical-sizing: auto; font-feature-settings: normal; font-variation-settings: normal; font-variant-position: normal; font-stretch: normal; font-size: 14px; line-height: normal; color: rgb(14, 14, 14); text-align: start;&quot; class=&quot;p1&quot;&gt;&lt;br&gt;&lt;/p&gt;" style="rounded=1;whiteSpace=wrap;html=1;fillColor=#FF77BF;strokeColor=none;arcSize=50;" vertex="1" parent="nw1ie-kH-2CXK3WOrrWI-13">
          <mxGeometry y="9" width="151" height="33" as="geometry" />
        </mxCell>
        <mxCell id="nw1ie-kH-2CXK3WOrrWI-15" value="&lt;font style=&quot;font-size: 18px;&quot;&gt;&lt;i&gt;PostgreSQL&lt;/i&gt;&lt;/font&gt;" style="text;html=1;align=center;verticalAlign=middle;whiteSpace=wrap;rounded=1;shadow=0;fontSize=23;fontStyle=1" vertex="1" parent="nw1ie-kH-2CXK3WOrrWI-13">
          <mxGeometry x="31" width="89" height="49" as="geometry" />
        </mxCell>
        <mxCell id="nw1ie-kH-2CXK3WOrrWI-16" value="" style="group" vertex="1" connectable="0" parent="1">
          <mxGeometry x="2900" y="1400" width="151" height="49" as="geometry" />
        </mxCell>
        <mxCell id="nw1ie-kH-2CXK3WOrrWI-17" value="&lt;p style=&quot;margin: 0px 0px 0px 13px; text-indent: -13px; font-variant-numeric: normal; font-variant-east-asian: normal; font-variant-alternates: normal; font-kerning: auto; font-optical-sizing: auto; font-feature-settings: normal; font-variation-settings: normal; font-variant-position: normal; font-stretch: normal; font-size: 14px; line-height: normal; color: rgb(14, 14, 14); text-align: start;&quot; class=&quot;p1&quot;&gt;&lt;br&gt;&lt;/p&gt;" style="rounded=1;whiteSpace=wrap;html=1;fillColor=#FF77BF;strokeColor=none;arcSize=50;" vertex="1" parent="nw1ie-kH-2CXK3WOrrWI-16">
          <mxGeometry y="9" width="151" height="33" as="geometry" />
        </mxCell>
        <mxCell id="nw1ie-kH-2CXK3WOrrWI-18" value="&lt;font style=&quot;font-size: 18px;&quot;&gt;&lt;i&gt;PostgreSQL&lt;/i&gt;&lt;/font&gt;" style="text;html=1;align=center;verticalAlign=middle;whiteSpace=wrap;rounded=1;shadow=0;fontSize=23;fontStyle=1" vertex="1" parent="nw1ie-kH-2CXK3WOrrWI-16">
          <mxGeometry x="31" width="89" height="49" as="geometry" />
        </mxCell>
        <mxCell id="nw1ie-kH-2CXK3WOrrWI-19" value="" style="group" vertex="1" connectable="0" parent="1">
          <mxGeometry x="3277" y="1413" width="151" height="49" as="geometry" />
        </mxCell>
        <mxCell id="nw1ie-kH-2CXK3WOrrWI-20" value="&lt;p style=&quot;margin: 0px 0px 0px 13px; text-indent: -13px; font-variant-numeric: normal; font-variant-east-asian: normal; font-variant-alternates: normal; font-kerning: auto; font-optical-sizing: auto; font-feature-settings: normal; font-variation-settings: normal; font-variant-position: normal; font-stretch: normal; font-size: 14px; line-height: normal; color: rgb(14, 14, 14); text-align: start;&quot; class=&quot;p1&quot;&gt;&lt;br&gt;&lt;/p&gt;" style="rounded=1;whiteSpace=wrap;html=1;fillColor=#FF77BF;strokeColor=none;arcSize=50;" vertex="1" parent="nw1ie-kH-2CXK3WOrrWI-19">
          <mxGeometry y="9" width="151" height="33" as="geometry" />
        </mxCell>
        <mxCell id="nw1ie-kH-2CXK3WOrrWI-21" value="&lt;font style=&quot;font-size: 18px;&quot;&gt;&lt;i&gt;PostgreSQL&lt;/i&gt;&lt;/font&gt;" style="text;html=1;align=center;verticalAlign=middle;whiteSpace=wrap;rounded=1;shadow=0;fontSize=23;fontStyle=1" vertex="1" parent="nw1ie-kH-2CXK3WOrrWI-19">
          <mxGeometry x="31" width="89" height="49" as="geometry" />
        </mxCell>
        <mxCell id="nw1ie-kH-2CXK3WOrrWI-29" value="Шина обмена событиями(RMQ/NATS/KAFKA)" style="rounded=0;whiteSpace=wrap;html=1;fillColor=#3D3D00;" vertex="1" parent="1">
          <mxGeometry x="1382" y="728" width="3229" height="60" as="geometry" />
        </mxCell>
        <mxCell id="cKbgiC5qh_IXnBO1eU4K-86" value="&lt;p style=&quot;margin: 0px 0px 0px 13px; text-indent: -13px; font-variant-numeric: normal; font-variant-east-asian: normal; font-variant-alternates: normal; font-kerning: auto; font-optical-sizing: auto; font-feature-settings: normal; font-variation-settings: normal; font-variant-position: normal; font-stretch: normal; font-size: 14px; line-height: normal; color: rgb(14, 14, 14); text-align: start;&quot; class=&quot;p1&quot;&gt;&lt;font face=&quot;Times New Roman&quot;&gt;Услуга. Описание&lt;/font&gt;&lt;/p&gt;" style="rounded=1;whiteSpace=wrap;html=1;fillColor=#b1ddf0;strokeColor=#10739e;" parent="1" vertex="1">
          <mxGeometry x="2206" y="1680" width="112" height="21" as="geometry" />
        </mxCell>
        <mxCell id="cKbgiC5qh_IXnBO1eU4K-85" value="&lt;p style=&quot;margin: 0px 0px 0px 13px; text-indent: -13px; font-variant-numeric: normal; font-variant-east-asian: normal; font-variant-alternates: normal; font-kerning: auto; font-optical-sizing: auto; font-feature-settings: normal; font-variation-settings: normal; font-variant-position: normal; font-stretch: normal; font-size: 14px; line-height: normal; color: rgb(14, 14, 14); text-align: start;&quot; class=&quot;p1&quot;&gt;&lt;font face=&quot;Times New Roman&quot;&gt;Услуга.Название&lt;/font&gt;&lt;/p&gt;" style="rounded=1;whiteSpace=wrap;html=1;fillColor=#b1ddf0;strokeColor=#10739e;" parent="1" vertex="1">
          <mxGeometry x="2205" y="1654" width="110" height="21" as="geometry" />
        </mxCell>
        <mxCell id="nw1ie-kH-2CXK3WOrrWI-30" value="&lt;p style=&quot;margin: 0px 0px 0px 13px; text-indent: -13px; font-variant-numeric: normal; font-variant-east-asian: normal; font-variant-alternates: normal; font-kerning: auto; font-optical-sizing: auto; font-feature-settings: normal; font-variation-settings: normal; font-variant-position: normal; font-stretch: normal; font-size: 14px; line-height: normal; color: rgb(14, 14, 14); text-align: start;&quot; class=&quot;p1&quot;&gt;&lt;font face=&quot;Times New Roman&quot;&gt;Пользователь.ID&lt;/font&gt;&lt;/p&gt;" style="rounded=1;whiteSpace=wrap;html=1;fillColor=#b1ddf0;strokeColor=#10739e;" vertex="1" parent="1">
          <mxGeometry x="2203" y="1601" width="151" height="21" as="geometry" />
        </mxCell>
        <mxCell id="cKbgiC5qh_IXnBO1eU4K-88" value="&lt;p style=&quot;margin: 0px 0px 0px 13px; text-indent: -13px; font-variant-numeric: normal; font-variant-east-asian: normal; font-variant-alternates: normal; font-kerning: auto; font-optical-sizing: auto; font-feature-settings: normal; font-variation-settings: normal; font-variant-position: normal; font-stretch: normal; font-size: 14px; line-height: normal; color: rgb(14, 14, 14); text-align: start;&quot; class=&quot;p1&quot;&gt;&lt;font face=&quot;Times New Roman&quot;&gt;Товар.Название&lt;/font&gt;&lt;/p&gt;" style="rounded=1;whiteSpace=wrap;html=1;fillColor=#b1ddf0;strokeColor=#10739e;" parent="1" vertex="1">
          <mxGeometry x="2550" y="1644" width="111" height="21" as="geometry" />
        </mxCell>
        <mxCell id="cKbgiC5qh_IXnBO1eU4K-89" value="&lt;p style=&quot;margin: 0px 0px 0px 13px; text-indent: -13px; font-variant-numeric: normal; font-variant-east-asian: normal; font-variant-alternates: normal; font-kerning: auto; font-optical-sizing: auto; font-feature-settings: normal; font-variation-settings: normal; font-variant-position: normal; font-stretch: normal; font-size: 14px; line-height: normal; color: rgb(14, 14, 14); text-align: start;&quot; class=&quot;p1&quot;&gt;&lt;font face=&quot;Times New Roman&quot;&gt;Товар.Описание&lt;/font&gt;&lt;/p&gt;" style="rounded=1;whiteSpace=wrap;html=1;fillColor=#b1ddf0;strokeColor=#10739e;" parent="1" vertex="1">
          <mxGeometry x="2551" y="1670" width="107" height="21" as="geometry" />
        </mxCell>
        <mxCell id="cKbgiC5qh_IXnBO1eU4K-87" value="&lt;p style=&quot;margin: 0px 0px 0px 13px; text-indent: -13px; font-variant-numeric: normal; font-variant-east-asian: normal; font-variant-alternates: normal; font-kerning: auto; font-optical-sizing: auto; font-feature-settings: normal; font-variation-settings: normal; font-variant-position: normal; font-stretch: normal; font-size: 14px; line-height: normal; color: rgb(14, 14, 14); text-align: start;&quot; class=&quot;p1&quot;&gt;&lt;font face=&quot;Times New Roman&quot;&gt;Товар.ID&lt;/font&gt;&lt;/p&gt;" style="rounded=1;whiteSpace=wrap;html=1;fillColor=#b1ddf0;strokeColor=#10739e;" parent="1" vertex="1">
          <mxGeometry x="2549" y="1616" width="78" height="21" as="geometry" />
        </mxCell>
        <mxCell id="cKbgiC5qh_IXnBO1eU4K-74" value="&lt;p style=&quot;margin: 0px 0px 0px 13px; text-indent: -13px; font-variant-numeric: normal; font-variant-east-asian: normal; font-variant-alternates: normal; font-kerning: auto; font-optical-sizing: auto; font-feature-settings: normal; font-variation-settings: normal; font-variant-position: normal; font-stretch: normal; font-size: 14px; line-height: normal; color: rgb(14, 14, 14); text-align: start;&quot; class=&quot;p1&quot;&gt;&lt;font face=&quot;Times New Roman&quot;&gt;Торговая площадка.ID&lt;/font&gt;&lt;/p&gt;" style="rounded=1;whiteSpace=wrap;html=1;fillColor=#b1ddf0;strokeColor=#10739e;" parent="1" vertex="1">
          <mxGeometry x="1812" y="1582" width="144.5" height="21" as="geometry" />
        </mxCell>
        <mxCell id="nw1ie-kH-2CXK3WOrrWI-31" value="&lt;p style=&quot;margin: 0px 0px 0px 13px; text-indent: -13px; font-variant-numeric: normal; font-variant-east-asian: normal; font-variant-alternates: normal; font-kerning: auto; font-optical-sizing: auto; font-feature-settings: normal; font-variation-settings: normal; font-variant-position: normal; font-stretch: normal; font-size: 14px; line-height: normal; color: rgb(14, 14, 14); text-align: start;&quot; class=&quot;p1&quot;&gt;&lt;font face=&quot;Times New Roman&quot;&gt;Пользователь.ID&lt;/font&gt;&lt;/p&gt;" style="rounded=1;whiteSpace=wrap;html=1;fillColor=#b1ddf0;strokeColor=#10739e;" vertex="1" parent="1">
          <mxGeometry x="1810" y="1554" width="151" height="21" as="geometry" />
        </mxCell>
        <mxCell id="cKbgiC5qh_IXnBO1eU4K-75" value="&lt;p style=&quot;margin: 0px 0px 0px 13px; text-indent: -13px; font-variant-numeric: normal; font-variant-east-asian: normal; font-variant-alternates: normal; font-kerning: auto; font-optical-sizing: auto; font-feature-settings: normal; font-variation-settings: normal; font-variant-position: normal; font-stretch: normal; font-size: 14px; line-height: normal; color: rgb(14, 14, 14); text-align: start;&quot; class=&quot;p1&quot;&gt;&lt;font face=&quot;Times New Roman&quot;&gt;Торговая площадка.Наименование&lt;/font&gt;&lt;/p&gt;" style="rounded=1;whiteSpace=wrap;html=1;fillColor=#b1ddf0;strokeColor=#10739e;" parent="1" vertex="1">
          <mxGeometry x="1782" y="1612" width="214" height="21" as="geometry" />
        </mxCell>
        <mxCell id="nw1ie-kH-2CXK3WOrrWI-32" value="" style="strokeWidth=2;html=1;shape=mxgraph.flowchart.database;whiteSpace=wrap;rounded=1;movable=1;resizable=1;rotatable=1;deletable=1;editable=1;locked=0;connectable=1;" vertex="1" parent="1">
          <mxGeometry x="3931" y="1379" width="276" height="370" as="geometry" />
        </mxCell>
        <mxCell id="nw1ie-kH-2CXK3WOrrWI-33" value="" style="group" vertex="1" connectable="0" parent="1">
          <mxGeometry x="3993" y="1417" width="151" height="49" as="geometry" />
        </mxCell>
        <mxCell id="nw1ie-kH-2CXK3WOrrWI-34" value="&lt;p style=&quot;margin: 0px 0px 0px 13px; text-indent: -13px; font-variant-numeric: normal; font-variant-east-asian: normal; font-variant-alternates: normal; font-kerning: auto; font-optical-sizing: auto; font-feature-settings: normal; font-variation-settings: normal; font-variant-position: normal; font-stretch: normal; font-size: 14px; line-height: normal; color: rgb(14, 14, 14); text-align: start;&quot; class=&quot;p1&quot;&gt;&lt;br&gt;&lt;/p&gt;" style="rounded=1;whiteSpace=wrap;html=1;fillColor=#FF77BF;strokeColor=none;arcSize=50;" vertex="1" parent="nw1ie-kH-2CXK3WOrrWI-33">
          <mxGeometry y="9" width="151" height="33" as="geometry" />
        </mxCell>
        <mxCell id="nw1ie-kH-2CXK3WOrrWI-35" value="&lt;font style=&quot;font-size: 18px;&quot;&gt;&lt;i&gt;PostgreSQL&lt;/i&gt;&lt;/font&gt;" style="text;html=1;align=center;verticalAlign=middle;whiteSpace=wrap;rounded=1;shadow=0;fontSize=23;fontStyle=1" vertex="1" parent="nw1ie-kH-2CXK3WOrrWI-33">
          <mxGeometry x="27" y="-1" width="89" height="49" as="geometry" />
        </mxCell>
        <mxCell id="cKbgiC5qh_IXnBO1eU4K-151" value="&lt;p style=&quot;margin: 0px 0px 0px 13px; text-indent: -13px; font-variant-numeric: normal; font-variant-east-asian: normal; font-variant-alternates: normal; font-kerning: auto; font-optical-sizing: auto; font-feature-settings: normal; font-variation-settings: normal; font-variant-position: normal; font-stretch: normal; line-height: normal; text-align: start;&quot; class=&quot;p1&quot;&gt;&lt;span style=&quot;text-align: center; text-indent: 0px;&quot;&gt;&lt;font style=&quot;font-size: 14px;&quot; face=&quot;Times New Roman&quot;&gt;[Транзакция.Статус]&lt;/font&gt;&lt;/span&gt;&lt;br&gt;&lt;/p&gt;" style="rounded=1;whiteSpace=wrap;html=1;fillColor=#B8B8B8;strokeColor=#FFD966;" parent="1" vertex="1">
          <mxGeometry x="3998" y="1571" width="125" height="21" as="geometry" />
        </mxCell>
        <mxCell id="cKbgiC5qh_IXnBO1eU4K-150" value="&lt;p style=&quot;margin: 0px 0px 0px 13px; text-indent: -13px; font-variant-numeric: normal; font-variant-east-asian: normal; font-variant-alternates: normal; font-kerning: auto; font-optical-sizing: auto; font-feature-settings: normal; font-variation-settings: normal; font-variant-position: normal; font-stretch: normal; line-height: normal; text-align: start;&quot; class=&quot;p1&quot;&gt;&lt;span style=&quot;text-align: center; text-indent: 0px;&quot;&gt;&lt;font style=&quot;font-size: 14px;&quot; face=&quot;Times New Roman&quot;&gt;[Транзакция.ID]&lt;/font&gt;&lt;/span&gt;&lt;br&gt;&lt;/p&gt;" style="rounded=1;whiteSpace=wrap;html=1;fillColor=#B8B8B8;strokeColor=#FFD966;" parent="1" vertex="1">
          <mxGeometry x="4009" y="1543" width="104" height="21" as="geometry" />
        </mxCell>
        <mxCell id="nw1ie-kH-2CXK3WOrrWI-36" value="&lt;p style=&quot;margin: 0px 0px 0px 13px; text-indent: -13px; font-variant-numeric: normal; font-variant-east-asian: normal; font-variant-alternates: normal; font-kerning: auto; font-optical-sizing: auto; font-feature-settings: normal; font-variation-settings: normal; font-variant-position: normal; font-stretch: normal; font-size: 14px; line-height: normal; color: rgb(14, 14, 14); text-align: start;&quot; class=&quot;p1&quot;&gt;&lt;font face=&quot;Times New Roman&quot;&gt;Торговая площадка.ID&lt;/font&gt;&lt;/p&gt;" style="rounded=1;whiteSpace=wrap;html=1;fillColor=#b1ddf0;strokeColor=#10739e;" vertex="1" parent="1">
          <mxGeometry x="2549" y="1565" width="144.5" height="21" as="geometry" />
        </mxCell>
        <mxCell id="nw1ie-kH-2CXK3WOrrWI-37" value="&lt;p style=&quot;margin: 0px 0px 0px 13px; text-indent: -13px; font-variant-numeric: normal; font-variant-east-asian: normal; font-variant-alternates: normal; font-kerning: auto; font-optical-sizing: auto; font-feature-settings: normal; font-variation-settings: normal; font-variant-position: normal; font-stretch: normal; font-size: 14px; line-height: normal; color: rgb(14, 14, 14); text-align: start;&quot; class=&quot;p1&quot;&gt;&lt;font face=&quot;Times New Roman&quot;&gt;Торговая площадка.ID&lt;/font&gt;&lt;/p&gt;" style="rounded=1;whiteSpace=wrap;html=1;fillColor=#b1ddf0;strokeColor=#10739e;" vertex="1" parent="1">
          <mxGeometry x="2203" y="1575" width="144.5" height="21" as="geometry" />
        </mxCell>
        <mxCell id="nw1ie-kH-2CXK3WOrrWI-38" value="&lt;p style=&quot;margin: 0px 0px 0px 13px; text-indent: -13px; font-variant-numeric: normal; font-variant-east-asian: normal; font-variant-alternates: normal; font-kerning: auto; font-optical-sizing: auto; font-feature-settings: normal; font-variation-settings: normal; font-variant-position: normal; font-stretch: normal; font-size: 14px; line-height: normal; color: rgb(14, 14, 14); text-align: start;&quot; class=&quot;p1&quot;&gt;&lt;font face=&quot;Times New Roman&quot;&gt;Пользователь.ID&lt;/font&gt;&lt;/p&gt;" style="rounded=1;whiteSpace=wrap;html=1;fillColor=#b1ddf0;strokeColor=#10739e;" vertex="1" parent="1">
          <mxGeometry x="2549" y="1590" width="151" height="21" as="geometry" />
        </mxCell>
        <mxCell id="nw1ie-kH-2CXK3WOrrWI-39" value="&lt;p style=&quot;margin: 0px 0px 0px 13px; text-indent: -13px; font-variant-numeric: normal; font-variant-east-asian: normal; font-variant-alternates: normal; font-kerning: auto; font-optical-sizing: auto; font-feature-settings: normal; font-variation-settings: normal; font-variant-position: normal; font-stretch: normal; font-size: 14px; line-height: normal; color: rgb(14, 14, 14); text-align: start;&quot; class=&quot;p1&quot;&gt;&lt;font face=&quot;Times New Roman&quot;&gt;Пользователь.ID&lt;/font&gt;&lt;/p&gt;" style="rounded=1;whiteSpace=wrap;html=1;fillColor=#b1ddf0;strokeColor=#10739e;" vertex="1" parent="1">
          <mxGeometry x="2910" y="1530" width="151" height="21" as="geometry" />
        </mxCell>
        <mxCell id="nw1ie-kH-2CXK3WOrrWI-40" value="&lt;p style=&quot;margin: 0px 0px 0px 13px; text-indent: -13px; font-variant-numeric: normal; font-variant-east-asian: normal; font-variant-alternates: normal; font-kerning: auto; font-optical-sizing: auto; font-feature-settings: normal; font-variation-settings: normal; font-variant-position: normal; font-stretch: normal; font-size: 14px; line-height: normal; color: rgb(14, 14, 14); text-align: start;&quot; class=&quot;p1&quot;&gt;&lt;font face=&quot;Times New Roman&quot;&gt;Товар.ID&lt;/font&gt;&lt;/p&gt;" style="rounded=1;whiteSpace=wrap;html=1;fillColor=#b1ddf0;strokeColor=#10739e;" vertex="1" parent="1">
          <mxGeometry x="2900" y="1560" width="78" height="21" as="geometry" />
        </mxCell>
        <mxCell id="nw1ie-kH-2CXK3WOrrWI-41" value="&lt;p style=&quot;margin: 0px 0px 0px 13px; text-indent: -13px; font-variant-numeric: normal; font-variant-east-asian: normal; font-variant-alternates: normal; font-kerning: auto; font-optical-sizing: auto; font-feature-settings: normal; font-variation-settings: normal; font-variant-position: normal; font-stretch: normal; font-size: 14px; line-height: normal; color: rgb(14, 14, 14); text-align: start;&quot; class=&quot;p1&quot;&gt;&lt;font face=&quot;Times New Roman&quot;&gt;Услуга.ID&lt;/font&gt;&lt;/p&gt;" style="rounded=1;whiteSpace=wrap;html=1;fillColor=#b1ddf0;strokeColor=#10739e;" vertex="1" parent="1">
          <mxGeometry x="2980" y="1560" width="87" height="21" as="geometry" />
        </mxCell>
        <mxCell id="nw1ie-kH-2CXK3WOrrWI-42" value="&lt;p style=&quot;margin: 0px 0px 0px 13px; text-indent: -13px; font-variant-numeric: normal; font-variant-east-asian: normal; font-variant-alternates: normal; font-kerning: auto; font-optical-sizing: auto; font-feature-settings: normal; font-variation-settings: normal; font-variant-position: normal; font-stretch: normal; font-size: 14px; line-height: normal; color: rgb(14, 14, 14); text-align: start;&quot; class=&quot;p1&quot;&gt;&lt;font face=&quot;Times New Roman&quot;&gt;Цена&lt;/font&gt;&lt;/p&gt;" style="rounded=1;whiteSpace=wrap;html=1;fillColor=#b1ddf0;strokeColor=#10739e;" vertex="1" parent="1">
          <mxGeometry x="2930" y="1590" width="101" height="21" as="geometry" />
        </mxCell>
        <mxCell id="nw1ie-kH-2CXK3WOrrWI-43" value="&lt;p style=&quot;margin: 0px 0px 0px 13px; text-indent: -13px; font-variant-numeric: normal; font-variant-east-asian: normal; font-variant-alternates: normal; font-kerning: auto; font-optical-sizing: auto; font-feature-settings: normal; font-variation-settings: normal; font-variant-position: normal; font-stretch: normal; font-size: 14px; line-height: normal; color: rgb(14, 14, 14); text-align: start;&quot; class=&quot;p1&quot;&gt;&lt;font face=&quot;Times New Roman&quot;&gt;Пользователь.ID&lt;/font&gt;&lt;/p&gt;" style="rounded=1;whiteSpace=wrap;html=1;fillColor=#b1ddf0;strokeColor=#10739e;" vertex="1" parent="1">
          <mxGeometry x="3276" y="1525" width="151" height="21" as="geometry" />
        </mxCell>
        <mxCell id="nw1ie-kH-2CXK3WOrrWI-44" value="&lt;p style=&quot;margin: 0px 0px 0px 13px; text-indent: -13px; font-variant-numeric: normal; font-variant-east-asian: normal; font-variant-alternates: normal; font-kerning: auto; font-optical-sizing: auto; font-feature-settings: normal; font-variation-settings: normal; font-variant-position: normal; font-stretch: normal; font-size: 14px; line-height: normal; color: rgb(14, 14, 14); text-align: start;&quot; class=&quot;p1&quot;&gt;&lt;font face=&quot;Times New Roman&quot;&gt;Заявка&lt;/font&gt;&lt;/p&gt;" style="rounded=1;whiteSpace=wrap;html=1;fillColor=#b1ddf0;strokeColor=#10739e;" vertex="1" parent="1">
          <mxGeometry x="3295" y="1554" width="101" height="21" as="geometry" />
        </mxCell>
        <mxCell id="nw1ie-kH-2CXK3WOrrWI-45" value="&lt;p style=&quot;margin: 0px 0px 0px 13px; text-indent: -13px; font-variant-numeric: normal; font-variant-east-asian: normal; font-variant-alternates: normal; font-kerning: auto; font-optical-sizing: auto; font-feature-settings: normal; font-variation-settings: normal; font-variant-position: normal; font-stretch: normal; font-size: 14px; line-height: normal; color: rgb(14, 14, 14); text-align: start;&quot; class=&quot;p1&quot;&gt;&lt;font face=&quot;Times New Roman&quot;&gt;Статус&lt;/font&gt;&lt;/p&gt;" style="rounded=1;whiteSpace=wrap;html=1;fillColor=#b1ddf0;strokeColor=#10739e;" vertex="1" parent="1">
          <mxGeometry x="3295" y="1581" width="101" height="21" as="geometry" />
        </mxCell>
        <mxCell id="nw1ie-kH-2CXK3WOrrWI-53" value="" style="edgeStyle=orthogonalEdgeStyle;rounded=0;orthogonalLoop=1;jettySize=auto;html=1;" edge="1" parent="1" source="qWpF3jZFovPxBTXFjTdf-26" target="nw1ie-kH-2CXK3WOrrWI-35">
          <mxGeometry relative="1" as="geometry" />
        </mxCell>
        <mxCell id="nw1ie-kH-2CXK3WOrrWI-54" style="edgeStyle=orthogonalEdgeStyle;rounded=0;orthogonalLoop=1;jettySize=auto;html=1;exitX=0.5;exitY=1;exitDx=0;exitDy=0;entryX=0.75;entryY=0;entryDx=0;entryDy=0;" edge="1" parent="1" source="qWpF3jZFovPxBTXFjTdf-41" target="nw1ie-kH-2CXK3WOrrWI-21">
          <mxGeometry relative="1" as="geometry" />
        </mxCell>
        <mxCell id="nw1ie-kH-2CXK3WOrrWI-55" style="edgeStyle=orthogonalEdgeStyle;rounded=0;orthogonalLoop=1;jettySize=auto;html=1;exitX=0.5;exitY=1;exitDx=0;exitDy=0;" edge="1" parent="1" source="qWpF3jZFovPxBTXFjTdf-20" target="nw1ie-kH-2CXK3WOrrWI-21">
          <mxGeometry relative="1" as="geometry" />
        </mxCell>
        <mxCell id="nw1ie-kH-2CXK3WOrrWI-56" style="edgeStyle=orthogonalEdgeStyle;rounded=0;orthogonalLoop=1;jettySize=auto;html=1;exitX=0.25;exitY=0;exitDx=0;exitDy=0;entryX=0.024;entryY=0.975;entryDx=0;entryDy=0;entryPerimeter=0;" edge="1" parent="1" source="qWpF3jZFovPxBTXFjTdf-2" target="nw1ie-kH-2CXK3WOrrWI-29">
          <mxGeometry relative="1" as="geometry" />
        </mxCell>
        <mxCell id="nw1ie-kH-2CXK3WOrrWI-57" style="edgeStyle=orthogonalEdgeStyle;rounded=0;orthogonalLoop=1;jettySize=auto;html=1;exitX=0.25;exitY=0;exitDx=0;exitDy=0;entryX=0.14;entryY=1.044;entryDx=0;entryDy=0;entryPerimeter=0;" edge="1" parent="1" source="qWpF3jZFovPxBTXFjTdf-23" target="nw1ie-kH-2CXK3WOrrWI-29">
          <mxGeometry relative="1" as="geometry" />
        </mxCell>
        <mxCell id="nw1ie-kH-2CXK3WOrrWI-58" style="edgeStyle=orthogonalEdgeStyle;rounded=0;orthogonalLoop=1;jettySize=auto;html=1;exitX=0.25;exitY=0;exitDx=0;exitDy=0;entryX=0.252;entryY=1.031;entryDx=0;entryDy=0;entryPerimeter=0;" edge="1" parent="1" source="qWpF3jZFovPxBTXFjTdf-33" target="nw1ie-kH-2CXK3WOrrWI-29">
          <mxGeometry relative="1" as="geometry" />
        </mxCell>
        <mxCell id="nw1ie-kH-2CXK3WOrrWI-59" style="edgeStyle=orthogonalEdgeStyle;rounded=0;orthogonalLoop=1;jettySize=auto;html=1;exitX=0.25;exitY=0;exitDx=0;exitDy=0;entryX=0.361;entryY=1.044;entryDx=0;entryDy=0;entryPerimeter=0;" edge="1" parent="1" source="qWpF3jZFovPxBTXFjTdf-29" target="nw1ie-kH-2CXK3WOrrWI-29">
          <mxGeometry relative="1" as="geometry" />
        </mxCell>
        <mxCell id="nw1ie-kH-2CXK3WOrrWI-60" style="edgeStyle=orthogonalEdgeStyle;rounded=0;orthogonalLoop=1;jettySize=auto;html=1;exitX=0.25;exitY=0;exitDx=0;exitDy=0;entryX=0.47;entryY=0.961;entryDx=0;entryDy=0;entryPerimeter=0;" edge="1" parent="1" source="qWpF3jZFovPxBTXFjTdf-11" target="nw1ie-kH-2CXK3WOrrWI-29">
          <mxGeometry relative="1" as="geometry" />
        </mxCell>
        <mxCell id="nw1ie-kH-2CXK3WOrrWI-61" style="edgeStyle=orthogonalEdgeStyle;rounded=0;orthogonalLoop=1;jettySize=auto;html=1;exitX=0.25;exitY=0;exitDx=0;exitDy=0;entryX=0.585;entryY=0.975;entryDx=0;entryDy=0;entryPerimeter=0;" edge="1" parent="1" source="qWpF3jZFovPxBTXFjTdf-20" target="nw1ie-kH-2CXK3WOrrWI-29">
          <mxGeometry relative="1" as="geometry" />
        </mxCell>
        <mxCell id="nw1ie-kH-2CXK3WOrrWI-62" style="edgeStyle=orthogonalEdgeStyle;rounded=0;orthogonalLoop=1;jettySize=auto;html=1;exitX=0.25;exitY=0;exitDx=0;exitDy=0;entryX=0.696;entryY=1.017;entryDx=0;entryDy=0;entryPerimeter=0;" edge="1" parent="1" source="qWpF3jZFovPxBTXFjTdf-41" target="nw1ie-kH-2CXK3WOrrWI-29">
          <mxGeometry relative="1" as="geometry" />
        </mxCell>
        <mxCell id="nw1ie-kH-2CXK3WOrrWI-63" style="edgeStyle=orthogonalEdgeStyle;rounded=0;orthogonalLoop=1;jettySize=auto;html=1;exitX=0.25;exitY=0;exitDx=0;exitDy=0;entryX=0.806;entryY=0.989;entryDx=0;entryDy=0;entryPerimeter=0;" edge="1" parent="1" source="qWpF3jZFovPxBTXFjTdf-26" target="nw1ie-kH-2CXK3WOrrWI-29">
          <mxGeometry relative="1" as="geometry" />
        </mxCell>
        <mxCell id="nw1ie-kH-2CXK3WOrrWI-64" style="edgeStyle=orthogonalEdgeStyle;rounded=0;orthogonalLoop=1;jettySize=auto;html=1;exitX=0.25;exitY=0;exitDx=0;exitDy=0;entryX=0.922;entryY=0.989;entryDx=0;entryDy=0;entryPerimeter=0;" edge="1" parent="1" source="qWpF3jZFovPxBTXFjTdf-5" target="nw1ie-kH-2CXK3WOrrWI-29">
          <mxGeometry relative="1" as="geometry" />
        </mxCell>
        <mxCell id="nw1ie-kH-2CXK3WOrrWI-65" value="" style="group" vertex="1" connectable="0" parent="1">
          <mxGeometry x="2340" y="370" width="458" height="143" as="geometry" />
        </mxCell>
        <mxCell id="nw1ie-kH-2CXK3WOrrWI-66" value="" style="rounded=1;whiteSpace=wrap;html=1;arcSize=5;fillColor=#f5f5f5;strokeColor=#1C57CD;strokeWidth=3;" vertex="1" parent="nw1ie-kH-2CXK3WOrrWI-65">
          <mxGeometry width="458" height="143" as="geometry" />
        </mxCell>
        <mxCell id="nw1ie-kH-2CXK3WOrrWI-67" value="&lt;font style=&quot;font-size: 23px;&quot;&gt;API Gateway&lt;/font&gt;" style="text;html=1;align=center;verticalAlign=middle;whiteSpace=wrap;rounded=1;fontSize=13;" vertex="1" parent="nw1ie-kH-2CXK3WOrrWI-65">
          <mxGeometry x="1.38" y="6" width="449.62" height="131" as="geometry" />
        </mxCell>
        <mxCell id="cKbgiC5qh_IXnBO1eU4K-46" value="&lt;p style=&quot;margin: 0px 0px 0px 13px; text-indent: -13px; font-variant-numeric: normal; font-variant-east-asian: normal; font-variant-alternates: normal; font-kerning: auto; font-optical-sizing: auto; font-feature-settings: normal; font-variation-settings: normal; font-variant-position: normal; font-stretch: normal; line-height: normal; color: rgb(14, 14, 14); text-align: start;&quot; class=&quot;p1&quot;&gt;&lt;font face=&quot;Times New Roman&quot;&gt;&lt;span style=&quot;font-size: 14px;&quot;&gt;JWT&lt;/span&gt;&lt;/font&gt;&lt;/p&gt;" style="rounded=1;whiteSpace=wrap;html=1;fillColor=#b1ddf0;strokeColor=#10739e;" parent="nw1ie-kH-2CXK3WOrrWI-65" vertex="1">
          <mxGeometry x="346" y="63" width="49" height="21" as="geometry" />
        </mxCell>
        <mxCell id="nw1ie-kH-2CXK3WOrrWI-68" value="" style="endArrow=classic;html=1;rounded=1;curved=0;entryX=1;entryY=1;entryDx=0;entryDy=0;exitX=0.5;exitY=1;exitDx=0;exitDy=0;exitPerimeter=0;" edge="1" parent="1" source="cKbgiC5qh_IXnBO1eU4K-146" target="cKbgiC5qh_IXnBO1eU4K-140">
          <mxGeometry width="50" height="50" relative="1" as="geometry">
            <mxPoint x="3377" y="-171" as="sourcePoint" />
            <mxPoint x="3954.2509999999993" y="754.1150000000002" as="targetPoint" />
            <Array as="points">
              <mxPoint x="4132" y="115" />
            </Array>
          </mxGeometry>
        </mxCell>
        <mxCell id="nw1ie-kH-2CXK3WOrrWI-69" value="&lt;font style=&quot;font-size: 12px;&quot;&gt;Запросить статус платежа&lt;/font&gt;" style="edgeLabel;html=1;align=center;verticalAlign=middle;resizable=0;points=[];rounded=1;" vertex="1" connectable="0" parent="nw1ie-kH-2CXK3WOrrWI-68">
          <mxGeometry x="-0.4407" y="-1" relative="1" as="geometry">
            <mxPoint x="-9" y="63" as="offset" />
          </mxGeometry>
        </mxCell>
        <mxCell id="cKbgiC5qh_IXnBO1eU4K-140" value="4" style="ellipse;whiteSpace=wrap;html=1;aspect=fixed;rounded=1;fillColor=#FF77BF;" parent="1" vertex="1">
          <mxGeometry x="4137" y="856" width="23" height="23" as="geometry" />
        </mxCell>
        <mxCell id="nw1ie-kH-2CXK3WOrrWI-75" value="" style="endArrow=classic;html=1;rounded=1;exitX=0.633;exitY=-0.007;exitDx=0;exitDy=0;exitPerimeter=0;curved=0;entryX=0.68;entryY=1.001;entryDx=0;entryDy=0;entryPerimeter=0;" edge="1" parent="1" source="qWpF3jZFovPxBTXFjTdf-26" target="cKbgiC5qh_IXnBO1eU4K-139">
          <mxGeometry width="50" height="50" relative="1" as="geometry">
            <mxPoint x="4110" y="876" as="sourcePoint" />
            <mxPoint x="3200" y="-216" as="targetPoint" />
            <Array as="points">
              <mxPoint x="4083" y="224" />
            </Array>
          </mxGeometry>
        </mxCell>
        <mxCell id="cKbgiC5qh_IXnBO1eU4K-139" value="3" style="ellipse;whiteSpace=wrap;html=1;aspect=fixed;rounded=1;fillColor=#ff77bf;" parent="1" vertex="1">
          <mxGeometry x="4060" y="190" width="23" height="23" as="geometry" />
        </mxCell>
        <mxCell id="nw1ie-kH-2CXK3WOrrWI-78" style="edgeStyle=orthogonalEdgeStyle;rounded=0;orthogonalLoop=1;jettySize=auto;html=1;exitX=0.5;exitY=1;exitDx=0;exitDy=0;entryX=0.561;entryY=-0.008;entryDx=0;entryDy=0;entryPerimeter=0;" edge="1" parent="1" source="nw1ie-kH-2CXK3WOrrWI-66" target="qWpF3jZFovPxBTXFjTdf-2">
          <mxGeometry relative="1" as="geometry" />
        </mxCell>
        <mxCell id="nw1ie-kH-2CXK3WOrrWI-79" style="edgeStyle=orthogonalEdgeStyle;rounded=0;orthogonalLoop=1;jettySize=auto;html=1;exitX=0.5;exitY=1;exitDx=0;exitDy=0;entryX=0.5;entryY=0;entryDx=0;entryDy=0;" edge="1" parent="1" source="nw1ie-kH-2CXK3WOrrWI-66" target="qWpF3jZFovPxBTXFjTdf-23">
          <mxGeometry relative="1" as="geometry" />
        </mxCell>
        <mxCell id="nw1ie-kH-2CXK3WOrrWI-80" style="edgeStyle=orthogonalEdgeStyle;rounded=0;orthogonalLoop=1;jettySize=auto;html=1;exitX=0.5;exitY=1;exitDx=0;exitDy=0;entryX=0.575;entryY=-0.002;entryDx=0;entryDy=0;entryPerimeter=0;" edge="1" parent="1" source="nw1ie-kH-2CXK3WOrrWI-67" target="qWpF3jZFovPxBTXFjTdf-33">
          <mxGeometry relative="1" as="geometry" />
        </mxCell>
        <mxCell id="nw1ie-kH-2CXK3WOrrWI-82" style="edgeStyle=orthogonalEdgeStyle;rounded=0;orthogonalLoop=1;jettySize=auto;html=1;exitX=0.5;exitY=1;exitDx=0;exitDy=0;entryX=0.5;entryY=0;entryDx=0;entryDy=0;" edge="1" parent="1" source="nw1ie-kH-2CXK3WOrrWI-67" target="qWpF3jZFovPxBTXFjTdf-30">
          <mxGeometry relative="1" as="geometry" />
        </mxCell>
        <mxCell id="nw1ie-kH-2CXK3WOrrWI-83" style="edgeStyle=orthogonalEdgeStyle;rounded=0;orthogonalLoop=1;jettySize=auto;html=1;exitX=0.5;exitY=1;exitDx=0;exitDy=0;entryX=0.5;entryY=0;entryDx=0;entryDy=0;" edge="1" parent="1" source="nw1ie-kH-2CXK3WOrrWI-66" target="qWpF3jZFovPxBTXFjTdf-11">
          <mxGeometry relative="1" as="geometry" />
        </mxCell>
        <mxCell id="nw1ie-kH-2CXK3WOrrWI-84" style="edgeStyle=orthogonalEdgeStyle;rounded=0;orthogonalLoop=1;jettySize=auto;html=1;exitX=0.5;exitY=1;exitDx=0;exitDy=0;entryX=0.5;entryY=0;entryDx=0;entryDy=0;" edge="1" parent="1" source="nw1ie-kH-2CXK3WOrrWI-66" target="qWpF3jZFovPxBTXFjTdf-20">
          <mxGeometry relative="1" as="geometry" />
        </mxCell>
        <mxCell id="nw1ie-kH-2CXK3WOrrWI-85" style="edgeStyle=orthogonalEdgeStyle;rounded=0;orthogonalLoop=1;jettySize=auto;html=1;exitX=0.5;exitY=1;exitDx=0;exitDy=0;entryX=0.5;entryY=0;entryDx=0;entryDy=0;" edge="1" parent="1" source="nw1ie-kH-2CXK3WOrrWI-67" target="qWpF3jZFovPxBTXFjTdf-41">
          <mxGeometry relative="1" as="geometry" />
        </mxCell>
        <mxCell id="nw1ie-kH-2CXK3WOrrWI-86" style="edgeStyle=orthogonalEdgeStyle;rounded=0;orthogonalLoop=1;jettySize=auto;html=1;exitX=0.5;exitY=1;exitDx=0;exitDy=0;entryX=0.15;entryY=0.001;entryDx=0;entryDy=0;entryPerimeter=0;" edge="1" parent="1" source="nw1ie-kH-2CXK3WOrrWI-67" target="qWpF3jZFovPxBTXFjTdf-26">
          <mxGeometry relative="1" as="geometry" />
        </mxCell>
        <mxCell id="nw1ie-kH-2CXK3WOrrWI-108" style="edgeStyle=orthogonalEdgeStyle;rounded=0;orthogonalLoop=1;jettySize=auto;html=1;exitX=1;exitY=0.5;exitDx=0;exitDy=0;entryX=0;entryY=0.5;entryDx=0;entryDy=0;" edge="1" parent="1" source="nw1ie-kH-2CXK3WOrrWI-89" target="nw1ie-kH-2CXK3WOrrWI-93">
          <mxGeometry relative="1" as="geometry" />
        </mxCell>
        <mxCell id="nw1ie-kH-2CXK3WOrrWI-89" value="" style="rounded=1;whiteSpace=wrap;html=1;arcSize=5;fillColor=#f5f5f5;strokeColor=#1C57CD;strokeWidth=3;container=1;" vertex="1" parent="1">
          <mxGeometry x="1820" y="-150" width="331" height="143" as="geometry" />
        </mxCell>
        <mxCell id="nw1ie-kH-2CXK3WOrrWI-88" value="" style="group" vertex="1" connectable="0" parent="nw1ie-kH-2CXK3WOrrWI-89">
          <mxGeometry width="331" height="143" as="geometry" />
        </mxCell>
        <mxCell id="nw1ie-kH-2CXK3WOrrWI-90" value="&lt;span style=&quot;font-size: 23px;&quot;&gt;Сервис статики/CDN&lt;/span&gt;" style="text;html=1;align=center;verticalAlign=middle;whiteSpace=wrap;rounded=1;fontSize=13;container=1;" vertex="1" parent="nw1ie-kH-2CXK3WOrrWI-88">
          <mxGeometry x="10" y="50" width="309" height="30" as="geometry" />
        </mxCell>
        <mxCell id="nw1ie-kH-2CXK3WOrrWI-92" value="" style="group" vertex="1" connectable="0" parent="1">
          <mxGeometry x="2310" y="-150" width="331" height="143" as="geometry" />
        </mxCell>
        <mxCell id="nw1ie-kH-2CXK3WOrrWI-93" value="HOST MFF Маршрутизатор" style="rounded=1;whiteSpace=wrap;html=1;arcSize=5;fillColor=#f5f5f5;strokeColor=#1C57CD;strokeWidth=3;" vertex="1" parent="nw1ie-kH-2CXK3WOrrWI-92">
          <mxGeometry width="331" height="143" as="geometry" />
        </mxCell>
        <mxCell id="nw1ie-kH-2CXK3WOrrWI-95" value="" style="group" vertex="1" connectable="0" parent="1">
          <mxGeometry x="2710" y="110" width="331" height="170" as="geometry" />
        </mxCell>
        <mxCell id="nw1ie-kH-2CXK3WOrrWI-96" value="" style="rounded=1;whiteSpace=wrap;html=1;arcSize=5;fillColor=#f5f5f5;strokeColor=#1C57CD;strokeWidth=3;" vertex="1" parent="nw1ie-kH-2CXK3WOrrWI-95">
          <mxGeometry width="331" height="170" as="geometry" />
        </mxCell>
        <mxCell id="nw1ie-kH-2CXK3WOrrWI-97" value="&lt;font style=&quot;font-size: 23px;&quot;&gt;Система услуг MFF&lt;/font&gt;" style="text;html=1;align=center;verticalAlign=middle;whiteSpace=wrap;rounded=1;fontSize=13;" vertex="1" parent="nw1ie-kH-2CXK3WOrrWI-95">
          <mxGeometry x="1" y="7.13" width="289" height="35.66" as="geometry" />
        </mxCell>
        <mxCell id="BZBJQn5B5M7l6MrAMs_o-4" value="" style="group" parent="nw1ie-kH-2CXK3WOrrWI-95" vertex="1" connectable="0">
          <mxGeometry x="10" y="50" width="309" height="39" as="geometry" />
        </mxCell>
        <mxCell id="BZBJQn5B5M7l6MrAMs_o-56" value="" style="group" parent="BZBJQn5B5M7l6MrAMs_o-4" vertex="1" connectable="0">
          <mxGeometry width="309" height="39" as="geometry" />
        </mxCell>
        <mxCell id="cKbgiC5qh_IXnBO1eU4K-184" value="" style="rounded=1;whiteSpace=wrap;html=1;fillColor=#1C57CD;strokeColor=none;" parent="BZBJQn5B5M7l6MrAMs_o-56" vertex="1">
          <mxGeometry width="309" height="39" as="geometry" />
        </mxCell>
        <mxCell id="cKbgiC5qh_IXnBO1eU4K-185" value="" style="sketch=0;outlineConnect=0;fontColor=#FFFFFF;gradientColor=none;fillColor=#FFFFFF;strokeColor=none;dashed=0;verticalLabelPosition=bottom;verticalAlign=top;align=center;html=1;fontSize=12;fontStyle=0;aspect=fixed;pointerEvents=1;shape=mxgraph.aws4.gear;rounded=1;" parent="BZBJQn5B5M7l6MrAMs_o-56" vertex="1">
          <mxGeometry x="280" y="11" width="17" height="17" as="geometry" />
        </mxCell>
        <mxCell id="cKbgiC5qh_IXnBO1eU4K-186" value="Разместить услугу" style="text;html=1;align=center;verticalAlign=middle;whiteSpace=wrap;rounded=1;fontSize=13;fontColor=#FFFFFF;" parent="BZBJQn5B5M7l6MrAMs_o-56" vertex="1">
          <mxGeometry x="6" y="4.5" width="132" height="30" as="geometry" />
        </mxCell>
        <mxCell id="BZBJQn5B5M7l6MrAMs_o-3" value="" style="group" parent="nw1ie-kH-2CXK3WOrrWI-95" vertex="1" connectable="0">
          <mxGeometry x="10" y="100" width="309" height="39" as="geometry" />
        </mxCell>
        <mxCell id="BZBJQn5B5M7l6MrAMs_o-55" value="" style="group" parent="BZBJQn5B5M7l6MrAMs_o-3" vertex="1" connectable="0">
          <mxGeometry width="309" height="39" as="geometry" />
        </mxCell>
        <mxCell id="cKbgiC5qh_IXnBO1eU4K-181" value="" style="rounded=1;whiteSpace=wrap;html=1;fillColor=#1C57CD;strokeColor=none;" parent="BZBJQn5B5M7l6MrAMs_o-55" vertex="1">
          <mxGeometry width="309" height="39" as="geometry" />
        </mxCell>
        <mxCell id="cKbgiC5qh_IXnBO1eU4K-182" value="" style="sketch=0;outlineConnect=0;fontColor=#FFFFFF;gradientColor=none;fillColor=#FFFFFF;strokeColor=none;dashed=0;verticalLabelPosition=bottom;verticalAlign=top;align=center;html=1;fontSize=12;fontStyle=0;aspect=fixed;pointerEvents=1;shape=mxgraph.aws4.gear;rounded=1;" parent="BZBJQn5B5M7l6MrAMs_o-55" vertex="1">
          <mxGeometry x="280" y="11" width="17" height="17" as="geometry" />
        </mxCell>
        <mxCell id="cKbgiC5qh_IXnBO1eU4K-183" value="Разместить заказ" style="text;html=1;align=center;verticalAlign=middle;whiteSpace=wrap;rounded=1;fontSize=13;fontColor=#FFFFFF;" parent="BZBJQn5B5M7l6MrAMs_o-55" vertex="1">
          <mxGeometry x="14" y="3" width="117" height="30" as="geometry" />
        </mxCell>
        <mxCell id="nw1ie-kH-2CXK3WOrrWI-99" value="" style="group" vertex="1" connectable="0" parent="1">
          <mxGeometry x="1930" y="110" width="331" height="170" as="geometry" />
        </mxCell>
        <mxCell id="nw1ie-kH-2CXK3WOrrWI-100" value="" style="rounded=1;whiteSpace=wrap;html=1;arcSize=5;fillColor=#f5f5f5;strokeColor=#1C57CD;strokeWidth=3;" vertex="1" parent="nw1ie-kH-2CXK3WOrrWI-99">
          <mxGeometry width="331" height="170" as="geometry" />
        </mxCell>
        <mxCell id="nw1ie-kH-2CXK3WOrrWI-101" value="&lt;font style=&quot;font-size: 23px;&quot;&gt;Система регистрации MFF&lt;/font&gt;" style="text;html=1;align=center;verticalAlign=middle;whiteSpace=wrap;rounded=1;fontSize=13;" vertex="1" parent="nw1ie-kH-2CXK3WOrrWI-99">
          <mxGeometry x="1" y="7.13" width="319" height="35.66" as="geometry" />
        </mxCell>
        <mxCell id="BZBJQn5B5M7l6MrAMs_o-1" value="" style="group" parent="nw1ie-kH-2CXK3WOrrWI-99" vertex="1" connectable="0">
          <mxGeometry x="10" y="50" width="309" height="39" as="geometry" />
        </mxCell>
        <mxCell id="BZBJQn5B5M7l6MrAMs_o-53" value="" style="group" parent="BZBJQn5B5M7l6MrAMs_o-1" vertex="1" connectable="0">
          <mxGeometry width="309" height="39" as="geometry" />
        </mxCell>
        <mxCell id="cKbgiC5qh_IXnBO1eU4K-175" value="" style="rounded=1;whiteSpace=wrap;html=1;fillColor=#1C57CD;strokeColor=none;" parent="BZBJQn5B5M7l6MrAMs_o-53" vertex="1">
          <mxGeometry width="309" height="39" as="geometry" />
        </mxCell>
        <mxCell id="cKbgiC5qh_IXnBO1eU4K-176" value="" style="sketch=0;outlineConnect=0;fontColor=#FFFFFF;gradientColor=none;fillColor=#FFFFFF;strokeColor=none;dashed=0;verticalLabelPosition=bottom;verticalAlign=top;align=center;html=1;fontSize=12;fontStyle=0;aspect=fixed;pointerEvents=1;shape=mxgraph.aws4.gear;rounded=1;" parent="BZBJQn5B5M7l6MrAMs_o-53" vertex="1">
          <mxGeometry x="280" y="11" width="17" height="17" as="geometry" />
        </mxCell>
        <mxCell id="cKbgiC5qh_IXnBO1eU4K-177" value="Зарегистрироваться на площадке" style="text;html=1;align=center;verticalAlign=middle;whiteSpace=wrap;rounded=1;fontSize=13;fontColor=#FFFFFF;" parent="BZBJQn5B5M7l6MrAMs_o-53" vertex="1">
          <mxGeometry x="9" y="4.5" width="218" height="30" as="geometry" />
        </mxCell>
        <mxCell id="BZBJQn5B5M7l6MrAMs_o-2" value="" style="group" parent="nw1ie-kH-2CXK3WOrrWI-99" vertex="1" connectable="0">
          <mxGeometry x="10" y="100" width="309" height="39" as="geometry" />
        </mxCell>
        <mxCell id="BZBJQn5B5M7l6MrAMs_o-54" value="" style="group" parent="BZBJQn5B5M7l6MrAMs_o-2" vertex="1" connectable="0">
          <mxGeometry width="309" height="39" as="geometry" />
        </mxCell>
        <mxCell id="cKbgiC5qh_IXnBO1eU4K-178" value="" style="rounded=1;whiteSpace=wrap;html=1;fillColor=#1C57CD;strokeColor=none;" parent="BZBJQn5B5M7l6MrAMs_o-54" vertex="1">
          <mxGeometry width="309" height="39" as="geometry" />
        </mxCell>
        <mxCell id="cKbgiC5qh_IXnBO1eU4K-179" value="" style="sketch=0;outlineConnect=0;fontColor=#FFFFFF;gradientColor=none;fillColor=#FFFFFF;strokeColor=none;dashed=0;verticalLabelPosition=bottom;verticalAlign=top;align=center;html=1;fontSize=12;fontStyle=0;aspect=fixed;pointerEvents=1;shape=mxgraph.aws4.gear;rounded=1;" parent="BZBJQn5B5M7l6MrAMs_o-54" vertex="1">
          <mxGeometry x="280" y="11" width="17" height="17" as="geometry" />
        </mxCell>
        <mxCell id="cKbgiC5qh_IXnBO1eU4K-180" value="Редактировать профиль" style="text;html=1;align=center;verticalAlign=middle;whiteSpace=wrap;rounded=1;fontSize=13;fontColor=#FFFFFF;" parent="BZBJQn5B5M7l6MrAMs_o-54" vertex="1">
          <mxGeometry x="8" y="4.5" width="164" height="30" as="geometry" />
        </mxCell>
        <mxCell id="cKbgiC5qh_IXnBO1eU4K-91" value="&lt;p style=&quot;margin: 0px 0px 0px 13px; text-indent: -13px; font-variant-numeric: normal; font-variant-east-asian: normal; font-variant-alternates: normal; font-kerning: auto; font-optical-sizing: auto; font-feature-settings: normal; font-variation-settings: normal; font-variant-position: normal; font-stretch: normal; font-size: 14px; line-height: normal; color: rgb(14, 14, 14); text-align: start;&quot; class=&quot;p1&quot;&gt;&lt;br&gt;&lt;/p&gt;" style="rounded=1;whiteSpace=wrap;html=1;fillColor=#FF77BF;strokeColor=none;arcSize=33;" parent="1" vertex="1">
          <mxGeometry x="1260" y="820" width="151" height="31" as="geometry" />
        </mxCell>
        <mxCell id="kQWFD41fJFxlXKQhT5sF-2" value="" style="group" parent="1" vertex="1" connectable="0">
          <mxGeometry x="1260" y="820" width="151" height="36" as="geometry" />
        </mxCell>
        <mxCell id="cKbgiC5qh_IXnBO1eU4K-92" value="&lt;font style=&quot;font-size: 18px;&quot;&gt;&lt;i&gt;Django/Python&lt;/i&gt;&lt;/font&gt;" style="text;html=1;align=center;verticalAlign=middle;whiteSpace=wrap;rounded=1;shadow=0;fontSize=23;fontStyle=1" parent="kQWFD41fJFxlXKQhT5sF-2" vertex="1">
          <mxGeometry x="30" width="89" height="36" as="geometry" />
        </mxCell>
        <mxCell id="nw1ie-kH-2CXK3WOrrWI-102" value="" style="group" vertex="1" connectable="0" parent="1">
          <mxGeometry x="2320" y="110" width="331" height="170" as="geometry" />
        </mxCell>
        <mxCell id="nw1ie-kH-2CXK3WOrrWI-103" value="" style="rounded=1;whiteSpace=wrap;html=1;arcSize=5;fillColor=#f5f5f5;strokeColor=#1C57CD;strokeWidth=3;" vertex="1" parent="nw1ie-kH-2CXK3WOrrWI-102">
          <mxGeometry width="331" height="170" as="geometry" />
        </mxCell>
        <mxCell id="nw1ie-kH-2CXK3WOrrWI-104" value="&lt;font style=&quot;font-size: 23px;&quot;&gt;Система аукционов MFF&lt;/font&gt;" style="text;html=1;align=center;verticalAlign=middle;whiteSpace=wrap;rounded=1;fontSize=13;" vertex="1" parent="nw1ie-kH-2CXK3WOrrWI-102">
          <mxGeometry x="1" y="7.13" width="299" height="35.66" as="geometry" />
        </mxCell>
        <mxCell id="BZBJQn5B5M7l6MrAMs_o-5" value="" style="group" parent="nw1ie-kH-2CXK3WOrrWI-102" vertex="1" connectable="0">
          <mxGeometry x="10" y="50" width="309" height="39" as="geometry" />
        </mxCell>
        <mxCell id="BZBJQn5B5M7l6MrAMs_o-57" value="" style="group" parent="BZBJQn5B5M7l6MrAMs_o-5" vertex="1" connectable="0">
          <mxGeometry width="309" height="39" as="geometry" />
        </mxCell>
        <mxCell id="cKbgiC5qh_IXnBO1eU4K-187" value="" style="rounded=1;whiteSpace=wrap;html=1;fillColor=#1C57CD;strokeColor=none;" parent="BZBJQn5B5M7l6MrAMs_o-57" vertex="1">
          <mxGeometry width="309" height="39" as="geometry" />
        </mxCell>
        <mxCell id="cKbgiC5qh_IXnBO1eU4K-188" value="" style="sketch=0;outlineConnect=0;fontColor=#FFFFFF;gradientColor=none;fillColor=#FFFFFF;strokeColor=none;dashed=0;verticalLabelPosition=bottom;verticalAlign=top;align=center;html=1;fontSize=12;fontStyle=0;aspect=fixed;pointerEvents=1;shape=mxgraph.aws4.gear;rounded=1;" parent="BZBJQn5B5M7l6MrAMs_o-57" vertex="1">
          <mxGeometry x="280" y="11" width="17" height="17" as="geometry" />
        </mxCell>
        <mxCell id="cKbgiC5qh_IXnBO1eU4K-189" value="Создать аукцион" style="text;html=1;align=center;verticalAlign=middle;whiteSpace=wrap;rounded=1;fontSize=13;fontColor=#FFFFFF;" parent="BZBJQn5B5M7l6MrAMs_o-57" vertex="1">
          <mxGeometry x="10" y="4.5" width="110" height="30" as="geometry" />
        </mxCell>
        <mxCell id="BZBJQn5B5M7l6MrAMs_o-6" value="" style="group" parent="nw1ie-kH-2CXK3WOrrWI-102" vertex="1" connectable="0">
          <mxGeometry x="10" y="100" width="309" height="39" as="geometry" />
        </mxCell>
        <mxCell id="BZBJQn5B5M7l6MrAMs_o-58" value="" style="group" parent="BZBJQn5B5M7l6MrAMs_o-6" vertex="1" connectable="0">
          <mxGeometry width="309" height="39" as="geometry" />
        </mxCell>
        <mxCell id="cKbgiC5qh_IXnBO1eU4K-190" value="" style="rounded=1;whiteSpace=wrap;html=1;fillColor=#1C57CD;strokeColor=none;" parent="BZBJQn5B5M7l6MrAMs_o-58" vertex="1">
          <mxGeometry width="309" height="39" as="geometry" />
        </mxCell>
        <mxCell id="cKbgiC5qh_IXnBO1eU4K-191" value="" style="sketch=0;outlineConnect=0;fontColor=#FFFFFF;gradientColor=none;fillColor=#FFFFFF;strokeColor=none;dashed=0;verticalLabelPosition=bottom;verticalAlign=top;align=center;html=1;fontSize=12;fontStyle=0;aspect=fixed;pointerEvents=1;shape=mxgraph.aws4.gear;rounded=1;" parent="BZBJQn5B5M7l6MrAMs_o-58" vertex="1">
          <mxGeometry x="280" y="11" width="17" height="17" as="geometry" />
        </mxCell>
        <mxCell id="cKbgiC5qh_IXnBO1eU4K-192" value="Подать заявку на аукцион" style="text;html=1;align=center;verticalAlign=middle;whiteSpace=wrap;rounded=1;fontSize=13;fontColor=#FFFFFF;" parent="BZBJQn5B5M7l6MrAMs_o-58" vertex="1">
          <mxGeometry x="10" y="4.5" width="167" height="30" as="geometry" />
        </mxCell>
        <mxCell id="nw1ie-kH-2CXK3WOrrWI-105" style="edgeStyle=orthogonalEdgeStyle;rounded=0;orthogonalLoop=1;jettySize=auto;html=1;exitX=0.75;exitY=1;exitDx=0;exitDy=0;entryX=0.062;entryY=-0.021;entryDx=0;entryDy=0;entryPerimeter=0;" edge="1" parent="1" source="nw1ie-kH-2CXK3WOrrWI-100" target="nw1ie-kH-2CXK3WOrrWI-66">
          <mxGeometry relative="1" as="geometry" />
        </mxCell>
        <mxCell id="nw1ie-kH-2CXK3WOrrWI-106" style="edgeStyle=orthogonalEdgeStyle;rounded=0;orthogonalLoop=1;jettySize=auto;html=1;exitX=0.75;exitY=1;exitDx=0;exitDy=0;entryX=0.5;entryY=0;entryDx=0;entryDy=0;" edge="1" parent="1" source="nw1ie-kH-2CXK3WOrrWI-103" target="nw1ie-kH-2CXK3WOrrWI-66">
          <mxGeometry relative="1" as="geometry">
            <Array as="points">
              <mxPoint x="2568" y="325" />
              <mxPoint x="2569" y="370" />
            </Array>
          </mxGeometry>
        </mxCell>
        <mxCell id="nw1ie-kH-2CXK3WOrrWI-107" style="edgeStyle=orthogonalEdgeStyle;rounded=0;orthogonalLoop=1;jettySize=auto;html=1;exitX=0.5;exitY=1;exitDx=0;exitDy=0;entryX=0.825;entryY=-0.017;entryDx=0;entryDy=0;entryPerimeter=0;" edge="1" parent="1" source="nw1ie-kH-2CXK3WOrrWI-96" target="nw1ie-kH-2CXK3WOrrWI-66">
          <mxGeometry relative="1" as="geometry">
            <Array as="points">
              <mxPoint x="2876" y="325" />
              <mxPoint x="2718" y="325" />
            </Array>
          </mxGeometry>
        </mxCell>
        <mxCell id="nw1ie-kH-2CXK3WOrrWI-109" style="edgeStyle=orthogonalEdgeStyle;rounded=0;orthogonalLoop=1;jettySize=auto;html=1;exitX=0.25;exitY=1;exitDx=0;exitDy=0;entryX=0.5;entryY=0;entryDx=0;entryDy=0;" edge="1" parent="1" source="nw1ie-kH-2CXK3WOrrWI-93" target="nw1ie-kH-2CXK3WOrrWI-100">
          <mxGeometry relative="1" as="geometry" />
        </mxCell>
        <mxCell id="nw1ie-kH-2CXK3WOrrWI-110" style="edgeStyle=orthogonalEdgeStyle;rounded=0;orthogonalLoop=1;jettySize=auto;html=1;exitX=0.5;exitY=1;exitDx=0;exitDy=0;entryX=0.47;entryY=0.007;entryDx=0;entryDy=0;entryPerimeter=0;" edge="1" parent="1" source="nw1ie-kH-2CXK3WOrrWI-93" target="nw1ie-kH-2CXK3WOrrWI-103">
          <mxGeometry relative="1" as="geometry" />
        </mxCell>
        <mxCell id="nw1ie-kH-2CXK3WOrrWI-111" style="edgeStyle=orthogonalEdgeStyle;rounded=0;orthogonalLoop=1;jettySize=auto;html=1;exitX=0.75;exitY=1;exitDx=0;exitDy=0;entryX=0.5;entryY=0;entryDx=0;entryDy=0;" edge="1" parent="1" source="nw1ie-kH-2CXK3WOrrWI-93" target="nw1ie-kH-2CXK3WOrrWI-96">
          <mxGeometry relative="1" as="geometry" />
        </mxCell>
        <mxCell id="nw1ie-kH-2CXK3WOrrWI-112" style="edgeStyle=orthogonalEdgeStyle;rounded=0;orthogonalLoop=1;jettySize=auto;html=1;exitX=0.5;exitY=1;exitDx=0;exitDy=0;entryX=0.5;entryY=0;entryDx=0;entryDy=0;entryPerimeter=0;" edge="1" parent="1" source="qWpF3jZFovPxBTXFjTdf-2" target="aNh6FEuhw9lsT8rE3H5J-60">
          <mxGeometry relative="1" as="geometry" />
        </mxCell>
        <mxCell id="nw1ie-kH-2CXK3WOrrWI-113" style="edgeStyle=orthogonalEdgeStyle;rounded=0;orthogonalLoop=1;jettySize=auto;html=1;exitX=0.5;exitY=1;exitDx=0;exitDy=0;entryX=0.5;entryY=0;entryDx=0;entryDy=0;entryPerimeter=0;" edge="1" parent="1" source="qWpF3jZFovPxBTXFjTdf-23" target="qWpF3jZFovPxBTXFjTdf-31">
          <mxGeometry relative="1" as="geometry" />
        </mxCell>
        <mxCell id="nw1ie-kH-2CXK3WOrrWI-114" style="edgeStyle=orthogonalEdgeStyle;rounded=0;orthogonalLoop=1;jettySize=auto;html=1;exitX=0.5;exitY=1;exitDx=0;exitDy=0;entryX=0.5;entryY=0;entryDx=0;entryDy=0;entryPerimeter=0;" edge="1" parent="1" source="qWpF3jZFovPxBTXFjTdf-33" target="nw1ie-kH-2CXK3WOrrWI-1">
          <mxGeometry relative="1" as="geometry" />
        </mxCell>
        <mxCell id="nw1ie-kH-2CXK3WOrrWI-115" style="edgeStyle=orthogonalEdgeStyle;rounded=0;orthogonalLoop=1;jettySize=auto;html=1;exitX=0.5;exitY=1;exitDx=0;exitDy=0;entryX=0.5;entryY=0;entryDx=0;entryDy=0;entryPerimeter=0;" edge="1" parent="1" source="qWpF3jZFovPxBTXFjTdf-29" target="nw1ie-kH-2CXK3WOrrWI-2">
          <mxGeometry relative="1" as="geometry" />
        </mxCell>
        <mxCell id="nw1ie-kH-2CXK3WOrrWI-116" style="edgeStyle=orthogonalEdgeStyle;rounded=0;orthogonalLoop=1;jettySize=auto;html=1;exitX=0.5;exitY=1;exitDx=0;exitDy=0;entryX=0.5;entryY=0;entryDx=0;entryDy=0;entryPerimeter=0;" edge="1" parent="1" source="qWpF3jZFovPxBTXFjTdf-11" target="nw1ie-kH-2CXK3WOrrWI-3">
          <mxGeometry relative="1" as="geometry" />
        </mxCell>
        <mxCell id="nw1ie-kH-2CXK3WOrrWI-118" value="" style="endArrow=classic;html=1;rounded=1;curved=0;entryX=0.875;entryY=-0.007;entryDx=0;entryDy=0;entryPerimeter=0;exitX=0.87;exitY=0.992;exitDx=0;exitDy=0;exitPerimeter=0;" edge="1" parent="1" source="Tz6aEU4ManMyac2rpAqn-104" target="cKbgiC5qh_IXnBO1eU4K-143">
          <mxGeometry width="50" height="50" relative="1" as="geometry">
            <mxPoint x="4167" y="-218" as="sourcePoint" />
            <mxPoint x="4190" y="876" as="targetPoint" />
            <Array as="points" />
          </mxGeometry>
        </mxCell>
        <mxCell id="cKbgiC5qh_IXnBO1eU4K-143" value="5" style="ellipse;whiteSpace=wrap;html=1;aspect=fixed;rounded=1;fillColor=#FF77BF;" parent="1" vertex="1">
          <mxGeometry x="4160" y="-220" width="23" height="23" as="geometry" />
        </mxCell>
        <mxCell id="nw1ie-kH-2CXK3WOrrWI-121" value="" style="group" vertex="1" connectable="0" parent="1">
          <mxGeometry x="980" y="880" width="331" height="143" as="geometry" />
        </mxCell>
        <mxCell id="nw1ie-kH-2CXK3WOrrWI-122" value="" style="rounded=1;whiteSpace=wrap;html=1;arcSize=5;fillColor=#f5f5f5;strokeColor=#1C57CD;strokeWidth=3;" vertex="1" parent="nw1ie-kH-2CXK3WOrrWI-121">
          <mxGeometry width="331" height="143" as="geometry" />
        </mxCell>
        <mxCell id="nw1ie-kH-2CXK3WOrrWI-123" value="&lt;font style=&quot;font-size: 23px;&quot;&gt;EventStore Service&lt;/font&gt;" style="text;html=1;align=center;verticalAlign=middle;whiteSpace=wrap;rounded=1;fontSize=13;" vertex="1" parent="nw1ie-kH-2CXK3WOrrWI-121">
          <mxGeometry x="1" y="6" width="289" height="30" as="geometry" />
        </mxCell>
        <mxCell id="nw1ie-kH-2CXK3WOrrWI-124" value="&lt;font style=&quot;font-size: 14px;&quot;&gt;Events&lt;/font&gt;" style="strokeWidth=2;html=1;shape=mxgraph.flowchart.database;whiteSpace=wrap;rounded=1;movable=1;resizable=1;rotatable=1;deletable=1;editable=1;locked=0;connectable=1;" vertex="1" parent="1">
          <mxGeometry x="1050" y="1110" width="200" height="160" as="geometry" />
        </mxCell>
        <mxCell id="nw1ie-kH-2CXK3WOrrWI-126" value="" style="group" vertex="1" connectable="0" parent="1">
          <mxGeometry x="1070" y="1120" width="157" height="25" as="geometry" />
        </mxCell>
        <mxCell id="nw1ie-kH-2CXK3WOrrWI-127" value="&lt;p style=&quot;margin: 0px 0px 0px 13px; text-indent: -13px; font-variant-numeric: normal; font-variant-east-asian: normal; font-variant-alternates: normal; font-kerning: auto; font-optical-sizing: auto; font-feature-settings: normal; font-variation-settings: normal; font-variant-position: normal; font-stretch: normal; font-size: 14px; line-height: normal; color: rgb(14, 14, 14); text-align: start;&quot; class=&quot;p1&quot;&gt;&lt;br&gt;&lt;/p&gt;" style="rounded=1;whiteSpace=wrap;html=1;fillColor=#FF77BF;strokeColor=none;arcSize=33;" vertex="1" parent="nw1ie-kH-2CXK3WOrrWI-126">
          <mxGeometry x="3" y="1" width="151" height="24" as="geometry" />
        </mxCell>
        <mxCell id="nw1ie-kH-2CXK3WOrrWI-128" value="&lt;span style=&quot;font-size: 18px;&quot;&gt;&lt;i&gt;NoSqlStore&lt;/i&gt;&lt;/span&gt;" style="text;html=1;align=center;verticalAlign=middle;whiteSpace=wrap;rounded=1;shadow=0;fontSize=23;fontStyle=1" vertex="1" parent="nw1ie-kH-2CXK3WOrrWI-126">
          <mxGeometry width="157" height="17" as="geometry" />
        </mxCell>
        <mxCell id="nw1ie-kH-2CXK3WOrrWI-130" style="edgeStyle=orthogonalEdgeStyle;rounded=0;orthogonalLoop=1;jettySize=auto;html=1;exitX=0.5;exitY=0;exitDx=0;exitDy=0;exitPerimeter=0;entryX=0.512;entryY=1.001;entryDx=0;entryDy=0;entryPerimeter=0;" edge="1" parent="1" source="nw1ie-kH-2CXK3WOrrWI-124" target="nw1ie-kH-2CXK3WOrrWI-122">
          <mxGeometry relative="1" as="geometry" />
        </mxCell>
        <mxCell id="nw1ie-kH-2CXK3WOrrWI-131" style="edgeStyle=orthogonalEdgeStyle;rounded=0;orthogonalLoop=1;jettySize=auto;html=1;exitX=0.5;exitY=0;exitDx=0;exitDy=0;entryX=0;entryY=0.429;entryDx=0;entryDy=0;entryPerimeter=0;" edge="1" parent="1" source="nw1ie-kH-2CXK3WOrrWI-122" target="nw1ie-kH-2CXK3WOrrWI-29">
          <mxGeometry relative="1" as="geometry" />
        </mxCell>
        <mxCell id="nw1ie-kH-2CXK3WOrrWI-132" value="" style="group" vertex="1" connectable="0" parent="1">
          <mxGeometry x="4320" y="-370" width="333" height="145" as="geometry" />
        </mxCell>
        <mxCell id="nw1ie-kH-2CXK3WOrrWI-133" value="" style="rounded=1;whiteSpace=wrap;html=1;arcSize=5;fillColor=#fff2cc;strokeColor=#d6b656;" vertex="1" parent="nw1ie-kH-2CXK3WOrrWI-132">
          <mxGeometry width="333" height="145" as="geometry" />
        </mxCell>
        <mxCell id="nw1ie-kH-2CXK3WOrrWI-134" value="&lt;span style=&quot;font-weight: normal;&quot;&gt;Сервисы отправки сообщений&lt;/span&gt;&lt;div&gt;&lt;span style=&quot;font-weight: 400;&quot;&gt;FCM&lt;/span&gt;&lt;/div&gt;" style="text;html=1;align=center;verticalAlign=middle;whiteSpace=wrap;rounded=1;shadow=0;fontSize=23;fontStyle=1" vertex="1" parent="nw1ie-kH-2CXK3WOrrWI-132">
          <mxGeometry x="2" y="1" width="331" height="129" as="geometry" />
        </mxCell>
        <mxCell id="nw1ie-kH-2CXK3WOrrWI-136" style="edgeStyle=orthogonalEdgeStyle;rounded=0;orthogonalLoop=1;jettySize=auto;html=1;exitX=0.75;exitY=0;exitDx=0;exitDy=0;entryX=0.612;entryY=0.976;entryDx=0;entryDy=0;entryPerimeter=0;" edge="1" parent="1" source="qWpF3jZFovPxBTXFjTdf-5" target="nw1ie-kH-2CXK3WOrrWI-133">
          <mxGeometry relative="1" as="geometry" />
        </mxCell>
        <mxCell id="nw1ie-kH-2CXK3WOrrWI-137" value="&lt;h1 style=&quot;margin-top: 0px; font-size: 15px;&quot;&gt;&lt;p class=&quot;p1&quot; style=&quot;margin: 0px 0px 0px 21px; text-indent: -21px; font-variant-numeric: normal; font-variant-east-asian: normal; font-variant-alternates: normal; font-kerning: auto; font-optical-sizing: auto; font-feature-settings: normal; font-variation-settings: normal; font-variant-position: normal; font-stretch: normal; font-size: 15px; line-height: normal; color: rgb(14, 14, 14);&quot;&gt;План миграции&amp;nbsp;&lt;/p&gt;&lt;p class=&quot;p1&quot; style=&quot;margin: 0px 0px 0px 21px; text-indent: -21px; font-variant-numeric: normal; font-variant-east-asian: normal; font-variant-alternates: normal; font-kerning: auto; font-optical-sizing: auto; font-feature-settings: normal; font-variation-settings: normal; font-variant-position: normal; font-stretch: normal; font-size: 15px; line-height: normal; color: rgb(14, 14, 14);&quot;&gt;&lt;br&gt;&lt;/p&gt;&lt;p class=&quot;p1&quot; style=&quot;margin: 0px 0px 0px 21px; text-indent: -21px; font-variant-numeric: normal; font-variant-east-asian: normal; font-variant-alternates: normal; font-kerning: auto; font-optical-sizing: auto; font-feature-settings: normal; font-variation-settings: normal; font-variant-position: normal; font-stretch: normal; font-size: 15px; line-height: normal; color: rgb(14, 14, 14);&quot;&gt;Так как предыдущая система была скорее всего на другой архитектуре&amp;nbsp;&lt;/p&gt;&lt;p class=&quot;p1&quot; style=&quot;margin: 0px 0px 0px 21px; text-indent: -21px; font-variant-numeric: normal; font-variant-east-asian: normal; font-variant-alternates: normal; font-kerning: auto; font-optical-sizing: auto; font-feature-settings: normal; font-variation-settings: normal; font-variant-position: normal; font-stretch: normal; font-size: 15px; line-height: normal; color: rgb(14, 14, 14);&quot;&gt;1 Пишем прослойку которая формирует события&amp;nbsp;&lt;/p&gt;&lt;p class=&quot;p1&quot; style=&quot;margin: 0px 0px 0px 21px; text-indent: -21px; font-variant-numeric: normal; font-variant-east-asian: normal; font-variant-alternates: normal; font-kerning: auto; font-optical-sizing: auto; font-feature-settings: normal; font-variation-settings: normal; font-variant-position: normal; font-stretch: normal; font-size: 15px; line-height: normal; color: rgb(14, 14, 14);&quot;&gt;2 Разбиваем код на микросервисы в соответсвии с их бизнес доменами&lt;/p&gt;&lt;p class=&quot;p1&quot; style=&quot;margin: 0px 0px 0px 21px; text-indent: -21px; font-variant-numeric: normal; font-variant-east-asian: normal; font-variant-alternates: normal; font-kerning: auto; font-optical-sizing: auto; font-feature-settings: normal; font-variation-settings: normal; font-variant-position: normal; font-stretch: normal; font-size: 15px; line-height: normal; color: rgb(14, 14, 14);&quot;&gt;3 Формируем снапшоты для eventBus для исторических данных&lt;/p&gt;&lt;p class=&quot;p1&quot; style=&quot;margin: 0px 0px 0px 21px; text-indent: -21px; font-variant-numeric: normal; font-variant-east-asian: normal; font-variant-alternates: normal; font-kerning: auto; font-optical-sizing: auto; font-feature-settings: normal; font-variation-settings: normal; font-variant-position: normal; font-stretch: normal; font-size: 15px; line-height: normal; color: rgb(14, 14, 14);&quot;&gt;4 Постепенно переводим трафик на новые сервисы используя ACL и Маршрутизатор&lt;/p&gt;&lt;p class=&quot;p1&quot; style=&quot;margin: 0px 0px 0px 21px; text-indent: -21px; font-variant-numeric: normal; font-variant-east-asian: normal; font-variant-alternates: normal; font-kerning: auto; font-optical-sizing: auto; font-feature-settings: normal; font-variation-settings: normal; font-variant-position: normal; font-stretch: normal; font-size: 15px; line-height: normal; color: rgb(14, 14, 14);&quot;&gt;5 Завершаем миграцию отключая оставшийся код&lt;/p&gt;&lt;p class=&quot;p1&quot; style=&quot;margin: 0px 0px 0px 21px; text-indent: -21px; font-variant-numeric: normal; font-variant-east-asian: normal; font-variant-alternates: normal; font-kerning: auto; font-optical-sizing: auto; font-feature-settings: normal; font-variation-settings: normal; font-variant-position: normal; font-stretch: normal; font-size: 15px; line-height: normal; color: rgb(14, 14, 14);&quot;&gt;&lt;br&gt;&lt;/p&gt;&lt;/h1&gt;" style="text;html=1;whiteSpace=wrap;overflow=hidden;rounded=0;fontSize=15;" vertex="1" parent="1">
          <mxGeometry x="2300" y="1850" width="1270" height="445" as="geometry" />
        </mxCell>
      </root>
    </mxGraphModel>
  </diagram>
</mxfile>
